/* XPM */
static char *aj576_3qq8t[] = {
/* columns rows colors chars-per-pixel */
"60 60 55 1 ",
"  c #130A1B",
". c #7D2214",
"X c #421E2F",
"o c #572834",
"O c #582935",
"+ c #443F3A",
"@ c #46413B",
"# c #4A453E",
"$ c #4C4740",
"% c #4E4942",
"& c #534D46",
"* c #554F48",
"= c #555047",
"- c #575149",
"; c #5B554C",
": c #5E584F",
"> c #5E5750",
", c #5F5950",
"< c #635C53",
"1 c #675F58",
"2 c #686157",
"3 c #676058",
"4 c #686258",
"5 c #6A635A",
"6 c #6B645B",
"7 c #6C645B",
"8 c #6B645C",
"9 c #6E665D",
"0 c #6F685E",
"q c #70685F",
"w c #6F6860",
"e c #726A61",
"r c #736C62",
"t c #746C62",
"y c #756D63",
"u c #776E64",
"i c #776F66",
"p c #786F66",
"a c #787066",
"s c #7B726A",
"d c #7C746B",
"f c #7F766C",
"g c #983E1D",
"h c #80776E",
"j c #81796F",
"k c #827A70",
"l c #857C72",
"z c #877E74",
"x c #8A7970",
"c c #887F74",
"v c #8A8076",
"b c #8C8278",
"n c #91877C",
"m c #E1924D",
"M c #FFD9B9",
/* pixels */
":53>;::*<:5;%<:;:;;<-:&6s,:;-:q<;;5--;<-%::<51q;15--;951<%-e",
"55,<<<:<-;-&-<::;-5,--<-#*1<;<1>*:51-,<--;<::5<&5<&-u:#;&%;<",
"<:;-&-:552:;-:-;,<:-11<<5;<<,:&&:---;-:<-=;<91:<<:&<:%1<--2e",
"-&%%&:<<:<61<1:<;*;15<59<11-<;:::-<1<:;<55<1-<;:;--1,-56<;y,",
";&,&;::<<<1-1<:<-1:,-:99<555:&;,1*;<-,112a5;;5,1<&::-<<;,<*#",
"-;5;1<1:;55-<,-&*;;&<csjs*:51;-&,,;*:-*5r9>-*<*::;:<-1::e1--",
"<;<51<<;-<1*11-;:<::avse8;:a5;<1,<;-<935y1<&&5;----;1:*<<:1;",
":<5<*-<:--*;<;-::<<5few9>;:11&;>;<-;5e5-;:**$1<11=5::e::<&-&",
":<:;%-<<:-::1,:;<<:<1<5e<<3<<%&-:<--,1-*;:<$-;:u1-s3<s<65e<%",
"9&---:;52-;;1,<501-er151-<<<--<u:-:-*5<:,;-%eu--&:9ed511-j1-",
"*&*;;;-:5,&-*<::;&:6e9>$e1-:-:<5<,;;::;,:;5,<-#;<-51<35;<<::",
"7<;:;5:<u3&=--;<;-,;1;%-1,::::5l<-;:<-<5&19&-*:<;;9,<e2555<:",
"1651q9315&&:1u<-,1:;79956:&1:&ooooX<,;<1--&:,:75<155<692*k5:",
"5e<y9,<;-*;;95:1&:<<99<;:&-71-ooooo,<<;6,&ja3uu;551<;19;en,<",
",-1::-&*<-:<9;--;5-;55<-XXXXXXMMMooX<;;1<:qe<:-6<39<1167ze<1",
",:1:-$#--%<<&-;:,1::---&XXXXXXXXMMMX1&<5<1:;*,;1u09e:<169%y<",
"<%:,-%-1*&-%;::;:<,;-%#-5XXXXXXXXXMX;-:*&-;&%<e;:;%<<;:5>1::",
"*%<<,-<--5;%*;51:6<-;;&5eXXggg..XXX<*%:5;--5:dv&1--1:<q::<<:",
",*---*::&15;:;<<;<:--<<&#9Xgmmmm..XX@*:::,<9<u<-,<9955179<;-",
"5;<::-&;;::*<-&:,5;<-&-,6u<mOOOmg.XXX--::<11<0<7,16-<<5l<1<;",
"<*,<<-<<*95$56&-:<,-&<-<f9#mm.mmgm.XX;=:515u*<:<,;-y<&80:<,*",
"<-<--*53-:*&5<&:-:;-<5:<,-*mmmmggm.XXX::9;511,:,;<5d9-5<:1<&",
"&-:<-<5;;2<,;-&-<;;:256,%&:-mmggg99XXX:-;--%1-<<:<99:&&:<---",
"-,,<-*<leq5<:--5<1<-,9d5*;:<gggMMx,-;-:&--:<&*<<;:5,-*#;<16<",
"71;*-;uk95,<1*:05915:ua:::5MXMMMgg-1-<<;<:,--<,-5,-*---::65:",
"5*%--9fuww;<<6<%<fse<:>-5<.xXMMgMMM<&::1::;;,<--5;-<,-;;;*;9",
"&*&&,6eue91;5r<:3ueu1&;<55.xXMgxMMM--;51:;;:<:<6--<<-;56-:<1",
"%&,1:1<55,-;e,::e,,1;,<561..XggxMMMM;<1<:-1---<<:;1-*,53%5<&",
"-61,:-<<:->-eu5eu:%<,<<,5-..XggxxxMM;1<,**<<9,;;----:-5:99&-",
"5d<&-19<<,1-vbpv<-:<<<ee:,..Xgg..xxM<,<-55-5,,:<-*&75-;,e<&,",
"<%;11<,-5556s5e,--55-ua9-1..Xggg.xxx;-<&11&--:*-:;-,#9u<&%-:",
"5=11:::<1515<,,:66dq101::;..Xggg..MMMhq-*$-:;-<-::;-;:--*-<<",
":;91<:1:5e,&&<5ud151<5:<3;.XXggg..MMMq11--*::9y*;;<5<15--&au",
"#9s<5551<15:-5elf&<<>9e5;<.XXggg.MMMx**<,:-<;9>&;:<,,:::,:5:",
";q,-<<:<55r<<fse;5u;15:mmm.XXXgg.xxx*-;;1:::&1-,;--#*<95-;&&",
"<<&-6s1:<091qd5,-<e<:<;mgg.XXXgg.MM-;-:<551--<---:-1655;<<1:",
"::<;99<71uu10u<*&;:,-<:mmg.XXXggmmm<:<;:9<,1<5:::;1y5<-1e5,-",
":<,1,<e01:u5::&;-<<-;<:;::.oooggmmmm<<<19-*1--5<:;dk1:;95,;&",
"-<uu;550<*e3195,<<::<:11--oooooommmm5<uq1:%&9u:5,*5se;;,<:>;",
"55ke;:1q03-:1q155*:2--51-oooooooXmm<<1y1;--*lh-<5,--1a;;-%-<",
"5<,#:yy1f9-15se;;<5*;e:#oooooooXXq:,:,1;;1;eh*<a<---15:1:&<5",
";:&&:1,<5<198u5ee<-%,:&-ooooooXXX-83&-<,:9<1<;69@*:<11e1-;1<",
"-5e<,;;:55<ye-;e5<-<1*3uooooooXXXas<-<31-;<;189<;90&<u75;51-",
",--::---%95;:$1<-;;eu-1ooooooXXXX5,<:;-,-:9,,1;<55&-<:<<:0,1",
"*::&1,-:<<--&;:;;;--%*,oooooXXXXX&-;<::;;<3<:<<5:,&11<:&:<*,",
";<--<;;%7<-<,:;<-:,-&:ooooooXXXXXru<680-<5u9-<e1:5,1*0ep5$:;",
":-*-,**91;-:<--<1::,55ooooo;XXXXX<<&-1<1<<9*&15<q9<&5<9s-&<1",
"97<<;&<y1:-&&:;aq<-;51ooooo5XXXXX<<-<<eu,:%%2<*;,<,qa1f<#*<1",
"9&%::-<=-<:,--;<*%&<&*:ooxx-<XXXXx;:,de:1<:19>:%&-:e<*11--:y",
"&&9:----:,;-:,;<&-;,;-,<xxx*-XXXxxxx  ;:<;<5<;&-<<1&&-:5:-::",
"*:p*&;<-*<:;-6<;:::--5:<xxx<<*Xxxxxx  :59<3<;-&;:;-:--1:;,;#",
"1:;-::<;-29;;9:-1-yd*<<::xxx:;:5u-;x  &5e9u1-:&*;-<5--;,11<;",
"5;<;;,<:,;---5%-;-ye@-:&-<xM&&,1<-:   =:5uw,-,5;<:91-;=;;-;:",
"%%<<&-;<1&$;:&&*<<;+-1<:&  x <&-;:   :<,99<;&-6<:;::<<;-;:-<",
":::<<<-<<:;-:&<<<;:51;<      -;<,-   ;<<651<$&;;-:-&1<:,<1&,",
";-;6q*-;:<*-:5<<*;15:*,      %:;&<1&&;:5<11;#&:&;:1*::-:;*-,",
"e&,<-&::<<q1<,,;*:;:y;:5<<5::9y<-::%:<<:9<-&-;:-;:*;,,:-5<:<",
";;<<:-;;121-:;-%15&15&*<<1,<15<<:--<<-:15&::;-<7;:6:;55<35:-",
";-;:;<<;<1**;;&&---<&-;=-;-5--<&--;-:-7l,#qq-<,-<<:;:;ud51-1",
";5e--;5y6-uq<-=-;5=--<&7d<::u5--,&;1::55&&1111-5,*<<;2a91,&<"
};
