/* XPM */
static char *a5s7j_aeecm[] = {
/* columns rows colors chars-per-pixel */
"60 60 55 1 ",
"  c #130A1B",
". c #7D2214",
"X c #421E2F",
"o c #572834",
"O c #582935",
"+ c #443F3A",
"@ c #46413B",
"# c #4A453E",
"$ c #4C4740",
"% c #4E4942",
"& c #534D46",
"* c #554F48",
"= c #555047",
"- c #565149",
"; c #5B554C",
": c #5E584F",
"> c #5E5750",
", c #5F5950",
"< c #635C53",
"1 c #675F58",
"2 c #686157",
"3 c #676058",
"4 c #686258",
"5 c #6A635A",
"6 c #6B645B",
"7 c #6C645B",
"8 c #6B645C",
"9 c #6E665D",
"0 c #6F685E",
"q c #70685F",
"w c #6F6860",
"e c #726A61",
"r c #736C62",
"t c #746C62",
"y c #756D63",
"u c #776E64",
"i c #786F66",
"p c #787066",
"a c #7B726A",
"s c #7C746A",
"d c #7D746B",
"f c #7F766C",
"g c #983E1D",
"h c #80776E",
"j c #81796F",
"k c #827A70",
"l c #857C71",
"z c #877E74",
"x c #8A7970",
"c c #887F74",
"v c #8A8076",
"b c #8C8278",
"n c #91877C",
"m c #E1924D",
"M c #FFD9B9",
/* pixels */
":53>;::*<:5;%<:;:;;<;:&6a,:;-:q<;;5;-;<-%::<51q;15;;;951<%-e",
"55,<<<:<;;-&-<::;;3:-;<;#&1,;<1:*:51;:<-;;<::5<*5<%-y:#;&%;<",
"<:;-&-:552:;;:;;,<:-11<<5;<<,:&&:;-=;-:<;=;<91;<<:&<;%1<-;2e",
";&%%&:<<:<61<1:<;&;15<59<11-<:,::-<1<:;<51<1-<;:;-;<,;56<;y,",
";&,&;::<<<1;1<:<;1:>-:99<555:&;,1*;<-,111u5;;5,1<&::;<<;,<*#",
";;5;1<1:;55-<,-&*;;&<caja*:51;;&,,;*:;*5e9>-*<*::;:<-1::e1--",
"<;<51<<;;<1*11-;:<::pvae8;:p5;<1:<;;<635y1<&&5;-;;;;1:&<<:1;",
":<5<*-<;;-*;<;;::<<5few9>;:11&;>;<;;505;;:**$1<11*5::e;:<&-&",
":<:;%;<<;;::<,;;<<:<1<5e<<3<<%%-:<--,1;*;:<$-;:u1-p3<a<65e<%",
"9&---:;55;;;1,<501-er151-<<<;;<u:;:-*5<:,;;%eu-;%;9ed511-j1-",
"*&*;;;;:5>&;*<::;&:6e9>$e1-:;:<5<,;;::;,:;5,<-#;<-51<32;<<::",
"7<;:;5:<u1&=;;;<;-,;1;%-1,::;;5l<;;:,-<5&19&-*:<:;9:<e5555<:",
"1651q9315&&:1u<;,1:;79956:Xoooo9%:5<,;<1;;&:,:751155<692*k5:",
"5e<y9,<;-*;;95:1&:<<99<;:&ooooo%@:9,<<;6,&jp3uu;551<;19;en,<",
",;1::-&*<;:<9;-;;5-;55<-$XooMMMXXXXXX;;1<:qe<:;6<39<1166ze<1",
",:1:-$#-;%<<&*;:,1::--;&&XMMMXXXXXXXX&<3<1:;*,;1u09e:<<69%y<",
"<%:,-%-1*&;%;::;:<,;;%#;5XMXXXXXXXXX;;:*&;;&%<e;:;%<<;:5>1::",
"*%<<,;<;-5;%*;5<:6<-;;&5e-XXX..gggXX*%:5;--5:dv&<;;1:<q::<<:",
":*-;;*::&15;:;<,;<:-;<<&#XX..mmmmgX*@*:::,<9<u<-,<9955179<;-",
"1;<::-&;;:,*<;&:,5;<;&;,XXX.gmOOOm,&*--::<11<0:6,16;<<5l<1,;",
"<&,<<-<<*95#56&;:<,;&<-<XX.mgmm.mm,-1;=:515u*<:<,;-y<&80:<,*",
"<;<;-*53;:*%5<&:;:;-,5:XXX.mggmmmm:;-<::9;511,:,;<5d9-5<:1<&",
"&-:<-<5;;5<,;-&;<;;:556XXX:;gggmm99;;;:;;--%1;<<:<99:&&:<---",
";,,<-*<le05<:;;5<1<;,7d5*;:xMMggge,-;;:&-;:<&*<,;:5,-*#;<16<",
"71;*-;uk95,<1*:05915:up;::5ggMMMXM;1-<<;,:,--<,;5,;*;--;:65:",
"5*%;;9fuww;<<6<%<fae<:>-5<MMMgMMXx.<&::1::;;,<;-5;;<,;;;;*;9",
"&*&&,6eue91;5r<:3ueu1&;<55MMMxgMXx.;-;51;;;:<:<5--<<-;15;:<1",
"%&,1:1<55,-;e,::e,,1;,<56MMMMxggX..:;<1<:;1--;<,:;1;*,51%5<&",
";71,:-<<:->;eu5eu:%<,<<,5MMxxxggX..-;1<,**<<9,;;----:-5:99&;",
"5d<&;19,<,<-vbiv<;:<<<ee:Mxx..ggX..-<,<-55-5,,:<-*&75-;,e<&,",
"<%;11<,-5556a5e,-;55;up9;xxx.gggX..;;;<&11&-;:*-:;-,#9u<&%;:",
"5=<1::;<1515<,,:66dq101:MMM..gggX..5&hq;*$-:;;<;::;;;:;-*;<<",
":;91<:1:5e,&&<5ud151<5:<MMM..gggXX.;:q11;-&::9y*;;<5<15--&pu",
"#9a<5551<15:-5elf&<<>9e5xMMM.gggXX.;5*&<,:*<;9>&;:<,,:::,:5:",
";q,-<<:<55r<<fae;5u;15:,<xxx.ggXXX.mmm;:1:::&1;,;;;#*<95;;&&",
"<<&;6a1:<091qd5,-<e<:<;;<:MM.ggXXX.ggm;1551-;<;;-:-1655;<<1:",
"::<;99<71uu10u<*&;:,-<:;<,mmmggXXX.gmm;:9<,1<5:::;1y5<;1e5,;",
":<,<,<e01:u5::&;-<<-;<;;:mmmmggooo.<<<<19;*1--5,:;ak1:;95,;&",
";<uu;550<*e3195,<<::,:11;mmmmoooooo,5<uq1:%&9u:1,&5ae;;,<:>;",
"55ke;:1q03-:1q155*:2;-51;-mmXooooooo<1y1;;-*lf-<5,;;1p;;;%-<",
"5<,#:yy1f9-15ae;;<5&;e:#;-;*XXooooooo,1;;<;eh*<p<=--15:1:&<1",
";:&&:1,<5<198u5ee<;%,:&;1;%;XXXoooooo-<,:9<<<;69@&;<11e1;;1,",
";5e<,;;:55<ye-;e5<;<1*3u5;&pXXXoooooo<51-;<;189<;90&<u75;51;",
",;;::-;;%95;:$1<=;;eu-1;-;;<XXXXoooooo;<-;9,,1:<55&;<:<<:q,1",
"*::&1,-:<<--&;:;;;-;%*::;*55XXXXXooooo::;<3<:<<5:,&11<:&;<*,",
";<-;<;;%7<-<,:;<;:,;&;;,<<5:XXXXXoooooo-<5u9-<e1:5<1*0eu5$:;",
":-*;,**91;-:<;;<1::,55::,-&;XXXXX<ooooo1<<9*&15<q9<&5,9a;&<1",
"96<<;&<y1:;&&:;pq<-;51&<y;<5XXXXX<ooooou,:%%2<*;,<,qp1d<#*<1",
"9&%::-<-;<:,;;;<&%&<&*::<;<xXXXX;*xxooe:1<:19>:%&-:e<*11;-:y",
"&&9:;-;;:,;-:,;<&;;,;;,  xxxxXXX<5xxx>;:<;<5<;&-<<1&&-:5:-:;",
"*;u*&;<;*<:;-6<;::;;;5:  xxxxxX,59xxx-:59<3<;;&;:;;:--1::,;#",
"1;;-::<;;29;;9:;1-ed*<<  x<<:;:5uxxx:5&5e9u1-:&&;;<5;;;,11<;",
"5;<;;:<:,;--;5%-;;ye@;:   ,;&&:1<Mx15<=:5uw,-,5;<:91-;=;;-;:",
"%%<<&;;<<&$;:&&*<<;+-1<:   ;:,&; x  1:<,99<;&-6<:;::<<;;;:=<",
":::<<<;<<:;;:&<<<;;51;<<   :<;;<      <<651<$&;;;:;&<<:,<<&,",
";-;6q*;;:<*-:5<<*;15:&:55,;<:%:;      :5<11;#&:&;,<*::-:;*;,",
"e&,<;&::<<q1<,:;*:;:e;:5<<5::9y<-::%:<<:9<-%*;;-;:*;>,:-5<:<",
";;<<:;;;121-:;-%15&15&*<<1,<15<<:-;<<;:15&;:;;<6;:5:;55<35:;",
";-;:;<<;<1&&;;&&;;;<&-;=-;;5;-<&-;;-:-7l,#q0-<,;<<:;:;ud51;1",
";5e--;5y6-u0<;=;;5=;-<&6d<::u5-;,&;1::55&&1111;5,*<<;2p91,&<"
};
