/* XPM */
static char *auews_npmez[] = {
/* columns rows colors chars-per-pixel */
"60 60 143 2 ",
"   c #000000",
".  c #0F0B02",
"X  c #01020A",
"o  c #0C0B0A",
"O  c #150F00",
"+  c #110F0F",
"@  c #151104",
"#  c #13110F",
"$  c #020513",
"%  c #060917",
"&  c #0A0B11",
"*  c #00041C",
"=  c #040A1C",
"-  c #141311",
";  c #181613",
":  c #1A1816",
">  c #17171C",
",  c #1C1A18",
"<  c #211D14",
"1  c #221F1C",
"2  c #26221E",
"3  c #2A251D",
"4  c #000125",
"5  c #050E24",
"6  c #000C2C",
"7  c #091026",
"8  c #0B132A",
"9  c #171821",
"0  c #181822",
"q  c #000132",
"w  c #000C33",
"e  c #041332",
"r  c #0C1630",
"t  c #0F1933",
"y  c #02153B",
"u  c #03193F",
"i  c #0D1A3A",
"p  c #101A35",
"a  c #121D3B",
"s  c #19213B",
"d  c #282527",
"f  c #2D2A25",
"g  c #2F2C2C",
"h  c #322D26",
"j  c #332F2A",
"k  c #36312C",
"l  c #3A342E",
"z  c #373333",
"x  c #3A3631",
"c  c #3E3A35",
"v  c #35333E",
"b  c #3E3A3D",
"n  c #413C35",
"m  c #433E38",
"M  c #484036",
"N  c #45413B",
"B  c #4B453E",
"V  c #4F483E",
"C  c #51493E",
"Z  c #021B45",
"A  c #0A1D44",
"S  c #041E4A",
"D  c #121F41",
"F  c #001C51",
"G  c #05214E",
"H  c #0B214C",
"J  c #162244",
"K  c #182447",
"L  c #13244C",
"P  c #19264B",
"I  c #1A284F",
"U  c #012153",
"Y  c #0C2553",
"T  c #022458",
"R  c #142752",
"E  c #142856",
"W  c #1C2B53",
"Q  c #142958",
"!  c #1E2D59",
"~  c #252A43",
"^  c #202949",
"/  c #3C3B46",
"(  c #33364F",
")  c #36394F",
"_  c #3B3B4C",
"`  c #232E55",
"'  c #202E59",
"]  c #253055",
"[  c #2C3352",
"{  c #303653",
"}  c #363952",
"|  c #393B52",
" . c #363B58",
".. c #3C3F58",
"X. c #403D46",
"o. c #4C4741",
"O. c #4E4942",
"+. c #44424D",
"@. c #4F4A4E",
"#. c #534D45",
"$. c #544E49",
"%. c #555047",
"&. c #595146",
"*. c #565149",
"=. c #5B554D",
"-. c #5E584F",
";. c #454453",
":. c #494651",
">. c #4E4A53",
",. c #524D51",
"<. c #565052",
"1. c #5B5551",
"2. c #5F5850",
"3. c #5F5952",
"4. c #60574F",
"5. c #60584F",
"6. c #61594F",
"7. c #635B51",
"8. c #615A53",
"9. c #625B53",
"0. c #635C53",
"q. c #635C54",
"w. c #645D54",
"e. c #665F56",
"r. c #685F56",
"t. c #676057",
"y. c #686157",
"u. c #676059",
"i. c #6A635A",
"p. c #6B645B",
"a. c #6D655C",
"s. c #6F685F",
"d. c #70685F",
"f. c #716960",
"g. c #746C63",
"h. c #766E64",
"j. c #786F66",
"k. c #787066",
"l. c #797168",
"z. c #7C746A",
"x. c #80786E",
"c. c #847C72",
"v. c #91877C",
/* pixels */
"-.i.u.3.=.-.-.$.8.-.i.=.O.8.-.=.-.=.=.0.*.-.#.p.l.3.-.=.*.-.f.8.=.=.i.*.*.=.8.*.O.-.-.8.i.e.d.=.e.i.*.*.=.a.i.e.8.O.*.f.",
"i.i.3.8.q.8.-.0.*.=.*.#.*.0.-.-.=.*.i.3.*.*.8.*.B $.e.8., # O.3.#.-.e.e.*.3.8.*.*.=.8.-.-.i.8.$.i.8.#.*.h.-.B =.#.O.=.8.",
"q.-.=.*.#.*.-.i.t.y.-.=.*.-.*.=.3.8.-.*.e.e.8.8.t.O.f f n B l f x *.*.*.=.*.-.0.*.*.=.0.a.e.-.8.8.3.#.8.-.O.e.8.*.*.y.f.",
"*.#.O.O.#.-.8.8.-.0.p.e.0.e.-.0.=.$.=.e.i.q.i.p.*.x k l 8.r.B f j N 8.e.0.-.=.0.t.t.8.e.*.8.=.-.=.*.*.e.3.*.i.p.8.-.g.8.",
"=.#.8.$.=.-.-.8.8.8.e.*.e.8.-.8.*.e.*.*.#.*.e.a.1 m e.3.-.-.3.8.$.X O.-.#.*.3.3.y.k.i.=.=.i.3.e.8.#.-.-.*.8.8.=.8.8.$.B ",
"*.=.i.-.e.0.e.-.-.i.i.*.8.3.*.#.$.=.f   o o o o B 8.<.` 5.{ ,.,.W P & o o o o o g.a.3.*.$.8.$.-.-.=.-.8.*.e.-.-.f.e.*.*.",
"8.=.8.y.e.8.8.=.*.e.e.$.e.e.*.=.-.f m *.#.#.&.; V <.} <.| ,.:.[ Q W X V &.$.$.$.: 3.8.#.#.i.=.*.*.*.*.=.e.-.$.q.8.-.e.=.",
"-.0.i.q.*.*.8.-.*.*.$.=.8.=.*.-.j n N $.e.8.>.> v :.:.:.R ;.} Y W p   +.:.<.5.N B f B $.o.e.8.e.e.%.t.-.-.f.-.-.8.#.*.#.",
"-.0.-.=.O.*.8.8.-.*.-.-.e.3.=.c f <.g d <.,.Q * q _ ,.U W S L W a     H S _ o.  8.N k N *.=.-.h.e.*.l.u.0.l.q.p.i.f.8.O.",
"a.#.*.*.*.-.=.t.y.*.=.=.e.3.N 1 5. .w r R R W 8   e Q W W = J J     X P t e L < -.8.m : f.h.*.*.#.-.a.f.z.i.e.e.*.x.e.*.",
"$.#.$.=.=.=.*.-.i.3.#.*.$.n 2 5.5.} Q a 7 W % P r r ! W % P p p P   W 7 J A 3 4.5.{ >.V , *.B =.8.*.i.e.8.u.i.=.e.0.-.-.",
"p.8.=.-.=.i.-.8.h.u.#.%.l k $.{ | ] D %   8   8 % $ 8 8   8 % % 8   8   5 = 0 ..} ,.;.:.V , -.q.-.=.a.3.8.f.i.i.i.i.0.-.",
"e.p.i.e.d.a.u.e.i.#.#.c x *.3.;.R ! p                                       * u Y ;.{ { :.i h e.e.e.i.i.0.p.a.i.$.c.i.-.",
"t.f.8.g.a.3.8.=.*.$.N f B -.8.,.` P 8                                           K Y Q L Z P j l q.t.e.8.=.e.a.=.f.v.3.8.",
"3.*.e.-.-.*.#.$.8.O.o =.z k <.Y W =                                               K W a   < 8.l l u.a.q.q.e.p.a.c.f.8.e.",
"3.-.e.-.*.o.B *.o.  *.| W s 9 W =                                                 $ %   3 -.5.8.l l a.f.-.0.e.p.a.O.g.8.",
"8.O.-.3.*.O.*.O.1 $.5. .u i J 7                                                       6 ) 8...} ,.M 2 8.8.=.-.t.3.e.-.-.",
"$.O.0.8.3.*.o.k $.8.:.~ $ 5 a                                                         5 ~ ;.Q T / b y x -.q.d.-.-.8.8.-.",
"3.$.*.*.*.B h N =.,.L $                                                                 $ S K P 4 4 ^ h o.0.e.p.a.8.=.*.",
"t.=.8.-.-.o #.#.* L                                                                                 h 8.- o.i.c.8.e.8.=.",
"8.$.3.8.8.- B 8.#.                                                                                l 8.-.# n a.s.-.8.8.$.",
"0.*.8.*.*.# B 8.-.#.^ =                                                                       u X.*.8.-.# N t.8.-.e.e.$.",
"#.*.-.8.*.- B 8.1.;.` 5                                                                       S >.8.5.-.# n #.-.8.*.*.*.",
"*.3.3.8.*.# B 8.<.[ W 5                                                                       S >.5.3.@.+ n B =.8.e.p.8.",
"p.e.=.$.*.- B 8.4.=.] 5                                                                       S >.5.,.W $ N *.-.-.p.i.-.",
"i.$.O.*.*.; B e.<.W W 7                                                                       S ,.>.{ -.# N =.=.=.$.=.a.",
"#.$.#.#.3.; V ,.} ,.` 5                                                                       S >.5.>.[ $ N t.p.*.-.8.e.",
"O.#.3.e.-.- B 1.;.;.` 5                                                                       S >.<.;.+.o B i.u.O.i.8.#.",
"*.p.e.3.-.- B 8.>.{ W 5                                                                       S ,.,.| *.# N t.-.a.a.#.*.",
"i.z.8.#.*.- C >.{ -.] 5                                                                       S >.5.,.U $ m =.3.f.8.#.3.",
"8.#.=.e.e.- B 8.<.` W 7                                                                       S ,.,.R W $ *.h.8.#.O.*.-.",
"t.*.e.e.-.- V <.[ R ! 7                                                                       S >.5.>.R $ B *.*.$.*.8.q.",
"-.=.a.e.8.- B 1...W a $                                                                       S >.-.;.W $ O.t.*.*.#.k.h.",
"B a.l.q.t.- B 8.>.R 8 X                                                                       S ,.>.F J X B -.-.3.-.i.-.",
"=.d.3.*.8.- C ,.U W W 7                                                                       S ,.,.S     o.a.i.*.=.#.#.",
"8.8.#.*.p.: C ,.Y W %                                                                         S ,.,.Y W $ #.i.=.8.8.e.-.",
"-.-.8.=.a.; C <.G 5 P 5                                                                       G ,.,.G =   O.*.e.f.i.3.*.",
"-.0.3.e.3.- / _ y a a %                                                                       6 _ _ y a X B =.a.i.3.=.#.",
"*.0.h.h.=.- y w X L 7 X                                                                       % u w X L X N =.8.8.-.3.=.",
"i.i.c.f.=.- . # # - W 8                                                                       I s O - @   3.-.=.*.O.*.8.",
"t.0.3.B -.: B -.-.=.` 5                                                                       S :.=.-.*.# #.3.e.-.#.8.t.",
"=.-.#.#.-.- B 8.8.8.] 5                                                                       S >.e.<.[ $ #.f.e.*.=.e.8.",
"*.t.f.0.3.- B 8.=.;.` 5                                                                       S >.5.1.+.& -.p.i.-.t.e.*.",
"3.*.*.-.-.- B 8.<.[ W 5                                                                       S >.5.3.$.+ B 8.q.-.d.3.e.",
"$.-.-.#.e.- B 8.4.=.] 5                                                                       S >.5.,.W $ O.-.$.-.8.$.3.",
"=.8.*.*.8.- B e.<.W W 7                                                                       S ,.>.{ -.# *.f.j.i.o.-.=.",
"-.*.$.*.3.# V ,.} ,.` 5                                                                       S >.4.,.} & o.a.l.*.#.8.e.",
"a.p.8.8.=.# B 1.;.:.` 5                                                                       S >.=...Y $ O.z.q.B $.0.e.",
"a.#.O.-.-.- B 8.>.U W 7                                                                       S ,.,.[ W $ m e.e.*.*.-.g.",
"#.#.a.-.*.- C ,.R W W 7                                                                       S >.5.,.R $ m -.t.-.*.-.-.",
"$.-.j.$.#.- B 8.,.R W 7                                                                       S ,.,.Q W $ N e.-.-.3.=.B ",
"e.-.=.*.-.- B <.{ W ! 7                                                                       S ,.,.U 7   N =.3.e.e.8.=.",
"i.=.8.=.=.- C ,.U W a $                                                                       L .._ 6     N %.=.=.*.=.-.",
"O.O.8.8.#.- N ;.R K 8 X                                                                       P Q A %     o.=.*.=.-.*.8.",
"-.-.-.0.q.- A ! P X W 7                                                                       P W W P     o.-.3.8.e.#.3.",
"=.*.=.p.d.# J W W W =                                                                         P ' J       B *.-.=.$.*.3.",
"f.#.3.8.*.# J ! W 7         $ P K K K K K K K K K K K K K K K K K K K K K K K K K P 8         W a t K     o.-.*.i.8.-.8.",
"=.=.8.0.-.- K W 8         * Z Q E E E E E E E E E E E E E E E E E E E E E E E E E Q A y e     t a a p     #.i.8.u.i.-.*.",
"=.*.=.-.=.- a p         $ ~ ..| | | | | | | | | | | | | | | | | | | | | | | | | | | | ..( 5     a a       N h.z.i.e.*.e.",
"=.i.f.*.*.-             Z ;.5.5.5.5.5.5.5.5.5.5.5.5.5.5.5.5.5.5.5.5.5.5.5.5.5.5.5.5.5.5.<.R $             #.k.a.e.3.#.8."
};
