/* XPM */
static char *a4iuz_w65i5[] = {
/* columns rows colors chars-per-pixel */
"60 60 227 2 ",
"   c #000000",
".  c #090806",
"X  c #01020C",
"o  c #0A0A09",
"O  c #17120F",
"+  c #030613",
"@  c #080B17",
"#  c #010319",
"$  c #040919",
"%  c #151313",
"&  c #191614",
"*  c #1C1916",
"=  c #1A191C",
"-  c #2A0F06",
";  c #201D1B",
":  c #26221B",
">  c #312B1C",
",  c #020C25",
"<  c #090E23",
"1  c #00002E",
"2  c #020B2A",
"3  c #001126",
"4  c #071128",
"5  c #0B132C",
"6  c #171A2B",
"7  c #010537",
"8  c #0C1732",
"9  c #081534",
"0  c #00143B",
"q  c #011D3B",
"w  c #0C1C3C",
"e  c #111A36",
"r  c #121D3B",
"t  c #340039",
"y  c #1D2236",
"u  c #292723",
"i  c #322D28",
"p  c #38342D",
"a  c #3A342C",
"s  c #2A2B3A",
"d  c #3B3734",
"f  c #3E3A35",
"g  c #50000E",
"h  c #480036",
"j  c #5C0533",
"k  c #6A0932",
"l  c #423C36",
"z  c #433E39",
"x  c #6F2C37",
"c  c #464037",
"v  c #46413B",
"b  c #4A443D",
"n  c #010245",
"m  c #0B1F46",
"M  c #021948",
"N  c #041E4A",
"B  c #2B0B49",
"V  c #08234D",
"C  c #162244",
"Z  c #192447",
"A  c #14244C",
"S  c #19264A",
"D  c #1B284E",
"F  c #012653",
"G  c #0C2554",
"H  c #012C54",
"J  c #0C2B52",
"K  c #122654",
"L  c #142A53",
"P  c #1C2B53",
"I  c #192B57",
"U  c #282B49",
"Y  c #31214D",
"T  c #37374D",
"R  c #252757",
"E  c #232C54",
"W  c #2C2B54",
"Q  c #372154",
"!  c #332B54",
"~  c #3C2C54",
"^  c #2A3254",
"/  c #283256",
"(  c #363252",
")  c #353953",
"_  c #3B3D53",
"`  c #4D1D54",
"'  c #690F4B",
"]  c #7A0044",
"[  c #79184D",
"{  c #691B55",
"}  c #721C56",
"|  c #7C1E54",
" . c #4B234C",
".. c #49364E",
"X. c #58374D",
"o. c #4A2354",
"O. c #442A55",
"+. c #4A2A55",
"@. c #572753",
"#. c #453354",
"$. c #4C3352",
"%. c #523452",
"&. c #593458",
"*. c #66394C",
"=. c #6A3D4A",
"-. c #7A354E",
";. c #723F49",
":. c #642753",
">. c #6D2653",
",. c #742454",
"<. c #7B2553",
"1. c #772A54",
"2. c #753156",
"3. c #543D67",
"4. c #7F3867",
"5. c #3E4158",
"6. c #4B4644",
"7. c #4E4942",
"8. c #534D46",
"9. c #544E49",
"0. c #555047",
"q. c #595146",
"w. c #575149",
"e. c #5B554D",
"r. c #5E584F",
"t. c #434354",
"y. c #494653",
"u. c #4D4B55",
"i. c #4E4959",
"p. c #544E51",
"a. c #565052",
"s. c #5B5451",
"d. c #5F5950",
"f. c #794147",
"g. c #60574C",
"h. c #62594E",
"j. c #75405F",
"k. c #615A52",
"l. c #635C53",
"z. c #655E55",
"x. c #685E53",
"c. c #676057",
"v. c #676058",
"b. c #6B645A",
"n. c #6B645B",
"m. c #70685F",
"M. c #575170",
"N. c #7D4467",
"B. c #5D6275",
"V. c #746C62",
"C. c #786F66",
"Z. c #797167",
"A. c #7B736A",
"S. c #666379",
"D. c #8C062C",
"F. c #991E2C",
"G. c #983039",
"H. c #944C3E",
"J. c #9D4D3C",
"K. c #B4572F",
"L. c #A4473B",
"P. c #A44D3C",
"I. c #AA4E3A",
"U. c #AD5235",
"Y. c #A45039",
"T. c #A85138",
"R. c #B25532",
"E. c #831A4D",
"W. c #86254C",
"Q. c #87364C",
"!. c #93374A",
"~. c #943B49",
"^. c #832453",
"/. c #842A51",
"(. c #882A53",
"). c #87395E",
"_. c #894742",
"`. c #8A4643",
"'. c #964443",
"]. c #9B4344",
"[. c #A34642",
"{. c #894464",
"}. c #906E76",
"|. c #847B71",
" X c #91877C",
".X c #5F4E82",
"XX c #695B86",
"oX c #785B88",
"OX c #77688D",
"+X c #717186",
"@X c #7B6B96",
"#X c #7F719B",
"$X c #81668C",
"%X c #817B83",
"&X c #967383",
"*X c #81739B",
"=X c #84799F",
"-X c #897DA1",
";X c #7E8693",
":X c #918B93",
">X c #AA8A92",
",X c #AF8891",
"<X c #948CA8",
"1X c #968FA9",
"2X c #A09DAF",
"3X c #9FA2AA",
"4X c #A6A5A9",
"5X c #A9A7B6",
"6X c #B1ABB2",
"7X c #B4B4BD",
"8X c #BCB7B9",
"9X c #CEBCB9",
"0X c #B7BBC2",
"qX c #BAB9C1",
"wX c #BEC0C6",
"eX c #C4C4C7",
"rX c #C4C5C9",
"tX c #CBCBCD",
"yX c #D3CECD",
"uX c #D9D5D4",
"iX c #E3DBD8",
"pX c #ECE3DE",
"aX c #F3E6DE",
"sX c #F6EBE4",
"dX c #FFF4EB",
"fX c #FFF9EF",
"gX c #FFFBF2",
/* pixels */
"r.n.v.d.e.r.r.9.k.r.n.e.7.k.r.e.r.e.e.l.w.r.8.n.Z.d.r.e.w.r..   z e.n.w.w.e.k.w.7.r.r.k.n.z.m.e.z.n.w.w.e.n.n.z.k.7.w.V.",
"n.n.d.k.l.k.r.l.w.e.w.8.w.l.r.r.e.w.n.d.w.w.k.w.b 8.z.8.% & 8.9.i % f z.e.d.k.w.w.e.k.r.r.n.k.9.n.k.8.w.C.r.b e.8.7.e.k.",
"l.r.e.w.8.w.r.n.c.c.r.e.w.r.w.e.d.k.r.w.z.z.k.k.c.e.8.i b b k.l.8.c f p e.w.r.l.w.w.e.l.n.z.r.k.k.d.8.k.r.7.z.k.w.w.c.V.",
"w.8.7.7.8.r.k.k.r.l.n.z.l.z.r.l.e.9.e.z.z.v 7.7.v 8.p b z.a.h.p.d.l.6.< 7.v l b b w.k.z.w.k.e.r.e.w.w.z.d.w.n.n.k.r.V.k.",
"e.8.k.9.e.r.r.k.k.k.z.w.z.k.r.k.w.z.r.d.l & % % &   z l.p.E e.^ 9.t.G S   & & % & d n.e.e.n.d.z.k.8.r.r.w.k.k.e.k.k.9.b ",
"w.e.n.r.z.l.z.r.r.n.n.w.k.d.w.8.9.e.e.p u k.r.e.h.i l a.^ r.^ e.t.P P Z O e.r.e.k.z : w.9.k.9.r.r.e.r.k.w.z.r.r.V.z.w.w.",
"k.e.k.n.z.k.k.e.w.z.z.9.z.z.w.e.e.k.f p 8.p k.l.y.6 y y.p.) P _ ^ I S $ @ _ ) d.c z v : 8.n.e.w.w.w.w.e.z.r.9.l.k.r.z.e.",
"r.l.n.l.w.w.k.r.w.w.9.e.k.e.w.r.r.v p 6...  y.y.^ 2 # U y.G P 0 A S <   X K 0 t.6 p k.f u z.k.z.z.0.c.r.r.V.r.r.k.8.w.8.",
"r.l.r.e.7.w.k.k.r.w.r.r.z.r.r.e.8.u q.a.M 5 M G A r X , K P S 5 C r + X 8 Z 4 M y b k.9.i f r.C.z.w.Z.v.l.Z.l.n.n.V.k.7.",
"n.8.w.w.w.r.e.c.c.w.e.e.z.d.l.c.o 8.k.y.G D   D $ C r < P D   D < r C $ P   P # b k.u.^ d.; z w.8.r.n.V.A.n.z.z.w.|.z.w.",
"9.8.9.e.e.e.w.r.n.d.8.w.9.k.r.o 9._ P E S     X         X X   X         X   X   Z E t.a.^ r.: v k.w.n.z.k.v.n.e.l.l.r.r.",
"n.k.e.r.e.n.r.k.C.v.8.0.w.9.% 9.h.d._ K S   Z C Z C Z Z C C Z C Z Z C Z C Z C S 5 w ^ _ I _ E < z e.n.d.k.V.n.n.v.n.l.r.",
"z.n.n.z.m.n.v.z.n.8.8.r.r.p b c g.a.) A 8 r P H H I L H J P H H I L H J P H H I C 8 m I P 0 0 f p 7.n.n.l.n.n.n.9.|.n.r.",
"c.V.k.V.n.d.l.e.w.9.e.9.f l a.1 b ) V e 8 I P +.+.W ! +.O.P +.+.W ! +.O.E +.+.W I C 5 S C   * e.9.i w.k.e.z.n.e.V. Xd.k.",
"d.w.z.r.r.w.8.9.k.w.r.u l s.G P # C e 8 E W P <.^.+.@.^.,.E <.^.+.@.^.,.E ^.^.+.P E Z     X w.d.k.7.% l.z.z.n.n.|.V.k.z.",
"d.r.z.r.w.7.b w.w.7.u d k.s.L + D 5 e H ~ ,.P <.^.+.@.^.,.E <.^.O.@.^.>.E <.^.~ :.:.H S   K d.t.L y.8.% r.l.z.n.n.7.V.k.",
"k.7.r.d.w.7.w.z.9.u z h.s.^ <   $ r F +.,.<.P <.| ,.,.| ,.E <.| ~ @.^.>.E | | ! :.<.@.F C < T ^ I U i A & e.r.c.d.z.r.r.",
"9.7.l.k.d.w.l.w.i f c 6._ 7     5 F H @.^.,.P } ~.-.-.~.,.E <.].X.@.^.>.! ].].$.@.^.>.H H r 0 w r 2 X r v p z.r.r.k.k.r.",
"d.9.w.w.w.9.r.r.  r.c 9 0   X 4 J O.W +.^.Q.L Q.U.=.=.L.' D | L.X.@.E.' ! P.R.X.2.(.:.L +.I 8       . p k.; 6.n.n.k.e.w.",
"c.e.k.r.r.w.8.e.o 9.z.b   X X P I ,.@.+.!.T.W P.R.=.&.{.j.^ 2./.#.&.).4.R <.U.$._.[.:.! ^.! I 5   X p l.r.* 8.|.k.z.k.e.",
"k.9.d.k.k.w.l.l.. 9.k.h.9.N X L ,.^.o.=.R.T.<.I.R.k ;XeX7X@X@X@X@XOX2X5Xn <.U.$._.R._.R ^.<.~ 3 0 _ g.r.r.* 8.m.r.k.k.9.",
"l.w.k.w.w.9.n.v.o 9.k.u.^ A   J ,.^.o.f.U.Q.+.Q.U.g 4XdXpX7XqXqX7X7XyXiX7 <.Q.~ >.P.H.P ^.^.~ 3 0 t.h.r.h.* 7.k.r.z.z.9.",
"8.w.r.k.w.l.c.e.. 9.k.a._ A   7 j k t h D.' n ' F.- 6XfXiXrX5X5XeXrXuXyXh [ [ B h D.k 7 ] ] Y , 0 t.h.r.t.% f r.k.w.w.w.",
"w.d.d.k.0.9.l.|.o 9.k.r.y.M = :X>X,X>X>X>X}.+X&X&X3.6XpX0X7XOX.X2XeXrX6X4.N.4.S.:X,X>X:X&X&XM.y 0 t.h.u.) @ p e.k.z.n.k.",
"n.z.e.9.w.e.C.|.o 9.k.y.K M f dXfXdXdXdXsXrXrXrXrX1X2XrX7XOXP n M.5XrX7X#X=X=XqXsXdXdXsXwXrX1X#.1 t.a.E r.* l r.r.n.n.r.",
"n.9.7.w.w.n.A.C.o q.5.t.p.M f sXdXuXrXtXtXwX-X-X-X#X5XqX@XE P P V XX5X7X#X*X7XsXdXpXrXeX=X-X-Xy.1 t.h.a.E $ v e.e.9.e.n.",
"8.9.8.8.d.n.V.C.o 9.d.y.^ N p yXuX5X1X1X1X1X*X*X*X@X5X6XR G P P G n 4XiX#XqXrXuXuXqX1X1X*X*X-Xy.1 t.e.) a.& 7.n.w.r.k.z.",
"7.8.d.z.r.z.k.n.o 9.p.y._ N u 2X5X1X#X*X#X#X=X=X-X#X5X4X  E P P ^   4XsX#X5X5X5X5X1X@X*X=X=X-Xi.1 t.r.y.y.% 8.v.7.n.k.8.",
"w.n.z.d.r.w.k.k.o q.y.y.u.V % XXoX$XOXOX$X$XOX$X$XXX2X8X%Xn P E n M.9XiXXXoXoXXXoX$XOXOX$X$X@XT 1 t.h.p.G # 7.r.n.n.8.w.",
"n.A.k.8.w.z.n.k.o 9.k.y.F S   V [ E. . .E.[ V [ E.t ;XiXaX5.E K n eXsX4X7 W.E.Y :.E.{ Y W.E.Q , 0 t.a.L P $ v d.V.k.8.d.",
"k.8.e.z.z.k.d.w.o q.t.K P D   J ,.^.o.=.P.} I ,.^.t :XtXyXaXi.1 yXiXrX5XB I.^.W :.^.:...I./.~ 3 0 t.h.a.P # e.k.8.7.w.r.",
"c.w.z.z.r.r.r.k.o 9.d.t.N + X L } ].=.=.R.'.P } ].j :XtXrXyX5.7 8XtXuXyX7 U.P.-.} ~._.#.U.<.~ 3 0 t.r.) P $ z w.9.w.k.l.",
"r.e.n.z.k.r.z.r.o 9.a._ A 8 X F Q.U.f.*.R.T.P ~.R.k :XtXeXqXV # 3XwXiXaX7 ~.U.-.{ ].H.~ U.].#., 0 t.a.F e X 7.9.w.8.Z.V.",
"b n.Z.l.c.n.n.z.o q.5.F P C X F Y.R.;.*.R.P.P T.R.x +X8XrXwX+XB.5XtXiX9Xn Q.U.$.:.[.H.~ U.R.%.2 0 t.a.G 4 X b r.r.r.n.r.",
"e.m.d.w.k.l.r.k.o q.t.K C   X F J.R.;.*.R.P.P P.R.=.B }.rXrXtXtXrXpX9Xg ( U.R.$._.K._.~ T.U.$., 0 t.a.K P $ 8.c.w.e.8.8.",
"k.k.8.w.n.Z.z.r.o q.y.0 5 D   F J.R.~.Q.R.P.P Y.R.=.` | }.tXdXdXgX9X] { ( T.R.$._.R.H.K /.U.%., 0 y.s.G X   8.e.k.k.z.r.",
"r.r.k.e.n.n.l.n.o T s w C $ X F J.R.~.!.U.P.P Y.~.+.;.G.,.&X>X,X:X}.F.} 1.U.R.$._.R.].{ <.U.%.2   s ) 4 S + z z.V.n.d.w.",
"r.l.d.z.d.k.V.m.o 7 + # w 8 X F J.R.Q.-.K.P.P Y.[.%.*.].!.] D.D.7 x U.!./.U.].~ _.K.P.^.].U.$.2 < 0 1   0 X v n.n.d.e.8.",
"w.l.C.C.e.c.n.m.o : i > s P   F J.R.;.X.I.P.P P.K.=.o.].T.>.P.R.X.f.K.P./.T.^.R _.U.~./.R.U.$., m U > i > . v k.k.r.d.e.",
"n.n.|.V.e.r.z.m.o 9.k.l.p.N   F J.R.;.Q !.Y.P P.R.*.;.K.J.H <.I.X.f.R.P.<.T.Q.R _.].} Q.U.T.$., 0 t.l.k.d.* v e.w.7.w.k.",
"c.l.d.b r.V.V.z.o 9.k.h.p.N   F Y.~.o.*.R.P.P Y.R.*.;.R.J.E P.R.X.f.R.J.~ T.U.$._.R._.#.U./.~ 3 0 t.h.s.E $ b z.r.8.k.c.",
"e.r.8.8.r.z.d.k.o 9.k.u.E A   F Y.I.*.=.R.P.P Q.I.*.;.R.J.E T.R.X.f.P.1.( U.R.$._.K._.( U.P.$., 0 t.h.r.a.& w.z.w.e.z.k.",
"w.c.V.l.d.e.e.r.o 9.k.a._ A   F Q.U.f.*.K.Y.P } I.=.;.K.J.E Y.R.X.f.I.Q.W '.U.%.-.I.H.~ U.K.%.2 0 t.h.r.y.% 8.n.r.c.z.w.",
"d.w.w.r.r.w.w.w.. 9.k.r.y.V   L { P.f.X.I.'.P ,.I.=.*.I.J.E T.I.%.f.R._.K | U.X.` ~._.#.U.P.$., 0 t.h.u.) @ b l.r.m.d.z.",
"9.r.r.8.z.d.w.r.o 9.k.y.K S   J ,.[.f.O.^.,.P ,.P.=.` !.Y.E Y.(.Q _.[.{ E <.I.X.:.^.:...I.^.~ 3 0 t.a.E r.* v 9.r.k.9.d.",
"e.k.w.w.k.e.e.7.o q.5.t.p.V   J ,.(.@.+.^.<.P <.(.@.o.~.T.L /.^.O.:.(.,.E ^.(.~ :.^.>.! /.^.~ 3 0 t.h.a.^ $ w.C.n.7.r.e.",
"r.w.9.w.r.9.9.n.o 9.d.y.) A X I O.+.! ! +.O.P O.+.W ! %.X.P O.+.W ! +.O.E +.+.E ~ +.~ E O.+.^ 4 0 t.e.^ P # 8.Z.w.8.k.z.",
"n.n.k.k.e.8.k.V.o 9.a.) G S   r q q q w q q r q q w q q 0 r q q w q q q r q q w q q q r q q w + 0 t.r.t.P $ k.l.b 9.l.z.",
"n.8.7.r.r.w.k.w.o 0.y.E I S                                                                     0 t.h.p.P # 7.z.w.w.r.V.",
"8.8.n.r.w.w.w.w.o 9.k.y.G S                                                                     0 t.a.F P $ b c.r.w.r.r.",
"9.r.C.9.8.e.k.w.. q.y.P P D                                                                     0 y.s.G +   7.r.r.d.e.b ",
"z.r.e.w.r.r.l.e.o q.t.G S +                                                                     w ^ T #     v d.z.z.k.e.",
"n.e.k.e.e.d.k.r.o ..) A e e                                                                     r I A e     l e.e.w.e.r.",
"7.7.k.k.8.w.e.l.o N I C 8 Z                                                                     r P P C     v w.e.r.w.k.",
"r.r.r.l.l.k.w.l.o S P P C         X + + + + + + + + + + + + + + + + + + + + + + + + + +         r P C       b d.k.z.8.d.",
"e.w.e.n.m.9.w.e.o S I C           C P P P P P P P P P P P P P P D P P P P P P P P P P S         C C < P     z r.e.9.w.d.",
"V.8.d.k.w.8.r.r.o P C +         0 G G G G G G G G G G G G G G G G G G G G G G G G G G G M M X   $ r Z 4     b w.n.k.r.k.",
"e.e.k.l.r.w.e.e.. e <       X w y.u.u.u.u.u.u.u.u.u.u.u.u.u.u.u.u.u.u.u.u.u.u.u.u.u.u.u.i.i.U ,   < r       8.k.v.n.r.w.",
"e.w.e.r.e.k.k.e.; & % & & & = ^ r.h.h.l.r.h.h.g.g.h.h.l.h.g.h.r.g.h.h.h.h.h.l.n.h.e.x.l.g.h.5.y & & & & & % k.A.n.z.w.z.",
"e.n.V.w.w.e.c.V.n.w.C.m.l.w.0.w.e.c.w.w.w.k.8.n.A.k.r.r.C.n.w.w.d.8.e.z.r.r.n.n.8.8.z.z.z.z.w.n.d.9.k.k.e.c.Z.n.z.d.8.k."
};
