/* XPM */
static char *au4jt_tutds[] = {
/* columns rows colors chars-per-pixel */
"60 60 47 1 ",
"  c #443F3A",
". c #46413B",
"X c #4A453E",
"o c #4C4740",
"O c #4E4942",
"+ c #534D46",
"@ c #554F48",
"# c #555047",
"$ c #565149",
"% c #5B554C",
"& c #5E584F",
"* c #5E5750",
"= c #5F5950",
"- c #625C53",
"; c #645D54",
": c #665F56",
"> c #675F58",
", c #666057",
"< c #686157",
"1 c #676058",
"2 c #6A635A",
"3 c #6B645B",
"4 c #6C645B",
"5 c #6B645C",
"6 c #6E665D",
"7 c #6F685E",
"8 c #70685F",
"9 c #6F6860",
"0 c #706860",
"q c #726A61",
"w c #736C62",
"e c #756D63",
"r c #776E64",
"t c #786F66",
"y c #787066",
"u c #7B726A",
"i c #7C746B",
"p c #7F766C",
"a c #80776E",
"s c #81796F",
"d c #827A70",
"f c #857C71",
"g c #877E74",
"h c #887F74",
"j c #8A8076",
"k c #8C8278",
"l c #91877C",
/* pixels */
"&21*%&&@-&2%O-&%&%%-%&+3u=&%$&q-%%2%$%-$O&&-2:8%:1%%%32--O$q",
"22=---&-%%$+$-&&%%2=$%-%X+:-%-:*@&,:%=-$%%-&&2-@2-+$r&X%+O%-",
"-&%$+$&2,<&%%&%%=-&$::--,%--=&++&%$#%$&-%#%-6:&--=+-%O:=$%<q",
"%+OO+&--&-3:-:&-%+%:2-26-::$-%=&&$-:-&%-,,-:$-%&%%%:=%22-%e-",
"%+-+%&&---:%:-&-%:&*$&66-222&+%=:@%-$=::,r2%%2=:-+&&%--%=-@X",
"%%2%:-:&%22$-=$+@%%+-husu@&2:%%+==%@&%@,w6*$@-@&&%&-$:&&q:$$",
"-%-1:--%%::@::$%&-&&yjuq5%&y2%-:=-%%-612r:-++2%$%%%%:&@--&:%",
"&-2-@$-&%$@%-%%&&--2pq96*%&::+%*%-%%,q2%%&@@o:-::@,&&q&&-+$+",
"&-&%O%--%%&&:=&%--&-:-2q--1--O+$&-$$=:%@%&-o$%&r:$y1-u-32q-O",
"6+$$$&%,,%%%:=-27:$qw>2:$---%%-r&%&$@,-&=%%Oqr$%+%6qp2::$p:$",
"@+@%%%%&2=+%@-&&%+&3q6*oq:$&%&-2-=%%&&%=&%2=-$X%-$2:-12%:-%&",
"4-%&%2&-r1+#%%%-%$=%:%O$:=&&%%2f-%%%-$-2+:6+$@&-&%6&-q2222-&",
":32:861:2++&:r-%=:&%46623&+:&+:6O&2-=%-:%%+&=&42::22-362@d2&",
",q-e6=-%$@%%62&:+&--66-%&+%4:$,O.&6=--%3=+sy1rr%2,:-%:6%ql=-",
"=%:&&$+@-%&-6%$%%,$%22-$o%&-%%%%q=&%-%%:-&8q-&%3-16-::36gq-:",
"=&:&$oX$%O--+@%&=:&&$$%++-=+%&-6r6&&:+-1-:&%@=%:r76q&-:36Oe-",
"-O&=$O$:@+%O%&&%&-=%%oX%2-$=:$:s2:%&%%&@+%%+O-q%&%O--%&,*:&&",
"@O--=%-%$2%O@%2:&3-$%%+,q$%%&%--&@$-@O&:%$$,&pj+:%%:&-8&&--&",
"&@$%%@&&+:,%&%--%-&$%--+X66$%-2$OO$@ +%&&=-6-r-%=-662,:46-%$",
",%-&&$+%%&=@-$+&=,%-%+%=3r-%-&66%&=++$$&&-::-7-4=:3%--2f-:=%",
"-@=--$--@62o,3+%&-=%+-$-p6.&&$%&--=$:%$&2:2r@-&-=%$e:+67&-=@",
"-%-%$@21%&@+2-+&%&%%=2&-=$@-&$&:4$&%%-=&6%2::=&-%-:i6$,-&::@",
"+$&-$-,%%,-=%$+%-%%&,23=O+&%%$&=%66%%%&%%%$O:%--&-66&++&-$$$",
"%==-$@-fq82-&%%2-:-%=4i2+%&-%-@%6q=$%%&+%%=-O@--%&2=$@.%-:4-",
"4:%@$%rd62=-:@&726:2&ry&&%2:&---%@%:@--%-&=$$-=%2=%@%$$&&32&",
"2@O%%6pr99%--3-O-puq-&*$2-&oy6-$23+=+&&:&&%%=-%$,%%-=%%%%@%6",
"+@++=3qrq6:%,w-&2rqr:+%-22&=y6-%-%+%$%2:&%%&-&-2$$--$%:2%&-:",
"O+=:&:-22=$%q=&&q-=:%=-,3:%:22-$+%$&%=:-&%:$$%-=&%:%@=2:O2-+",
"%4:=&$--&$*%qr2qr&O-=--=,%%:&=@X$&&$%:-=@@--6=%%$$$$&$,&66+%",
"2p-+%:6--=:%jktj-%&---qq&=:2&:&61%O$-=-$,2$2==&-$@+42$%=q-+=",
"-+%::-=$2,23u2q=@%2,%ry5%::&-&u266%%%%-+::+@%&@$&%$=X6r-+O%&",
",$-:&&%-:,:2-==&33p7:7:&&%%-,:-$$$22+a8%@o$&%%-%&&%%%&%$@%--",
"&%6:-&:&2q-@+-,rp:2:-2&-2%&$----,-=%&8:-%$@&&6e@%%-2-:,$$+yr",
"X6u-,22:-:2=$2qfp+--*6q2%-:$&=::1:&%,@+-=&$-%6*+%&-==&&&=&2&",
"%8=$--&-,2e--puq%2r%:,&=-2$3=O=-2-%%@%%&:&&&+:%=%%%X@-62%%++",
"--+$3u:&-76:8p2=$-q-&-%%-&#6-O,--%+%%$&:,,:$%-%%$&$:322%--:&",
"&&-%66-4:rr:7r-@+%&=$-&%-=$--$u&@+&=%-%&6-=:-,&&&%:e2-%:q2=%",
"&-=:=-q7:&r2&&+%$--$%-%%&&$$%@=%%&:----:6%@:$$2-&%ud:&%62=%+",
"%-rr%,27-@q1:6,=--&&=&::%$&-$&%:3%+=,-r8:&O+6r&:=@2uq%%=-&*%",
"22dq%&:872$&:8:2,@&2%$2:%$-:@%6-&-&--:e:%%$@fp$-2=%%:y&%%O$-",
",-=X&ee:p6$:2uq%%-2@%q&X%$%@%%&+-8==&=:%%:%qa@-y-$$$:,=:%+-,",
"%&++&:=-2-:66r2qq-%O=&+%:%O%%&,:%$61+$-=&6---%36.@&-::q:$%:-",
"%,q-&%%&,,-eq$%q,-%-:@1r2%+y-+@:&yu-$-2:$%-%:56-%67+-r42%,:%",
"=%%&&$%%O62%*o:-$%%qr$:%$%%-&-&+&,=-%%%=$%6==:&-,2+%-&--&8=:",
"@&&+:=%&--$$+%&&%%$%O@==%@2,-&%@%+%%-&&&%-1-&--,&=+:::&@&-@=",
"%-$%-%%O4-$:=&%-%&=%+&%---2&&+%@+wr-359$-,r6$-q:&,-:@7qt2o&%",
"&$@%=@@6:%$&-%%-:&&=2,=&=$O%$%<-+--+$:-::-6$+:2-86-+:=6u%+-:",
"64--%+-e:&%++&%y8-$%2:@-e%-<:y*$&--$--qr=&OO<-@%=-=8y:p-X@-:",
"6+O&&$-$%-&=%%%-+O+-+@&&-%-%-y+O%@%&=pq&:-&:6*&O+$&q-@::%$&e",
"++6&%$%%&=%$&=%-+%%=%%=-%&O@$X$%-22%%*%&-%-2-%+$=-:++$&,&$&&",
"@&r@+%-%@-&%$3-%&&&%%,&-:&%--@%=,62O@$&,6-2-&%+%&%%&$$:&%=%X",
":%%$&&-%%<6%%6&%:$qi@--&&:--&%&2r$%@&,+2q6t:$&+@%%-,%%%=::-%",
"2%-%%&-&=%$$%2O$%%eq.%&+$-=%+@=:-%&:2-#&2rq=$=2%-&6:$%#%%$%&",
"OO--+%%--+o%&++@--% $:-&+@&%&-+%%&-y:&-=66-%+$3-&%&&--%%%&$-",
"&&&---%--&%%&+---%&,:%--%%+&-%%-=$,u*%--32:-o+%%%&%+:-&=-:+=",
"%$%38@%%&-@$&2--@%:,&@&22=%-=O&%+-:++%&2-::%X+&+%=:@&&$&%@%=",
"q+=-%+&&--8:-==%@&%&q%&2--2&&6e=@&&O&--&6-$+$%&$%&@%==&$2-&-",
"%%--&%%%:<:$&%$O:2+:2++--:=-:2--&$%--%&:2+&&&%-4%&2&%22-12&%",
"%$%&%--%-:+@%%++%%%-+$%#$%%2%$-+$%%$&$4f=.8q$-*$--&%&%ri2:%:",
"%2q$$%,e3$r8-%#%%,$%%-+4p-&&r2$%=+%:&&22++::::%2=@--%<y6:=+-"
};
