/* XPM */
static char *ax2ea_kklda[] = {
/* columns rows colors chars-per-pixel */
"60 60 164 2 ",
"   c #132C1B",
".  c #39152A",
"X  c #382E2E",
"o  c #2C392C",
"O  c #372836",
"+  c #303333",
"@  c #442936",
"#  c #453737",
"$  c #443D39",
"%  c #4C3A3B",
"&  c #104B25",
"*  c #115328",
"=  c #097B34",
"-  c #46413B",
";  c #4A453E",
":  c #5C773F",
">  c #2D2E4B",
",  c #3B3745",
"<  c #423544",
"1  c #443D41",
"2  c #4D3B4D",
"3  c #513D42",
"4  c #4B3B52",
"5  c #3D405A",
"6  c #2A6B54",
"7  c #4C4641",
"8  c #4E4942",
"9  c #4C484B",
"0  c #534D46",
"q  c #56474A",
"w  c #544E49",
"e  c #555047",
"r  c #565149",
"t  c #5B554C",
"y  c #5E584F",
"u  c #4C4952",
"i  c #454659",
"p  c #494A59",
"a  c #574454",
"s  c #5D5750",
"d  c #5F5950",
"f  c #565258",
"g  c #5E5A5A",
"h  c #654B57",
"j  c #635C53",
"k  c #645E5A",
"l  c #676057",
"z  c #686157",
"x  c #676059",
"c  c #6A635A",
"v  c #6B635B",
"b  c #6B645B",
"n  c #6E665D",
"m  c #6F685E",
"M  c #70695F",
"N  c #464961",
"B  c #494E67",
"V  c #4F5264",
"C  c #4A526C",
"Z  c #5E5B63",
"A  c #4E5B77",
"S  c #505B77",
"D  c #515D7A",
"F  c #615D64",
"G  c #64586F",
"H  c #795762",
"J  c #56627E",
"K  c #656163",
"L  c #6F6860",
"P  c #726A61",
"I  c #736C63",
"U  c #746C63",
"Y  c #766E65",
"T  c #786F66",
"R  c #766A69",
"E  c #797066",
"W  c #7A7269",
"Q  c #7C746A",
"!  c #646473",
"~  c #6A6B77",
"^  c #72727C",
"/  c #86636C",
"(  c #8D676E",
")  c #80776E",
"_  c #81796E",
"`  c #857C72",
"'  c #887F74",
"]  c #987673",
"[  c #9E7B76",
"{  c #098938",
"}  c #0BA241",
"|  c #13AF45",
" . c #18B444",
".. c #24BE44",
"X. c #2F8562",
"o. c #3B936A",
"O. c #6AB949",
"+. c #4FA673",
"@. c #58AE77",
"#. c #62B779",
"$. c #2CC444",
"%. c #35CB42",
"&. c #44D342",
"*. c #55D943",
"=. c #5DDC43",
"-. c #62DE45",
";. c #66DE49",
":. c #79D753",
">. c #64E147",
",. c #6CE34C",
"<. c #7CE754",
"1. c #7CF156",
"2. c #71C17D",
"3. c #8A8176",
"4. c #8C8278",
"5. c #91877C",
"6. c #82CB5A",
"7. c #9BD173",
"8. c #8DF469",
"9. c #5B6480",
"0. c #586885",
"q. c #5D6C8A",
"w. c #6A6E81",
"e. c #60708D",
"r. c #7A7387",
"t. c #76798B",
"y. c #697894",
"u. c #6F7E99",
"i. c #73819B",
"p. c #7F8EA6",
"a. c #80838F",
"s. c #808FA6",
"d. c #8495AC",
"f. c #8A96AC",
"g. c #939AAB",
"h. c #8997B0",
"j. c #8C9CB2",
"k. c #919EB6",
"l. c #9CA3B4",
"z. c #95A4B9",
"x. c #99A7BB",
"c. c #84CD85",
"v. c #94D991",
"b. c #A3E29C",
"n. c #AECCA7",
"m. c #A8E1A3",
"M. c #9DABC0",
"N. c #A6AFC0",
"B. c #A3B2C4",
"V. c #A9B6C7",
"C. c #A9B6C9",
"Z. c #ADBACB",
"A. c #B2BCCD",
"S. c #B3BFD2",
"D. c #B2C0CD",
"F. c #B4C2D2",
"G. c #BBC6D7",
"H. c #BECCDB",
"J. c #C1CEDE",
"K. c #C5D2DF",
"L. c #C3CFE1",
"P. c #C4D2E2",
"I. c #CBD9E6",
"U. c #D2DDEB",
/* pixels */
"y c x s t y y w j y c t 8 j y t y t t j r y 0 b W d y t r y M j t t c r r t j r 8 y y j z k M t k z r r t n c k j 8 r P ",
"c c d j j j y j r t r 0 r j y y t r c y r r j r ; w k j t j k y w y l k r d j r r t j y y c j w c j 0 r Y y ; t 0 8 t j ",
"j y t r 0 r y c l z y t r y r t d j y r k k j j l t j j d y 0 0 y r r r t r y j r e t j b k y j j y 0 j y 8 k j r r z M ",
"r 0 8 8 0 y j j y j b k j k y j t w t k c j c n j k k r j y y y y r j k j y t j l l j k r j t y t r r j d r c b j y U j ",
"r 0 j 0 t y y j j j k r j j y j r k y d r y n n j c c c y 0 t d k w t j r d k k z E c t t c d k j 0 y y r j j t d j w ; ",
"r t z t k j k y y c c r j y e 0 w t t 0 j ' W _ W w y c k t r 0 d d t w y r w l U n s r w j w y y t y j r k y y P k r e ",
"j t j z k j j t r k k w k k r t y j y y E 3.W P b t y E c t j k y j t r j n x c U k j 0 0 c t r r r r t k y w j j y k t ",
"y j z j r r j y r r w t j t r y y j j c Q P L n y r y k k 0 t s t j r t l P c r t y w w 7 k j k k e l y y P y y j 0 r 0 ",
"y j y t 8 r j j y r y y k d y t j j y j k j c P j j x j j 8 0 e y j r r d k r w t y j 7 r t y Y k r E x j W j b c P j 8 ",
"n 0 r r r y t l z r t t k d j c m k r P I k c k r j j j r r j Y y r y r w l j y d t r 8 P Y r r 0 y n P Q c k k r _ k r ",
"w 0 w t t t r y c d 0 r w j y y t 0 y b P n s 7 P k r y r y j c j d t t y y t d y t c d j r ; t j r c k j l z t k j y y ",
"b j t y t c y j Y x 0 e r r t j t r d t k t 8 r k d y y y y c ` j r t y j r j c 0 k n 0 r w y j y t n y j P z c c c j y ",
"k b c k M n x k c 0 0 y k Y j r d k y t b n n c b y 0 k y 0 k n 8 y c j d t j k r r 0 y d y b c k k c c j b n z w ` c y ",
"l P j U n d j t r w t t n c y k 0 y j j n n j t y 0 r b k r l 8 - y n d j j t b d 0 _ E x Y Y t c l j j t k n t P 5.d j ",
"d r k y y r 0 w j r y j n t r r t l r t c c j r 7 r y j t r r t P d y t j t t k j y M P j y r b j x n j k k b b ' M j k ",
"d y k y r 7 ; r r 8 j j 0 r t y d k y y r r r 0 0 j y 0 r y j n Y n y y k 0 j c j k y t w d t k Y m b P y j k b n 8 U j ",
"j 8 y d r 8 r k w 0 r 8 t y y t y j d t r 7 ; r c j r d k r k _ c k t y t r y w 0 r t 0 8 j P t y t 8 j j t y l s k y y ",
"w 8 j j d r j r r c t 8 w t c k y b j r t t 0 l P r r r y r j j y w r j w 8 y l t r r l y Q 3.0 k r r k y j M y y j j y ",
"d w r r r w y y 0 k l t y t j j t j y r r j j 0 ; n n r t j c r 8 8 r w - w y y y d j n j Y j r d j n n c l k b n j t r ",
"l t j y y r 0 t t y y w j r 0 y d l t j r 0 r d b Y j t j y n n r y d 0 w r r y y j k k j m d b d k b r j j c ` j k j t ",
"j w d j j r j j w n c 7 l b 0 r y j d r 0 j r j Q n ; y y r t y j j d r k t r y c k c Y w j y j d t r U k 0 b m y j j w ",
"j r j r r w c x r y w 0 c j 0 y r y t r j c t 7 q R ] [ [ [ ] ( H h # + 0 j y y n t c k k d y j t j l Q n r l j y k j w ",
"0 r y j r j l t t z j d t r 0 r j t t y z c b y 1 < h / / / / / a O q r t t y r t r r 8 k r j j y j n n y 0 0 y j e r r ",
"r d d j r w j ` P M c j y r r c j k j r d b Q c 8 7 < a r.r.G 4 < q r r t r y 0 r r y j 0 w j j t y c y r w ; t j k b j ",
"b k t w r t Y ` n c d j k w y m c n k c y Y E y y t , 5 p.p.9.> + 0 r k r j j t j y d r r j d r c d r w r r r y y b c y ",
"c w 8 r r n Q Y L L t j j b j 8 j ) W P j y s r c j f w.x.x.i.B u c 0 j 0 y y k y y t t d j r r l t r j d r t t t w t n ",
"0 w 0 0 d b P Y P n k t l I j y c Y P Y k 0 t k F K a.l.V.M.s.9.V u 9 w r t c k y t t y j y j b r r j j r t l b r y j k ",
"8 0 d k y k j c c d r t P d y y P j d k t d k ~ w.t.N.P.Z.x.d.u.J N i p r d k j y r k r r r j j y t k r w d c x 8 c j 0 ",
"r b k d y r j j y r s r P Y c P Y y 8 j d g ~ l.A.A.F.F.Z.x.d.d.u.9.S C p f j d w w j j n d t t r r r r y r l y n n 0 r ",
"z Q j 0 r k n j j d k r 3.4.Y 3.j r y j g ^ f.A.P.J.F.Z.Z.x.j.h.p.i.e.D B p f r l c r c d d y j r w 0 b c r t d P j 0 d ",
"j 0 t k k j d r c l c b W c P d r r c x ! g.J.F.Z.Z.Z.Z.Z.B.z.j.d.d.u.q.J C p 9 k k 0 r t y w r y t r d ; n Y j 0 8 r y ",
"l e k k y y y j k l k x j d d s b c R ^ l.Z.G.Z.F.K.F.Z.Z.C.B.z.j.d.p.i.q.D C p 9 7 r s F r j r y y t r t y r r w r j j ",
"y t n k j y k y c M j w 0 j l K Q k F t.G.L.Z.S.L.U.H.Z.Z.Z.C.M.k.h.h.p.y.0.S N u e w g ! n U w t t j c j k l r r 0 E Y ",
"; n W j l c c k j k c y r c P R Q 0 Z t.G.H.Z.K.U.I.H.D.Z.Z.V.x.j.d.d.p.y.0.A i u y r g ! n s 0 t y j d d y y y y y c y ",
"t M d r j j y j l c U j j Q E s t c a F n.m.c.v.b.b.v.c.c.c.c.2.#.@.@.+.o.X.6 + 1 t y q 2 k r d t r r ; w j n c r t 0 0 ",
"j j 0 r b W k y j m n k M Q c ; r j @ % 7.8.=.=.,.<.,.=.=.=.*.&.%.$.$...| } =   X k k % . j r r r y r k b c c t j j k y ",
"y y j t n n j b k Y Y k m Y j $ 0 r @ # 6.1.=.=.-.;.-.=.=.*.&.%.$.$.$...| } =   X s d q . l y y y t k U c j r k P c d r ",
"y j d k d j P m k y Y c y y 0 7 r j 3 # : O.,.>.=.=.=.=.*.&.%.$.$.$... .} = * o 7 r w t @ r c j y t Q ` k y t n c d t 0 ",
"r j Y Y t l c m j w P x k n l d j j y q O : :.;.=.=.=.*.&.%.$.$.$.$. .} { & X y k y 8 0 c Y y l d w c W P r t j j y s t ",
"c c ` P t y k M m z r y k M k c l w y z r r c k r r j k w t n j d j y j j k U k t r r w ` ) r j c d r r k E y t r 8 r j ",
"l j d ; y U U k Q n r k c W P t t j c w t P y ; t r r w r t y 0 j M y y y d k t t k t P ) w j E j e r r k l y k y 0 j l ",
"t y 0 0 y k d j c j k n n U c P P j r 8 d y 0 r k r 8 t r y l k r r n x 0 r j y y n j k j t b n - w y j k k P k r t k j ",
"r l P j d t t y l l j U P r t P l j r j k w x Y c r 0 E j 0 w k y E W j r j z k r t j t k c n j t n m 0 j Y b c y l k r ",
"d r r y y r r r 8 n c t y ; k j r t t P Y r k r r t r j y j y 0 y l d j y t r d r y m d d k y j l c 0 r j y j j y M y k ",
"w y y 0 k d r y j j r r 0 y y y t t r r 8 w d d t w c l j y t w t 0 r t j y y y t j l j y j j l y d 0 k k k y w y j w d ",
"t j r r j t t 8 b j r j d y t j r y y r 0 y t j j j c y y 0 t w 0 I Y j b b M r j l Y n r j P k y l j k w m P T c ; y t ",
"y r w r d w w n k t r y j r r j k y y d c l y y d r 0 t r t z j 0 j j 0 r k j k k j n r 0 k c j M n j 0 l j n E r 0 j k ",
"n b j j t 0 j U k y r 0 0 y t E M j r t c k w j U r j z k E s r y j j r j j P Y d y 8 8 z j w t y j d M E k Q j ; w j k ",
"n 0 8 y y r j e r j y d r r t j w 8 0 j 0 w y y j t j r j E 0 8 r w t y d Q P y k j y k n s y 8 0 r y P j w k k r r y U ",
"0 0 n y r r r r y d t r y d t j 0 r t d t r d j t y 0 w r ; r t j c b t t s t y j t j c j t 0 r j j k 0 0 r y l y r y y ",
"w y T w 0 t j r w d y t r b j t y y y r r l y j k y t j j w t d c n c 8 w r y l n j z j y r 0 r y t r y r r k y y d t ; ",
"k y t r y y j t r z n t t n y r k r U Q w j j y y k j j y t y c Y r t r y l 0 c P n E k r y 0 w t r j l r r t d k k j t ",
"c t j t t d j y d t r r r c 8 r t r U P - r y 0 r j d r 0 w d k j r y k c j e y c T M j r d c t j y n k r t e t t r t y ",
"8 8 j j 0 r t j k 0 7 t y 0 0 w j j t $ r k j y 0 w y t y j 0 r r y j E k y j d n n j t 0 r b j y t y y j j t r t y e j ",
"y y y j j j r j j y t r y 0 j j j t y l k t j j t t 0 y j r t j d r l W y t j j b c k j 7 0 t r r y r 0 k j y d j k 0 d ",
"t r t b M w r t y j w r y c j j w t k l y w d c z d t j d 8 y t 0 j k 0 0 t y c j k k t ; 0 y 0 t y j w y y r y t w r d ",
"P 0 d j r 0 y y j j M k j d y t w y t y U t y c j j c y y n U j e y y 8 y j j y n j r 0 r t y r t y w t d d y r c j y j ",
"t t j j y r t t k z k r y t r 8 k c 0 k c 0 w j j k d j k c j j y r r j j r y k c 0 y y y r j b t y b y t c c j x c y r ",
"t r t y t j j t j k w w t t 0 0 r r r j 0 r t e r t r c r r j 0 r r t r y r b ` d ; M M r j d r j j y t y t Y Q c k r k ",
"t c P r r t l U b r Y M j r e r t l e r r j 0 b Q j y y Y c r r d 0 t k y y c c 0 0 k k k k r c d w j j t z E n k d 0 j "
};
