/* XPM */
static char *ac4st_8m9jr[] = {
/* columns rows colors chars-per-pixel */
"50 50 98 2 ",
"   c #15120F",
".  c #1B110D",
"X  c #1A1310",
"o  c #231510",
"O  c #2A1711",
"+  c #241B17",
"@  c #2D1B15",
"#  c #261C19",
"$  c #2B1E19",
"%  c #331D15",
"&  c #311F18",
"*  c #2E211D",
"=  c #34221C",
"-  c #3B241C",
";  c #372721",
":  c #3A2720",
">  c #352925",
",  c #3D2922",
"<  c #3D2F2A",
"1  c #42261C",
"2  c #44281F",
"3  c #4B2A1E",
"4  c #522C1F",
"5  c #442B22",
"6  c #4B2D22",
"7  c #412F28",
"8  c #522E22",
"9  c #582F22",
"0  c #4D3026",
"q  c #46322C",
"w  c #4C342B",
"e  c #533125",
"r  c #5B3326",
"t  c #53352B",
"y  c #5B362B",
"u  c #55392E",
"i  c #5C392E",
"p  c #4C3730",
"a  c #4D3932",
"s  c #553B33",
"d  c #5C3D32",
"f  c #623627",
"g  c #623729",
"h  c #633B2E",
"j  c #6B3D2E",
"k  c #633E32",
"l  c #6A3F31",
"z  c #574037",
"x  c #5D4036",
"c  c #534039",
"v  c #5D4238",
"b  c #79422F",
"n  c #644135",
"m  c #6C4234",
"M  c #644439",
"N  c #6C4639",
"B  c #64483E",
"V  c #6E483B",
"C  c #714232",
"Z  c #734333",
"A  c #774332",
"S  c #704334",
"D  c #724536",
"F  c #754434",
"G  c #754535",
"H  c #7B4635",
"J  c #784737",
"K  c #7E4735",
"L  c #7A4837",
"P  c #7D4837",
"I  c #724739",
"U  c #744738",
"Y  c #744839",
"T  c #764838",
"R  c #724A3C",
"E  c #764B3C",
"W  c #794A3B",
"Q  c #7A4A3A",
"!  c #7C4A3A",
"~  c #7B4D3D",
"^  c #784D3E",
"/  c #7D4C3C",
"(  c #824835",
")  c #834B38",
"_  c #834C3A",
"`  c #874D39",
"'  c #874D3A",
"]  c #874E3B",
"[  c #834E3C",
"{  c #864F3C",
"}  c #8A4E3A",
"|  c #85503E",
" . c #88503D",
".. c #8C513D",
"X. c #92513C",
"o. c #91523D",
"O. c #895341",
"+. c #8D5441",
/* pixels */
"5 h g r y j ( G h k d u l m k i d t k n u r i m 1 t k u w 7 7 w t u i i h n h j h u h C j C j j D t ",
"u D J P ' ' o. .T N N k D G D R M d N m l m N ^ 6 i T M d s u k m m k n D N N G G J ! J ( ' C ) O.0 ",
"t m k n Q G P G k M M u i n Q V d i d k m n n T 2 i U k n d d n m m G Q V M M D Q G J m G m J ' / 5 ",
"t N k n m L { m m D k l ) ! T d d y y h l G D D 2 i Q M h m h h D G Q T n d s d x s h C ! Q _ ) L 5 ",
"h N k Q I ^ N m D N n D Q D d w 5 h J K ' ) m D 1 i E k D m h G G C G V v s w w w t k ^ ^ N D J L 6 ",
"k D G ! I d w d N M m Q m k k h C J P P ' ' S D 1 h V k m h J ! C J L N w 7 q t d d M x s k h J [ e ",
"k I D ! I M d M n s d N N h l S G _ ! G ! ! D G 1 C D y h P  .S J P Q M t J Q m d d n k s i m Q { 6 ",
"u n G Q V M s s s d d d u k N m G ! N G G T D L 2 l S k m J L l C m m n m [ ^ k d i n N n k n Q | e ",
"t N D m m x x d x s k N m m n N m m k m J G m J 3 h D h G Q C G G ! D n n m l i u l D T N m l G V - ",
"u k m m m n x n d d m T N m N N m m D J G m G | 6 k N l ! T D J / U l l h A K J G L ! M d D D m M - ",
"t m G I V n M n d M M n m I N T D D Q G J L ^ ^ , t N M Q I l ! T l _ D j ' ) (  .| Q M d D D D Q 6 ",
"r m i k t t u u t i y t h i i i k k d h D / N t . w s t n i h m i l J h j C h j C m i u u i h h j - ",
"3 1 5 - - - = = = - - - % 6 1 2 5 - - - - = + = - = = = = - 1 1 2 - = - % . 1 8 8 1 - 5 - = = - 1 2 ",
"J ' ! V M k n M x k k y 9 +.T T T N N N N k s x v d x x n m n Q U m N n g 2  .+.^ N m n d d k N m D ",
") [ ^ V s k M x s k n y 4  .I m I m n M d k n x x s x s d d n D m T m C C 6 Q n d d k k n D m k k J ",
"Q [ V w t k k d d M n g 3 { m m D k k k h k n x n n s s u i n D k u e P S - m N d t m m Q I m m N Q ",
"I T s w s d M N n d k h 1 ! N D N D D n C l n n M k d n d l ) m g K J _ h 1 Q T s i Q ( _ m m N n m ",
"R d s d d k N V n s u r 3 { m N m m m h i C P T k u d n d l C j ) { G L h - N N d n G J _ N N m n T ",
"d d s d x M V x d w y g 3 ! k n k h h h m C J n h k n k k h A o...G G ! m - m m d m D S Q N m V M n ",
"n d d d v x x d n k Q h 1 P m k k n G P J G Q N n n S J m u ) ..G G D T d = d d d M m C ! D U T d d ",
"d d s s v s x x N R T e e  .T n i l ! C C G S n h D G C l y l y h k m V w & d k M V k C ' T U m n d ",
"d d s d x s M d M z w u 5 T D k h ) J G U n n l G G D G J P C J J G I N d & k n n M h C ' Q m N M d ",
"k M s x s s s d x p s u = n i k G ) J D m l m J J P D I m J J J K ) S N u = M d d d h K ' ! T V n d ",
"B d x v s s s x s s d s = d M D P ) D m n m G Q L _ G m G P ) P ) ) J ^ M - V d u i l K ) _ m M V n ",
"= = : , = = * $ * * = = . = - 1 1 3 - - - 1 1 1 2 2 1 1 3 8 e 8 8 6 6 6 =   = X @ - % - 3 2 - , , : ",
"7 p > 7 q , 7 w q < w t u u t g m h h i y m h m 2 5 k j C j g j i r r r e r u h h f b K j y u t t $ ",
"w x p s s s M B c a s d d d u G { T Q T T ! Q | 6 k T J _ ! G _ D S G G Q N N m K } o...' _ T m V 6 ",
"w d t u s s z s p p w u r k y G Q k m I n D Q T 5 y m h D G h U D h J G m k l G K }  .G m m m i V 5 ",
"t M k I V d s w s s t h K J k K ! D D U G ! G D - l Q S J G n T d C ) C ) n j J ) _ U k n D I D N - ",
"h T M N M B s s d d i m J Q D ! ! Q T I G L J D 1 h D C Q T N m k G L C J C J J T k m D D [ R k m 5 ",
"k ^ d d x s p s u u k G D G D D G Q I n m ! L G 2 k T k Q m k V M n C J ( P J ! n m J G D T M d m 2 ",
"k B w s s p p w u d k Q m m G G G G n k D G J ^ 2 i N M N n d n d l C J C K ) Q m D m m G m N d M 5 ",
"s d w M d u t s d k m D k m Q ! G G T G G G Q T - t V n d M n d d n P J ( ' ! m m N k Q G D T n x , ",
"w s d R d k N x d n n m n S ! G C ' / S ' ^ V M : w M t u N N n d n C G ..P G T I k S ! m G T V M = ",
"w d d M u m N M M s u n m D J m J { n C ^ n d n : 5 u h N d M d u k j ! ) P J G N l Q C G [ T N n = ",
"d M M M M N N M x s l Q G G C ( ) G D T N M n M : u N m Q m N u y m m L Q Q G G D I m G ! [ N N M = ",
"w s w u u i d s w t i m l h j j j n k u u u u s @ w u t h i r y h j j l r h h h k i 0 y j j h u t + ",
"= # * - = = - = = - - 2 o 1 6 1 8 - = = = & & = = = - = 1 - 5 6 - 3 3 3 - O 1 1 1 1 1 6 1 1 1 - - = ",
"s w x x d n V d M N M m - Q Q ( [ m N d d M M M d k M k G ) ^ T I L G L l 2 [ L P P ) / J J m N M M ",
"u d d w d x d s d n d q - n d G D n u h k k k k u m n u G L T V n S m J n 2 G G Q G ! D l G m k N M ",
"n k k k M s x s u u d w + d d m m u C J S m i k k m n k m L ^ V k m G ^ i - D Q G D D y m _ n m M i ",
"n D m m m d s w d d d t = d u m I k G L T N n D I N n M m Q T k n k Q T 5 - D m J G h K ..G m k d m ",
"d l l D N i i d d u u t - l m V n i C L m M m D V N V m m d m n m m M i t 1 S G Q m C ' ' P G G N N ",
"d y S L m k C C I w i y 2 ! G u t l P ! D m m I M V N m V d M N n u k D h 1 J L m m J P ! G G Q D N ",
"k n Q Q G J C ) J y G n 5 m j G m P _ ! D D U N N V k M M k n k d i G D r 2 P ) D m J J J m m m m m ",
"k U T U J P P P G P ..D = n C (  .! m h m m m V N d k M m d u k M k G U h 1 K  .Q l G ( ' m m D U V ",
"m G T n m P _ L { [ [ m $ m D P Q m m m D G Q N k d M M n l D N n D J Q h 2 ' Q d n G ) K D D G D m ",
"N D D m C ) ) ! T M N k = m m m M D J J m ! D M u k n M M E R d m T m G h 3 ) D d u h J C { m m D I ",
"M m I m G P ) ) T M N k - G T M I N D Q T T n k M M M n N M a p n M k Q h 2 ! T n n C K ' Q k m I N ",
"- - 5 2 1 3 8 8 5 - 6 - O 8 6 5 6 - 1 6 5 2 1 - 2 2 5 - 5 ; * * = - 2 6 1 % 6 - - 5 2 8 8 - 2 6 5 - "
};
