/* XPM */
static char *output_onlinepngtools_81690634288[] = {
/* columns rows colors chars-per-pixel */
"64 64 37 1 ",
"  c #3F3F3F",
". c #414141",
"X c gray27",
"o c #484848",
"O c gray31",
"+ c gray32",
"@ c gray34",
"# c gray35",
"$ c #5F5F5F",
"% c gray38",
"& c #656565",
"* c #686868",
"= c #6D6D6D",
"- c #727272",
"; c #767676",
": c #7B7B7B",
"> c gray50",
", c #838383",
"< c gray52",
"1 c #898989",
"2 c #8E8E8E",
"3 c #939393",
"4 c gray59",
"5 c #9A9A9A",
"6 c gray62",
"7 c #A2A2A2",
"8 c gray65",
"9 c #AAAAAA",
"0 c #AEAEAE",
"q c #B2B2B2",
"w c #B6B6B6",
"e c #B9B9B9",
"r c gray75",
"t c gray76",
"y c gray77",
"u c #C8C8C8",
"i c gray79",
/* pixels */
"1111111111111111111111111111111111111111111111111111111111111111",
"1111111111111111111111111111111111111111111111111111111111111111",
"1111111111111111111111111111111111111111111111111111111111111111",
"111111111111%#OX             . . .              .oO@111111111111",
"11111111111>;=&#+X.                           XO+#%&=11111111111",
"1111111111131,:-&$@o.                    . .XO+#%*=;:11111111111",
"111111111118642<>-*%111111111111111111111111@$&*-;,<211111111111",
"111111111111q97531,11111111111111111111111111*->,124111111111111",
"1<1<11111<111rw086411<111<1<1<1<<1<111<1<1<11><135711111<1<11111",
"1111<1<111<1<1tteq9<11<11111111111111<1111111246881<1<1<<1111<1<",
"1<11111<1111<11tttr111111<111<1111<1111111<117888<11<11111<1<111",
"11<1=%@<<1<1111<ttty<1<111<111<11<111<1<1<118888<11<111<1$%%111<",
"111>-&#O111111111tttt11<111<1111<111<111<1<988811<111<11$$%&*1<1",
"<11<;=$+X<1<1<1<11ttyt11<111<1<1111<111<1189881<11<1111%$$%&*111",
"1112>=&@OX11<1111<1ttyt11<1<111<<1<1<1<1<89891<111111<%$$%%&=1<1",
"<1<3<;*#OXX1111<11<1ytyt1111<111111111119888<111<1<11%%$$%&*=<11",
"11151:=%+oXo111<111<1ttyt1111<11<1<111<9889<1<1<1<11&%%$%%&=-11<",
"<1<53,;&@OXXX<11<11111ytyt<111<11111<<9899<11111111%%%$$%%*==111",
"1<1441:*%+oXXo1<1<1<111ttyt1111111<119888<111<1111%%%%$%%&*=-<1<",
"111552,11<1XXXX11111<1<1yyyy<1<11<11889911<111<1<%&%%<111*=--111",
"111445<1<111XXXX1<1<1<111yyyy11<11<9898<111<1<11%&%%111<11=-=111",
"<1<554<1111<1XXXX11111<11<yyyyyrrwq99811<111111%%%%1<111<<---<1<",
"11<54511<1<111XXXX111111111yyyytreq8911<1<1<1<%%%%111<1<11-==111",
"<11455<111111<<XXXX1<1<11<11yytreeq8<11111111&%&&1<11111<1=--11<",
"1<1545<1<1<111<1XXXX111111111yyrrwq1111<1<11&%%%<1<1<1<111-=-11<",
"1114541111111<111XXXX11<1<1<<1ytre1<<111111%&%%111111111<1-==111",
"1114451111<11111<1XXXX1<<111111<<1<11<1<1<%&%%1111<111<11<---<1<",
"<1<5541<1<111<1<111XoXX1111<<111111111111%&&%11<1<111<1111---111",
"11<55411<111<11111<1XXXX11111<111<1<111<%&%%<1<11111<111<1---1<1",
"<114451<111<111<1<11<@@+@<<111<11111<11;;-;<11111<1<111<1<--=111",
"1<1555<1<1<1<1<111111%%&%&1111111<111<<,,,,111<1<111<1<111-=-1<1",
"11155411111111111<1<1--=-=<1<1<111<11<3332311<11111<11111<---<11",
"11145511111111111111<>:>:>1<1<1<1<111166665111<11111<11111---<11",
"<1<555<11<1<1<1<<1<111<<<<11111111<1<189999<1<111<1<111<1<---1<1",
"1115541<<111<111111<<55441111<111111<11wwww11111<111<1<111---111",
"<1<55511111<111<<11<888811<111<1<1<1111<ytyt1<1<111<11111<---1<1",
"1<1555<<<1<111<11<188881<1<11111<1<111111ttyt11<11<111<11<---<11",
"11<5541111111<111188881<1111<1<111111<1<11ytyt111<111<1111---1<1",
"1115551111<11111<988811111<111+ooo<1<1111<1ttyt1111111111<---111",
"1<15551<1<111<1<98881<1<1<11<@+OooX1111<11<1ytyt1<1<1<1<11---1<1",
"<11555<111<1<1<9888111111111%@+OooXX1111111<1ttyt11<1<1<1<---1<1",
"1115551<1<11118998<11<1<<1<%%@+oooX..1<1<1111<ytyt11111111---111",
"<1<555111111<8988111<11111%%$#+OoXXXXX1<1<1<111ytyt11<1111---1<1",
"1115561<1<1<9888<1<1111<<%%%%<1111<XXXX111111<1<ytyt11<1<1---<11",
"11155681<118889111111111%%%%1111111<XXXX1<11<1111ytyt111<2:--1<1",
"<1<55799008989<<1<1<1<1%%%%1<1<1<1111XXXX11<111<<1ytyte073<--111",
"1115689009989<11<11111%%%%11111<1<1<11XXXX11<1<1111tttrw951:-1<1",
"<1<579900988111<111<1%%%%1<1<11111111<1XXXX11111<1<1tttw073,-<11",
"1<1689900881<1<1<111%%%%1<111<1<<1<1<1<1XXXX11111<111ttrq851;<11",
"11<7990098111111111%%%%111<11111111111111XXXX<1<11<111yrw962>1<1",
"11189900911111<1<1&%&%1111111<1111<111<111XXXX1111111<1te084<111",
"<1<890001<1<1<111&%%%11<<1<111<11<111<111<1XXXX1<1<111<1rq9521<1",
"111<000<1111<1<1&%%%<1<1111<111<1111<1111111XXoo11<111<11e071111",
"<111<111<1<111<&%&*11111<111<1111<1<111<1<1<1oXXX1111<11<1<11<1<",
"1<1<1<1<111<11&&*;>111<11<1<1<1<<111<1<1<1111%#+oX11111111<1<111",
"11111111<111<&-:,<311<1111111111111<1111111<<:-&$@o11<1<<111111<",
"1<1<1<1<111<;><2457<1111<111<11111111111<11112<>;*&#1111111<1<11",
"11111111<1<,134670qw<112111111111<111<1<111<98541,:=&1<1<11111<1",
"1<111<111<145780qetyuuuuuuuuuuuuuuuuuuuuuuuure08642,>11<1<1<1111",
"11<111<1111790wetyuuuuuuuuuuuuuuuuuuiuuuuuuuuuteq9753<111111<1<1",
"111<11111<1<wrtyyuuuuuuuuuuuyuuuuuuuuuuuuuuuuyuuyew91<1<11111<11",
"<111<1<11111<11111111<11111111111<112111111<111<11111111<1<111<1",
"1<1<111<1<111<1<<1<111<1<111<1<111<1<1111<11111111<11<11111<1111",
"1111<11111<1111111111<11111<11111<11111<11<1<11<1<1111<1<111<1<1"
};
