/* XPM */
static char *result[] = {
/* columns rows colors chars-per-pixel */
"64 64 256 2 ",
"   c black",
".  c #010101",
"X  c #020202",
"o  c gray1",
"O  c #040404",
"+  c gray2",
"@  c #060606",
"#  c #070707",
"$  c gray3",
"%  c #090909",
"&  c gray4",
"*  c #0B0B0B",
"=  c #0C0C0C",
"-  c gray5",
";  c #0E0E0E",
":  c gray6",
">  c #101010",
",  c #111111",
"<  c gray7",
"1  c #131313",
"2  c gray8",
"3  c #151515",
"4  c #161616",
"5  c gray9",
"6  c #181818",
"7  c #191919",
"8  c gray10",
"9  c #1B1B1B",
"0  c gray11",
"q  c #1D1D1D",
"w  c #1E1E1E",
"e  c gray12",
"r  c #202020",
"t  c gray13",
"y  c #222222",
"u  c #232323",
"i  c gray14",
"p  c #252525",
"a  c gray15",
"s  c #272727",
"d  c #282828",
"f  c gray16",
"g  c #2A2A2A",
"h  c gray17",
"j  c #2C2C2C",
"k  c #2D2D2D",
"l  c gray18",
"z  c #2F2F2F",
"x  c gray19",
"c  c #313131",
"v  c #323232",
"b  c gray20",
"n  c #343434",
"m  c #353535",
"M  c gray21",
"N  c #373737",
"B  c gray22",
"V  c #393939",
"C  c #3A3A3A",
"Z  c gray23",
"A  c #3C3C3C",
"S  c gray24",
"D  c #3E3E3E",
"F  c #3F3F3F",
"G  c gray25",
"H  c #414141",
"J  c gray26",
"K  c #434343",
"L  c #444444",
"P  c gray27",
"I  c #464646",
"U  c gray28",
"Y  c #484848",
"T  c #494949",
"R  c gray29",
"E  c #4B4B4B",
"W  c #4C4C4C",
"Q  c gray30",
"!  c #4E4E4E",
"~  c gray31",
"^  c #505050",
"/  c #515151",
"(  c gray32",
")  c #535353",
"_  c gray33",
"`  c #555555",
"'  c #565656",
"]  c gray34",
"[  c #585858",
"{  c gray35",
"}  c #5A5A5A",
"|  c #5B5B5B",
" . c gray36",
".. c #5D5D5D",
"X. c gray37",
"o. c #5F5F5F",
"O. c #606060",
"+. c gray38",
"@. c #626262",
"#. c gray39",
"$. c #646464",
"%. c #656565",
"&. c gray40",
"*. c #676767",
"=. c #686868",
"-. c DimGray",
";. c #6A6A6A",
":. c gray42",
">. c #6C6C6C",
",. c #6D6D6D",
"<. c gray43",
"1. c #6F6F6F",
"2. c gray44",
"3. c #717171",
"4. c #727272",
"5. c gray45",
"6. c #747474",
"7. c gray46",
"8. c #767676",
"9. c #777777",
"0. c gray47",
"q. c #797979",
"w. c gray48",
"e. c #7B7B7B",
"r. c #7C7C7C",
"t. c gray49",
"y. c #7E7E7E",
"u. c gray50",
"i. c #808080",
"p. c #818181",
"a. c gray51",
"s. c #838383",
"d. c #848484",
"f. c gray52",
"g. c #868686",
"h. c gray53",
"j. c #888888",
"k. c #898989",
"l. c gray54",
"z. c #8B8B8B",
"x. c gray55",
"c. c #8D8D8D",
"v. c #8E8E8E",
"b. c gray56",
"n. c #909090",
"m. c gray57",
"M. c #929292",
"N. c #939393",
"B. c gray58",
"V. c #959595",
"C. c gray59",
"Z. c #979797",
"A. c #989898",
"S. c gray60",
"D. c #9A9A9A",
"F. c #9B9B9B",
"G. c gray61",
"H. c #9D9D9D",
"J. c gray62",
"K. c #9F9F9F",
"L. c #A0A0A0",
"P. c gray63",
"I. c #A2A2A2",
"U. c gray64",
"Y. c #A4A4A4",
"T. c #A5A5A5",
"R. c gray65",
"E. c #A7A7A7",
"W. c gray66",
"Q. c #A9A9A9",
"!. c #AAAAAA",
"~. c gray67",
"^. c #ACACAC",
"/. c gray68",
"(. c #AEAEAE",
"). c #AFAFAF",
"_. c gray69",
"`. c #B1B1B1",
"'. c #B2B2B2",
"]. c gray70",
"[. c #B4B4B4",
"{. c gray71",
"}. c #B6B6B6",
"|. c #B7B7B7",
" X c gray72",
".X c #B9B9B9",
"XX c gray73",
"oX c #BBBBBB",
"OX c #BCBCBC",
"+X c gray74",
"@X c gray",
"#X c gray75",
"$X c #C0C0C0",
"%X c #C1C1C1",
"&X c gray76",
"*X c #C3C3C3",
"=X c gray77",
"-X c #C5C5C5",
";X c #C6C6C6",
":X c gray78",
">X c #C8C8C8",
",X c gray79",
"<X c #CACACA",
"1X c #CBCBCB",
"2X c gray80",
"3X c #CDCDCD",
"4X c #CECECE",
"5X c gray81",
"6X c #D0D0D0",
"7X c gray82",
"8X c #D2D2D2",
"9X c LightGray",
"0X c gray83",
"qX c #D5D5D5",
"wX c gray84",
"eX c #D7D7D7",
"rX c #D8D8D8",
"tX c gray85",
"yX c #DADADA",
"uX c gray86",
"iX c gainsboro",
"pX c #DDDDDD",
"aX c gray87",
"sX c #DFDFDF",
"dX c gray88",
"fX c #E1E1E1",
"gX c #E2E2E2",
"hX c gray89",
"jX c #E4E4E4",
"kX c gray90",
"lX c #E6E6E6",
"zX c #E7E7E7",
"xX c gray91",
"cX c #E9E9E9",
"vX c #EAEAEA",
"bX c gray92",
"nX c #ECECEC",
"mX c gray93",
"MX c #EEEEEE",
"NX c #EFEFEF",
"BX c gray94",
"VX c #F1F1F1",
"CX c gray95",
"ZX c #F3F3F3",
"AX c #F4F4F4",
"SX c gray96",
"DX c #F6F6F6",
"FX c gray97",
"GX c #F8F8F8",
"HX c #F9F9F9",
"JX c gray98",
"KX c #FBFBFB",
"LX c gray99",
"PX c #FDFDFD",
"IX c #FEFEFE",
"UX c white",
/* pixels */
"O O O O + O o i v w C # O O O O O + O % ; @ O O O O O O N i O O O O + O O O 1 A 2 O % < # O O @ 2 , @ n u j k O O + O O O O O + ",
"O O O O O o o i v w C # o O O O o O + i m 7 O O O O O O N i O O O O O O - t Z R < + y b 9 o o < v l * n u h k O O O O O o O o + ",
"+ O + O + O O i c e C # O O O + O O + x Z 6 O O O O O O N u O O o O ; t c j s L 1 O d C 4 O o > D s $ n u h k O O O O O $ < % @ ",
"d s s s d j i N j e C # O O O O O + X t K & o O O O O O M u O O ; y c h w y C T , X 6 G & o o @ G y o b y h k O O O O O e V n s ",
"d s s s s P F a 3 q V $ O + O + O + X w J & o o O o O O N i : u c h w y c j y Q s 9 j H e q w q J k q D l M d O O O O O 0 n k s ",
"O o : w ; s c % e c m # O O O O o O o y J 5 2 2 2 1 2 3 F M x h q y c k 6 $ # v v z v n z z Z ~ m x x m c c 8 O O O O O + & O + ",
"O + a F S Y z < P l q @ O + O O @ , u M S M M M M M M N G l w u c j 6 $ o O O @ + @ + + + O , J < O @ O + O + O O O O O O O O @ ",
"O O 6 g 8 n b > T x ; O o o # 2 s v f 0 5 4 5 6 6 4 5 5 6 y c j 5 # O + @ @ + @ + @ + @ + + > D , + @ + & , $ O O O O + O + O + ",
"f f f f s Z m & 3 V J 8 % 6 h c a 0 y x H K v m P H v M m j 5 $ O o : z k x x x x x x x x x C T l x c c c V m g h l s f h h h h ",
"a a a a a l K V 1 @ Z S j x u 0 p c g 5 r L < * d P > = = # O o O o 4 I p i i i i i i i i u c / s u i i z M x g g K Y f h h h h ",
"O O O o O o - S b o c P e q f v d 2 # o 3 S * X w H & o O O + O O o 4 S & o o O X o o o o X ; F > X O o # * + o X e Z $ o O o + ",
"O o O o O o X s n o z S f v i , + O o o 4 D * o s P 6 o O O O O O o 4 S * O O % $ % % % % $ 1 A > o O O O o O O o w V # o o o O ",
"1 < < < 1 < < l z O c P w ; O O o + O o 4 S * O f Z w o + O O O O o 4 S * O $ v c b b b b b G ! 8 O O o O O O O X r F 2 , < > , ",
"m n m n m n m ! c o k c O o O O O + O o 4 D * o ; 5 % o O O O O O o 4 S & o & J y 4 5 5 5 4 i | P q + o O O O O o 0 P M m C R n ",
"> > > > > : : c v # l l $ $ $ % $ % $ $ 7 S ; $ $ # $ $ % $ % $ % # 8 A ; $ : S 1 o o o o X ; J m W 0 o O o O O O # = = * : K s ",
"n n n n n n n E F c K D b n n n n n n n A P n n n n n n m n n n n n A P n n A Y < O O + O O > F , j E 7 O O + O O O o + 5 9 F D ",
"4 3 4 3 4 3 3 B A 3 4 4 4 4 4 5 4 5 4 4 4 5 4 4 5 4 5 4 5 4 5 4 4 4 4 4 4 4 r Y 2 o o O o o , J < O z R 4 o O o O O o ; b m 0 5 ",
"O o O o O o o u b O - f s f f j g a f f f f f f f f f f f f f j h u d d d d l U x r # O O o e I p O @ c U 2 O O O O O & C k # O ",
"O O O O O o o i b O 4 Y s p i c ( g i p p p p p p p p p p p i b / s t y y y y i a K c & o o w N t O O @ m I 1 o O O O o v j O + ",
"+ O O O + O O i b O 4 H = o X ; P 2 X O o O O o O o O o O o @ d h > r y u u u u r 8 G N - o # : # O + o $ N L , O O O O c h O + ",
"o o o o o o X i n O 4 G = o o ; L 2 X O o O O O O O O o O o 0 n < j v f g g g h F A 5 C D > o o O O O o o # C H ; o o o c h o O ",
"< < < > < , , j z O 4 J > % $ 1 J 5 # & % % @ O + O + O O : m 8 i H p q q w q q 3 Z J 7 n J 4 O O O + o O o & A F 4 < 1 M j , 1 ",
"n m T V v n m W c O 5 ! b b A A K V Z l m C 2 o O O O o $ k a 2 S B c v v v v D F 5 b I 9 l P 8 O o O O O o o * C S M B _ F c m ",
"= * B B - * * j m O 4 I 0 4 c R 7 e E t 6 I q o O O O O t c < c i # @ @ @ # @ * m P 6 k T r s Y y + + O + O O o $ - = * N N = - ",
"O o x m + o o i b O 4 G = . 9 K $ & S 2 + Z e o O O O 1 n 4 a c & o O O O O o O + x Y 8 p E p y Y d $ o O O O O O O o o k n + O ",
"O o x m @ o o i b O 4 G = X 0 K % * S 2 : J V i p p p l r 7 M < O O O O O O o @ ; * g R w e R h 0 P z $ O O + O O O O o l n + + ",
"+ o c m @ o o i n O 4 G - X q K % = F 3 < N Z z z b _ j < m e O O O O O O + o 6 m s @ a E t 7 T v 6 J M = o + O O O O o l n + + ",
"O o c N - & + i b O 4 G = X 0 K % 8 U p @ > * O O 7 B < g j % - & o & = & + X q F u + O r E a 2 K B 5 S Z ; O o O O O o l n + + ",
"+ o k I C F < i n O 4 G - o 0 J % t A s + O O o ; n q q n ; 2 N b 0 b D b % X , I 3 X O o q R h < D D 5 B G < O O O O o l n + + ",
"O O = < 7 T 7 u b O 4 G = X e K & % 2 & o O O @ h d 2 N 8 X 3 V D C ( G E w 8 i P u 8 9 , O 5 T x : B J 3 Z h O O O O o k n + + ",
"+ O O o & H 9 u v O 5 G = + x I 8 O o O O O O e v , x s # O @ ; * * F c Z n n M Z n n T x + o 2 U k * G u h k O O + O o l n + + ",
"O O O o & Y C K l O 4 G = + h N 4 O O O O o , m 6 i b * O O O X o @ Z e + $ $ $ $ $ @ g n + O X t A $ m p j k O O O O o l n + + ",
"+ O O O # w u G m O 4 G = O % ; + + O + o % l u 6 N 3 o + O # 3 > * C q o y k z x n 0 s b + O o q C % M p h k O O O O o l n + + ",
"O O O O O o X i n O 4 G = o o O O O o O O u z , b t + o O o 4 Z H m R v u H c u u U n d b + O o q V % M p j k O O o o o l n + O ",
"+ O O O + O o i b O 4 G = O O + O + O O 3 N 3 f l % O O + o 1 b j e j K U d , o . l m f c + O o w C % M p h k O + > = o l n + + ",
"O O O O + o o i b O 4 G = o O O O + o o s b 9 C < o O O O O + % @ o X w V $ O O X z ) Z g @ O o q C % M p h k o 1 m l $ k n + + ",
"O O O O + o o i b O 4 G = O O O O O o o f v d m @ o O O O O O o O O O d J : o + o > I m ; O O o w C % M p h k o 2 H g # k n + + ",
"+ O O O + O o i n O 4 G = O O + O + O o f v d m # O + O + O + O O O # c D 0 o + O o x h o O O o w V % M p j k O # J u X l n + + ",
"O O O O O o o i b O 4 G = O O O O O o o d v d m @ o O o O o + O O O O 7 y = o O o @ B v @ O O o q V % M p h k O @ F u X l n + + ",
"+ O + O + O o i b O 4 G = O O + O O o o f v s M # o O O & # + O O O O O O O O + o ; A C , O O o w C % M p h k O # F u X l n + + ",
"O O O O O o o i b O 4 G - O O + $ , # X d v f F q q q e j s # O O O O O O O o O o % a i $ o O o q V % M p h k O # F u X l n + + ",
"+ O + O + O o i b O 5 R g g h h k n r o d v g T v n m V M j % O O O O O O + O + O + + @ O O O o w C % M p h k O # F u X l n + + ",
"O O O O O O o i b O 5 E g f f g c n 8 X d v d C = & * ; s 6 + O O o 1 u ; # r t # O O O O O O X q V % M p h k O # F u X k n + + ",
"+ O O O + O o i b O 4 H = o o O @ - + o f v g T c m m N m z $ O O + l A w : C m ; O O O O O O o w C % M p h k O # F u X l n + @ ",
"O + & + O o o i b o 3 G = o o O o o o X d v f J 0 0 0 i x e @ O O o d S : # S k @ O O O O O O o q V $ M p h k O # F u X l n + + ",
"+ 9 x 7 O o o a Z 9 g K t q q w q w q q m k s V @ X o o % + O O O o w Z # O M j O O O O O O O o q V % M p h k O # F u X l n + + ",
"+ a V 0 O o o s L j c b l l l l l l l l c 7 p C # o O O O o O O O X w C $ O M j O O O O O O O o q C % M p h k O @ F u X k n + + ",
"o 6 G - O o o i b - 6 6 7 7 7 8 7 8 7 8 7 5 z M $ + # @ # @ # @ @ + e V % @ n h @ # @ @ + + + O w V * m i h k O @ F p & z v = * ",
"o 3 S * O O o i v w J b m m m m m m m m m m C a > l k x x x x x x z S P x c T N l x c n d k k k Z L c U r j k O # L S M L J G b ",
"* 8 V * O o o i v t A * $ % $ % $ % $ % $ % $ + 3 R s y u u u u u u i i u i W V t u i E m r t t u y u E i h k O # G h 2 3 2 v Y ",
"m K J = O O o i v t C # o o o O o O o O o O o X 3 P > . o X o o $ @ o o X X c k o o o b s o o o o X o M p h k O # F y o o X w E ",
"> u P - O O o i v y H 0 0 0 0 0 0 0 0 0 0 0 0 9 d P t 0 q 0 q w g p # ; > , M g O O O b a o O O , q : M u j k O # F u o O O % 1 ",
"X 2 G = o o o i v y E v m m m m m m m m m m m m B C z z z z z m M h = C M m A e O + O b s O O @ j K F Q r h k o @ F u o o O o O ",
"> w F 5 , > > h l t Z & @ # @ # @ # @ # @ # # # # @ @ + @ + @ $ 2 - & K t * * # o O O b s O o O e k 9 K p j b > 1 F a , > > , < ",
"N A J N N N N Q z t C # o O o + O + o O O O O O O O + O + O + O O o & J 0 o o O o + O b s O $ % + + O m p x U N Z I S D R m V C ",
"; - - - ; - - z b t C # % e 8 + o O o O o O O O O o O o O o O O O o & J 0 o O O o O o b a # d n 9 3 5 C t k n ; : : : 2 Y u ; > ",
"O o O o O o o i v t C @ 5 C c & o + O + O + O O + O + O + O + O O O & G 9 O O + O + O v a * M L B m V ( t h k o o O o $ D 9 X + ",
"O O O O O o o i v t C @ : K t + o % u i a a a g u p a s f y a a a a h U z a f s y a d G r O 2 4 & % & Z p j k O O O O $ D 9 o + ",
"O o O o + o o i v t C # % K 0 o o : P h a s a J P p s f Q b a s s s d g s s x ! g a g ^ u O o o O o + M p h k O O O o $ D 9 X + ",
", , , 1 t , o i v t C @ % J 9 o X : H < o O X i Z # O O M p O o O O o o O O & D 3 o + Z i o O O O O + M p h k O O O O $ J p > , ",
"M M N Z M p o i v t D 3 7 K u 2 2 w D , o O + z H : O O m p + + + + : : O O & S 3 o + V i o O O O o + M p h k O O O O # Z A m M ",
"- = = 5 p > o i v y R c N F M n n B v - o O $ b C 5 O O V B h j j z x z * O & S 4 o # F g + O O O O + M p h k O O + O + & - = ; ",
"O o O o + o o i v t A = % % % & % & # + O O O 2 7 # O O B b e r r i z a $ O & S 3 X , G M * o O O O + M p h k O O O O O o O o + ",
"+ O + O + O O i v t C # O O O O O + O + O + + O O O + + m i o o O O & $ O + & S 4 o ; m f $ O O + O @ M p j k O + + O O O + O @ "
};
