/* XPM */
static char *white_wall_31690640366[] = {
/* columns rows colors chars-per-pixel */
"64 64 59 1 ",
"  c #8D867B",
". c #8F887E",
"X c #908A7F",
"o c #948D83",
"O c #969087",
"+ c #9B948A",
"@ c #9F998E",
"# c #9F9A90",
"$ c #A1998E",
"% c #A49E94",
"& c #A7A196",
"* c #A9A297",
"= c #A7A198",
"- c #ACA59B",
"; c #AFA89E",
": c #B0A99F",
"> c #AFA9A0",
", c #B3ADA2",
"< c #B7B0A6",
"1 c #B8B1A6",
"2 c #B6B1A9",
"3 c #BBB5AA",
"4 c #BEB8AE",
"5 c #BEB9B1",
"6 c #C0B9AE",
"7 c #C3BDB3",
"8 c #C4BFB8",
"9 c #C6C0B6",
"0 c #C8C1B7",
"q c #C6C1B9",
"w c #CBC5BB",
"e c #CEC8BE",
"r c #D0CABF",
"t c #CBC7C0",
"y c #CEC9C2",
"u c #D3CDC4",
"i c #D3CFC8",
"p c #D6D0C6",
"a c #D8D2C7",
"s c #D6D1CA",
"d c #DBD5CB",
"f c #DFD8CE",
"g c #DCD7D0",
"h c #DED9D2",
"j c #E0D9CE",
"k c #E3DCD2",
"l c #E3DFD8",
"z c #E6E0D6",
"x c #E8E1D7",
"c c #E6E2DA",
"v c #EAE5DC",
"b c #EDE8DF",
"n c #EBE7E0",
"m c #EEE9E2",
"M c #F1EDE6",
"N c #F2EEE9",
"B c #F5F2EB",
"V c #F9F5EE",
"C c #FDFAF3",
/* pixels */
"ufhkfisgdlsuygdskkglgljvvxcdskvguvnvnxjdcbMduxMbMbkcccckkllprsfp",
"mvvmclcvnhg7fvlmMvxvxkvxxll6vkM<dNjxxnmnvlk,kMlckdcMzcbcllf3vvk5",
"mddfffddsds%ldpddddddddddja,vgd*kMjkkkjjjja*Mkdkxkjupadadfr,md9-",
"k3;11::31,,os-;;,-1888787,<+a1-$gi666::6-;<Oi:166<%*;-;;>3<#l6=-",
"hysi7ysi8iiskggisigt,67668iykyatde888rxguciidraruwpzpdfssiq9h35q",
"Ndn9ickvlvbkllllvdvytMxnnvvkvvv1jNb8uNdxjkcckxmxmkvu5nhhvkvcvvr<",
"mdf*ycidjddajdjddjj:8laddjjjjjj*lxa-gxdkjjjjjjjjjfj72npdddaaaf<2",
"Vkk3skfkjkkkkkkkkkx,svjkkkkkkkj,lxj6ixjxkxkxkkzzkkx75mphhhkkjk77",
"Nkk<rkjkkkkkjkkkkkx1amdkxkjxjxj:dmj6axjxzzzzkzkkkkc55bahkkfkfkw1",
"Mkk:pxdkkkkkkkkkxkx6uxdkkkkkxjj*nmj6ubjkkkzjkkkkkhz53bakfkkkhze;",
"Bkk6undkkkjkkkkkkkx18kjkjkxjjxa1Mvk86Mdzzkkkkkkjffz35bahffhhkzr,",
"Mjk67ndkkkkkkxkxkkx1pnjkkxkkkkj-xvx88xjzkkkkkjkkkfc,qcahfffhfkr;",
"Mkx6undkkzkkkxkkxkx60xjxkxkxkxa:xvjr6mdzkkkkkjjkkkk4ucphfffjkzr,",
"Mkk6pxjkjjjkkkxkkkx1rxjxxkjxxkj,jMz86xdkjkkkkkkkkhkw5bphhffkkku;",
"bxk86kjzjxkkkkkkkkx1abjkxjxxkxj*xmj68bdzxkkkkkkjkfk92cafhkkjkzu;",
"Njz67bjjkzzjkkkzxkx6rbdxxxxkxxa*xbk68bdzkxzkkjkkkkz49cakhfjjkku;",
"Njx6dvdkkkkkkkxkkxx1wnjxxkxxxxa:bxk7wbdzkkzjkkkkkfk99cskfhhhkze&",
"Mjk6pkjkkjjjjkkkxkx6dvdxkkkkkjj*czj99xfkkkzkhkhkfkkr5bphkfhhhz9<",
"bkj;ukdjgxjjxxkkjdx6ixkxxxxxxxj*kbz15bkzzzkzzzfhkkzr2cuhpfffkke-",
"d,-+p;*->*>6-*;;*::+86-:1:61,,*+f9=Xu2;,1;;4:;><-;<&=5#&,3=,&4X&",
"rkMmllllgug80glncnvvnxugjjd8sgdepdihcfpykpfquhhhdlhehhccbziuczfr",
"mbgdjgjdgvs6Mkljdkgsjxlkdxs7Nkd-bbhckzcbxzewbfhzcczzlpkffz39car3",
"mddjjddddd66nujjjjjjjdjjkx8:Mar-bcskfffffk47caffdddffffffz3ebfp;",
"vljljjgjgk70ndkjljjkkxkkxx86Mdd-bzjczkkkkc59bfkkkkkkkhkkkc39bhp,",
"mndkkkgjjl88vdkjjkjjkkkkkxw0Mja-bbjzzkkkkz49bakkkkkkkjkjfc3ybfd;",
"nljkjkjljx66makkjkjljkkkkxr6vjd-bcjzzkkkkz79bakhfffkkkkkkc5uckd;",
"mxdkjkkkjx,wmdkkkkjjkkkkkxw7njd,bcfzzkkkkz94bskfffkffjkkkz<pxkf-",
"mkjkkgkkkx6sljkjkjkkkjkkjx83Mdk:kmfzzzkkhze4bpkkfkkjkjkkjz1pzkd&",
"xldlkjkjkx88xdkkgjkjkkkkkx77ndj*zbjzkkkkkke,cakkkfkkkkkkkz,pkka-",
"bldjjkkjjx66mdkjkjkxxkkkkke0mdj:zzjzzzzkkzq3bakkkkkkkkkkkz,dkka-",
"mjajkdjjdg68k8adggsruaaddjw:Mad*xbazjjffak72bufaaprpaupaua;azfr-",
"d6;1*-:%*:O66$,-*%+-::-*-:+-u*%+a4-;-;,&<2X<w&&;&&,,-:---:Xew--@",
"gjgsagsiyiiulxjsghknmvghvllsdjllfdzzdzzkeyfrlccmMmNmBbMmmvvdpdzd",
"xvnnnnnu0N7tmsxmnvlnlkllxks6MxvxxbbbbbMw3V9qMfffzccvzfzfzcd9vmmn",
"kjdddjj13N%sgyutwyuwwsssdje-vdjjjjjjjkz>9C,eNdzzkfzkfkkzfze;nrkf",
":::66-:.3io8>$%%>-*+6--6,6;$s;;:,143<<4Xqf.5e;<1,94-<:;;;1$;u<11",
"ggiu8sggullgxlgnnn8gvghs8ttujuhlhcp5fdsuafgvzffraa3qhfdfhfpffbfd",
"kk6gvnn18Nyijssiud>lydgjkcncxxvlvb,aMkvw9Vfkkjkbvz4vkczvcckxccvc",
"gg%kgag-ynudsssasg>igpssddsdjjjjfk;hzdz>9bajjjjjff:zfdffjfjjjffj",
"xk-ljjk:inaddjggsh-tksjjjkkxzlkkkz>kzkx1emdkkkkzzk;dzhzzzxjzzzzz",
"kg-lggj*tlusdsdddg-ilijjjkjkkkkkkk1pkfx<wMakkkkkkk-lkjxkjzkxkxjx",
"jj*vkgg*uvysdgdssj>slsjgjkkkkkljfz;svfz3rbdkkkkkkk:lkjkxzjkzkkkk",
"kd*ndgs:yvuaasgddg,0kagjjkkkkljjfh,fjfk75Bffkkkkkk:jvjkkjkzkkkkk",
"kd:xdgg*8visssagsj>8cikgkjkkkjjjfh-gffk73Bffkkkkkv6axjxkkkkkkkxk",
"kg<ldjd*wnysssssdg28vsjkkkkkkjjjkf%csfkq<Bdjkkkkkx:jvkxkkkkkkkkk",
"kg1gddd*wnussaddsh-tvdkkklkjjgkkkp=bsfkq3Mdkkkkkkx:jkkkkkkkkkkkk",
"jk-gddg*ynyssssgdg>gkdjjkgkjkkjjkp,bffhr<Mdkkkzzkk;jkkkkkkkkkjkk",
"jk1vgjg%yvuddddggj6tldkkkjkkgkjjff&hddhe:Bfkzkkzkk1lkkkkkkkjjjjj",
"jk:ggjg*txuddddgdk,tkgkkkkkjkkjjhd-vadke;Mkkkzkzvx6jjjxkkkjkjkjk",
"gk<jdgj:7nsddddddk,ulsjkjjjjjkjkjg=vddkw,Bjkkzkzkx,jxjxjkjjjfgfj",
"kk*gljl>0Nggkgkkkl;iljlkkkjlklkkzk<lgdh9:Mkkvxzzxv:jbxxvxxkkkkkk",
"3*Ol131 8g:1:<1113os76,<,*>61,8633X7--&+&z19,,4761od6366617083,,",
"wtgkty8wwit66gtty76kt8iisgdt6sd8iyihgksgrrb99lge8wdhqieu08r677ts",
"mvjjnkv08Ng<lvknlklnlnlkljd6ncklzzhhckcg,Bz3MvzvkbMvvcxvxMv8mcbm",
"ddggddd:8ni$ggiddjdjjjjddjp%Mgdjddfdadd9-Bf;sfdfjjddddjjjjw-madd",
"kljkljj78Bi:xdgkkkkkkjkkkjj,cjjljzfhkkzw<Mk<zzkzkkkkkzkzkxw3Mdlk",
"kkjlkjk36mu-gdgjjlkkkkkkkkf-zdjkzffhzkzw3Mz3dkfkkkkjkkkkkxw6vaxk",
"kjjkkjl<6Ni*lggjjljkjjjkkkf>nfjkjhkfjkz0,Mk3rzfkjkhkkkkkkka1Njxk",
"kkkjgkj28Bt>najgjkjjjkkkkjh,hhkkzkjfzjx93Vz,gzfkkffhfkkkkka:Mjkk",
"kkkkjjk<7M0-najgjgkjkjkkkkk,hfjjzfzkzzx06Vj,szfkkhkffkkkkxa1bjkx",
"kkjkjjk<8B8>Nudgjjgkkjkkkkk-ckjkkjkkzzx63Bk:pvfhkkfffhjjjka:kjkk",
"xkkjjgk37Nw<vidkjkkjkkkjfkk;vjzkzzzzzjx39Mj-hbjzkkkkfkkhkzp:Mdxx",
"jgjggig,1Bw-ksjsddpddiuifdd%vajjjjdjdfj69Bu#caakfdrrdupdffw:buaj",
"::-*%*> 3iOOw-$%*%,,;$*,%%-Of$----:;:,6*<z&%f,;>=&=,@&;;&&+&u$:<"
};
