/* XPM */
static char *door_open[] = {
/* columns rows colors chars-per-pixel */
"57 64 214 2 ",
"   c None",
".  c #070707",
"X  c #080707",
"o  c #070807",
"O  c #090807",
"+  c #0B0A0A",
"@  c #090708",
"#  c #130E0C",
"$  c #0F110F",
"%  c #15100E",
"&  c #19110F",
"*  c #0F1110",
"=  c #141412",
"-  c #1D1512",
";  c #161A17",
":  c #1C1915",
">  c #161B19",
",  c #1A1D1B",
"<  c #201714",
"1  c #231A16",
"2  c #251D19",
"3  c #2A1E1A",
"4  c #1E2016",
"5  c #1D221D",
"6  c #232314",
"7  c #23231C",
"8  c #2D211C",
"9  c #252A1D",
"0  c #2B2C1C",
"q  c #2A2916",
"w  c #33251E",
"e  c #312D19",
"r  c #2D311E",
"t  c #33331C",
"y  c #3C371F",
"u  c #1E1F20",
"i  c #1E2421",
"p  c #1F2923",
"a  c #222523",
"s  c #252A25",
"d  c #2B2C24",
"f  c #252C29",
"g  c #2A2C2A",
"h  c #292521",
"j  c #352720",
"k  c #362921",
"l  c #3C2C24",
"z  c #302D2A",
"x  c #2C3124",
"c  c #26322C",
"v  c #2B322C",
"b  c #323423",
"n  c #3F3126",
"m  c #343B25",
"M  c #3A3C24",
"N  c #32352C",
"B  c #343B2C",
"V  c #3A3B2A",
"C  c #2D3431",
"Z  c #2C3A33",
"A  c #2C3F38",
"S  c #333532",
"D  c #383731",
"F  c #333C34",
"G  c #3B3A33",
"H  c #3A3E3A",
"J  c #33383B",
"K  c #403E1E",
"L  c #402F26",
"P  c #413027",
"I  c #453329",
"U  c #49362B",
"Y  c #4D3A2D",
"T  c #463E25",
"R  c #503C2F",
"E  c #403E3C",
"W  c #413E36",
"Q  c #523E30",
"!  c #3B4026",
"~  c #3C422B",
"^  c #2E4039",
"/  c #344135",
"(  c #3B4332",
")  c #3F4833",
"_  c #34433A",
"`  c #3B443C",
"'  c #3C493E",
"]  c #73641F",
"[  c #444226",
"{  c #4B4524",
"}  c #444926",
"|  c #4B4A25",
" . c #42462A",
".. c #464A2B",
"X. c #494E2E",
"o. c #544A29",
"O. c #4D512B",
"+. c #575A2C",
"@. c #5B5C2B",
"#. c #575628",
"$. c #404432",
"%. c #434A32",
"&. c #4A4D34",
"*. c #43433D",
"=. c #414C3D",
"-. c #4A483D",
";. c #564132",
":. c #5B4535",
">. c #5F4837",
",. c #5E4938",
"<. c #554D34",
"1. c #4C5133",
"2. c #44513E",
"3. c #4C543C",
"4. c #535534",
"5. c #555B34",
"6. c #5A5D33",
"7. c #52563B",
"8. c #565C3D",
"9. c #5A5B3B",
"0. c #655B29",
"q. c #604837",
"w. c #634B39",
"e. c #684F3C",
"r. c #625C32",
"t. c #6B513D",
"y. c #665C35",
"u. c #5F642D",
"i. c #5E6135",
"p. c #5C633B",
"a. c #5F683C",
"s. c #64632C",
"d. c #6D6C2C",
"f. c #6A632B",
"g. c #736B2B",
"h. c #766928",
"j. c #6F752F",
"k. c #78742C",
"l. c #626533",
"z. c #6D6435",
"x. c #676A33",
"c. c #6B6C34",
"v. c #63653A",
"b. c #656A3A",
"n. c #6B6D3A",
"m. c #726D34",
"M. c #726A3A",
"N. c #7B6F38",
"B. c #6D7034",
"V. c #6C723C",
"C. c #737333",
"Z. c #7B7534",
"A. c #7D7C34",
"S. c #73733B",
"D. c #7E7339",
"F. c #7D793A",
"G. c #383D41",
"H. c #3F4344",
"J. c #3D4C41",
"K. c #4B4740",
"L. c #424C42",
"P. c #4B4B43",
"I. c #424648",
"U. c #524D45",
"Y. c #435245",
"T. c #495146",
"R. c #4A5345",
"E. c #4D5A44",
"W. c #455648",
"Q. c #4A5548",
"!. c #46594A",
"~. c #4B5B4C",
"^. c #545245",
"/. c #595244",
"(. c #5C5C43",
"). c #54544A",
"_. c #5A554A",
"`. c #535A4C",
"'. c #5A5A4E",
"]. c #525C44",
"[. c #4C5F50",
"{. c #454B51",
"}. c #685B43",
"|. c #705640",
" X c #4F614C",
".X c #566041",
"XX c #5C6441",
"oX c #5D6843",
"OX c #55634A",
"+X c #5C634D",
"@X c #5F6B4E",
"#X c #556552",
"$X c #5B6252",
"%X c #5D6B50",
"&X c #656C43",
"*X c #6A6B44",
"=X c #696747",
"-X c #726646",
";X c #726C45",
":X c #6A7343",
">X c #727549",
",X c #7A7443",
"<X c #666454",
"1X c #716752",
"2X c #87792A",
"3X c #807534",
"4X c #887A33",
"5X c #807344",
"6X c #8C8627",
"7X c #8B842E",
"8X c #8A872A",
"9X c #9C892B",
"0X c #858231",
"qX c #9A8936",
/* pixels */
"                                                        s                                                         ",
"                                                4 s S -.*.d 4 4                                                   ",
"                                          i d S ` K._._._.U.*.D d a                                               ",
"                                    > s F H *.*.*.K.K.` U.K.*.K.U.*.H v a                                         ",
"                              a s 4 > S K.L.` ` _ ` ` _ L.` C G K.!.T.*.s > 4 8 2                                 ",
"                          a D *./.W a N K.K.*.L.J.J.` ' J.J.F ` L.!.'.K.g a F *.N g ,                             ",
"                      a g F K.'.<X/.v s W K.L.L.J.J.J._ _ _ _ _ J.!.'.*.s v L.T.L.H N n 8                         ",
"                    a v ` L.T.~.'.).S i G U.K.J.J.' _ _ _ _ _ _ J.W.T.F i v L.L.L.L.3.<.T n                       ",
"                  x B 3.].L.J.W.T.).G a S K.K.L.J._ _ ^ A Z A ` ' _ F s i F K.L.J.L.K.}.z.0.{                     ",
"                4 m 6.n.v.E.W.W.L.).*.g N -.U.L._ _ ^ ^ A Z Z _ _ c p , s ` ^.3.7.3.L.(.-Xm.{ 7                   ",
"              7 4 b r.Z.m.b.E.W.W.).L.v s G K.` ^ A ^ ^ ^ A A _ Z c i , f L.(.v.l.i.7.8.(.1.m 9 d b               ",
"            M } M 7 M s.C.C.oXW.W.L.F 4 = s F Z Z Z / _ ^ A A A c f 4 = 4 B %.4.6.l.6.7.&.9 4 ..#.M d             ",
"          l o.c.u.! s m 6.m.b.` v a % + + ; d B B ~ X.' A A A ^ Z c , + + * : x ..5.8.%.9 ; m i.B.@.|             ",
"        d ..l.B.j.l.$.x x &...4 + + + + + * q | | ! } ) Z Z Z Z F v ; X o o o + , m ~ 9 ; v 2.b.c.c.+.M           ",
"      a V l.C.B.c.b..XX.x , = + + + + + X + 4 t q : : , > > ; ; > = + X o . o + + + ; , ! 7.T.8.v.oX5.| d         ",
"      d <.n.V.i.6.c.n.c.M + + + + + X X o + + + + + + + + + + o + o o o o o o o X + + 4 5.n.b.8.'.~.p.0.o.        ",
"    a [ z.S.c.5.4.z.d.@.6 $ + X o o o o o o o o + + # # + X X X o o o o o o o o o X + % } c.c.l.E.].S.4X0.b       ",
"    d @.n.*Xc.4.G $.M 9 + + X o o o o o . + + + # # & & # X # # + + X o o o o o o o X + , ) v.C.n.oXS.2Xg.&.      ",
"    ~ v.;X*X8.( N g , % + X o o o o o . + + # % & & & - # + - - - # + + + o o o o o o . + 7 r.Z.Z.l.r.N.,XW.s     ",
"  V &.n.C.&XoX4.m 7 = + + o o X X X + + + % - - - - & & # + & - - - - - # + X o o o o o . + | Z.n.%.G ^.<X~.Z     ",
"  } l.n.n.&XS.k.O.4 # + o o o X X + # + # - - - - - = = # = = - - - - - - + + + . o o o . . 6 0.oX` S L.#X~.`     ",
"  x %.3.8.n.0X8X#.; + + o X X + # & - # % - - 2 2 - , , = i , - < < - < - # # # + . o o . . + B E.J.B ( 2.F i =   ",
"m %.%.G G X.s.s.K # + o o X + # - - - % - 2 2 2 2 - , , a , = - < - - < - & - - # + X o o . . 4 _ _ x s s s r q   ",
"} c.x.1.$.B B t : + + o X + # - - < < % - 2 2 < 2 - - g g g 2 - 2 2 : - - & - 2 2 - + X o . . $ i s s x V X.d.#.  ",
"1.S.:X&Xb.8.%.q * + o . + % - - < 2 2 - 2 2 : 2 2 - z F 4 H E d 7 g a - - - 2 3 3 2 & + + o . + : M X.5.c.F.9X2X  ",
"T.=X#X%X>X>XS.| = + X X + - 2 < 2 3 3 - 2 2 2 S S f H.a % u G.I.C g 7 : < - 2 3 3 3 2 - + o X @ q @.V.S.A.8X9XD.  ",
"/.;X@X#X+X;XS.| % + X + # 2 3 2 3 8 8 < 2 2 7 H I.H.C - < # , G.J C a 2 2 - 2 8 8 3 8 2 # + X + q @.c.S.A.8X8XM.  ",
"8.4X,X;X+X$X*X} # X + # % 3 8 3 3 w w 2 3 3 2 S I.{.f 2 2 - a f a G.J h 2 - 2 w 8 8 8 8 2 + + + 9 +.Z.M.m.8X4XM.  ",
"8.D.5X-X<X1X-XT + X # & - 3 8 3 3 w w 2 3 8 g H J f J g 2 , g , = g g 8 2 - 2 w w 8 w w 3 # + % q 6.Z.f.0.4XqX3X  ",
"7.<X'.J.8.-X-XV # + % - - 8 w 8 3 w w 2 3 8 , a 4 # , g s g , = - - 2 8 3 - 8 l w w w w 8 % X + q 4.z.s.s.g.9XM.  ",
"W.+X2.W.8.(.~.v # # - - - w w w 3 w w 2 2 8 2 2 2 < = u g i , : 8 w w w 3 - 3 l w w w w w % X + 9 ..s.C.c.g.2Xz.  ",
"i.x.s.S.F.p.W.v # # - < - w w w 8 w w 2 2 8 w l l 8 , f , = f 7 8 w w j 3 - 8 l j w w j w - + # 7 ~ s.C.C.k.g.1.  ",
"#.@.x.:X;XOXW.g # # - < < w w w 8 w w 2 - 3 w l l 8 = , = = , - 8 w w l 8 - 3 l l w w l w - + # 4 ( i.c.n.4Xk.~   ",
"! 6.OX#X$X+X3.q # # - < < w w w 8 w w 2 - 3 w l l w 2 2 - + - 2 w w w l 8 - 3 l l w w l w - + + ; B p.B.n.Z.j.4.  ",
"( 5.oX X'.y.#.x # # - < - w w w 8 w j 2 - 3 w l l l w w 3 & 2 w l j j l 8 - 3 P l w w l w - + # q ..s.B.B.d.c.p.  ",
"F } ..( F N b 4 + % 2 2 - w w w w l l 2 - 3 l l l l l l w - w l l j j l 8 - 3 P l w j l l - # # 6 t t M ! m M N   ",
"( m N v g f s : # % 2 2 - w l w w l j 2 < 8 l l I P I I w - l I I P l l 8 - 3 P l w l l l - # % : q t e d g g d   ",
"L.W.=./ ` 3.%.q # - 2 3 - w l w w l l 2 3 l P P U I I P 8 - l l l l U Q l 2 w l j w l l w - % = e 0.h.] y._.^.K.  ",
"!.#XV.5.3.n.c.y # - 3 3 - w l j j l l 3 w P I I I l l l 8 2 U Y I l Q w.I 3 l Y l w l l w - & = y 2X9X2XD.'.$X_.  ",
"$X#Xa.p.7.g.g.M # < 8 3 - w l l l P P 3 8 I U I I l l l 8 < Y ;.;.Y :.:.l 2 I ;.Y L l l w - & = t d.6X4XoXL.W.T.F ",
"^.L.3.]./.y.r.b = 2 w 3 < l I P l I P 2 3 I Y l l l l l 8 - l I Y ;.>.Y w 8 I ;.:.Y P l w - & = q @.6X8XoXW.J.' F ",
"d F v.S.=X8.<.l % 2 w 8 2 I U l P U l 2 2 P U l l l l P w < L l l Q :.Y l w l ;.;.Y Q Y l - & # 2 #.8X8X:X[.L._ F ",
"p F m.8Xb.T.` h & 2 w 8 2 U Y l P U I 3 2 l I l l l P I w 2 U U I Y Y Q U 8 w I I I Y Q P < & + ; } j.A.&X~.J.` F ",
"Z F p.n.oXW._ a & 2 w 3 < P Q Y P I P 3 8 l l j j j l l 8 - L P l P P Q Y 8 2 l j w j l l - & # , B 5.p.OXW.W.L.G ",
"_ _ J.!.W.J.' v # : w 3 - w Y R l P l 2 2 8 w w j l n I l 2 I n l w w P l 8 w l l w w l w - & & , B ' W.W.W.~.L.D ",
"_ W.J.W.J.L.E.B # : 8 3 - 8 l Y U P l 2 2 w l P U R q.w.Y 8 w.:.Y l w j w 3 l I l w w l w & % = = s ' W.W.!.~.=.N ",
"_ !.W.W.W.W.E.N = : 8 3 - w j L l l w 2 3 I :.:.>.:.t.t.Y w |.|.e.:.Y I l 3 j I I l w l w & # = % s L.W.L.'.T.` N ",
"_ !.~.W.W.!.' s = : 8 3 - w j l w l j 8 l :.w.:.Q R e.;.l 8 e.:.:.:.:.w.Q w w l l l w l w & # % - B W.L.W.W.T.` N ",
"/ W.W.~.W.!._ , # : 8 3 - w j w w I I w l Y U U Y Q w.I w 8 w.:.Y l I :.:.l I U w w w l w & # # 7 ( W.W.W.' W.` N ",
"_ J.` ~.W.W.J.d # : 8 3 - w j j l :.Y 8 8 I Q :.:.:.w.R l 8 e.w.:.Q I U P l :.w.l w w l w & # # 7 ( W.~.~.W.` ' D ",
"A ^ ' W.W.' _ s = : 8 3 - w j I ;.w.Y 8 l ;.:.;.:.:.t.t.Y w w.w.:.Q Q ;.I w Q |.;.l w l w & + + = s F / _ ^ c s   ",
"i i c f s p 4 = % : 8 3 - 8 L :.:.Q l 3 l ;.w.:.Y ;.t.|.:.l w.;.Q ;.:.:.Y w l w.w.R l l w & + # = > 4 4 4 4 > =   ",
"s s F _ F Z v , = : 8 3 - w Q w.:.:.I 8 l ;.>.;.P Y w.e.:.j :.Y U Q :.w.R 8 l :.w.w.Y l w & + # , c C Z F Z Z S   ",
"Z v ' W.W._ _ s = : 8 3 2 I w.>.Y ;.R j I U I Q R R Q ;.:.8 ;.:.:.U I q.:.l l Q :.e.w.P w & + # s ` ' ' L.` J.L.G ",
"A v _ W.J.L.L.v = : 8 3 2 Q w.Y l n P 8 l Q Y ;.:.:.:.w.Q w :.e.t.Y U w.:.w 8 l P w.t.Q l & # # s J.L.' ' L.W.*.G ",
"c c _ ' =._.).v = : 8 3 2 ;.w.Y j l l 3 l Q Q :.w.:.:.w.I w :.t.|.:.Y w.:.8 3 l l :.e.w.l & # # s J.W.' ' W.W.` G ",
"` F W.J.L.).!.v = : 8 8 8 ;.:.:.U Y Y j I Y U :.:.Y I ;.I 8 U :.t.;.I w.:.w l R Q :.,.w.P - # # s J.W.J.J.W.!.J.G ",
"<XW.W.W.J.W.W.v = : 8 8 j Q U :.:.w.;.w l R Q Q P l U >.U 8 P U ;.Q Y :.Y w I t.w.;.Q w.Y - # # d J.W.W.W.' W.L.G ",
"'.W.J.W.J.J.J.v = : 8 j l Y I ;.;.w.Q 8 8 R w.Q n I :.w.I 8 Q R Q :.;.Y l 3 I e.w.;.U w.;.- # # s _ W.W.W.' ' ' G ",
"` ` J.W.W._ _ f = : w l l U U Q R Q I 3 w Y ;.R ;.:.;.Y w 2 ;.e.w.Q R Y w 2 l >.:.:.I w.:.2 # # 7 _ W.~.!.W._ F G ",
"F ` W.!.W.J._ p = : 8 l l P Y Q Y U l 8 I :.U P ;.;.I j 3 2 U t.w.I Y :.I 2 8 ;.:.:.I w.,.2 # % 4 / W.~.~.!.` C F ",
"C J.W.W.W.W._ 4 = - w l l I Y :.;.;.n 8 I :.Y I :.Q l w 3 - l t.w.Y ;.:.I 3 l w.w.>.I w.,.2 # % a F J.!.!.W._ _ F ",
"` ' W.W.W.' _ s % - w l h I Y Q Q Y l 8 I ;.I I w.;.l l 8 - I t.w.U Y ,.Y 2 l :.:.:.I w.:.2 # # d ` ' W.W.` ' J.  ",
"' J.J.W.J.F ` v % - 8 l l Y Y Y Y I l 3 n Q P I w.:.U l w 2 R t.w.P U :.I 2 8 Q Q :.I w.:.2 # # d J.W.J.J./ J.J.  "
};
