/* XPM */
static char *door_close[] = {
/* columns rows colors chars-per-pixel */
"57 64 216 2 ",
"   c None",
".  c #060706",
"X  c #070807",
"o  c #080807",
"O  c #070808",
"+  c #0A0B0A",
"@  c #110E0C",
"#  c #0F110E",
"$  c #12130D",
"%  c #19170B",
"&  c #1A1C0E",
"*  c #0F1310",
"=  c #111513",
"-  c #151916",
";  c #1B1D13",
":  c #161D19",
">  c #1A1E1A",
",  c #191510",
"<  c #221C13",
"1  c #1C231E",
"2  c #1D2013",
"3  c #242514",
"4  c #2C2C15",
"5  c #22251A",
"6  c #27291C",
"7  c #2A2C1C",
"8  c #282616",
"9  c #312C17",
"0  c #2D311E",
"q  c #2D3017",
"w  c #33351D",
"e  c #3C3D1F",
"r  c #36391C",
"t  c #1D2521",
"y  c #1F2924",
"u  c #222623",
"i  c #242B25",
"p  c #2B2D24",
"a  c #252E29",
"s  c #2B2F29",
"d  c #2C2721",
"f  c #312C22",
"g  c #273127",
"h  c #2C3124",
"j  c #26342D",
"k  c #2A332C",
"l  c #2E3C2F",
"z  c #313624",
"x  c #3C3623",
"c  c #353A26",
"v  c #3A3D25",
"b  c #32342D",
"n  c #353A2C",
"m  c #3A3D2A",
"M  c #2C3730",
"N  c #2C3B34",
"B  c #2D3F38",
"V  c #353631",
"C  c #383630",
"Z  c #333C33",
"A  c #3A3B33",
"S  c #3B3F38",
"D  c #363F39",
"F  c #403E25",
"G  c #413E37",
"H  c #3C4123",
"J  c #3D422A",
"K  c #2E4039",
"L  c #364035",
"P  c #3B4334",
"I  c #34433A",
"U  c #3B453B",
"Y  c #37483F",
"T  c #3C493F",
"R  c #3F4835",
"E  c #48451E",
"W  c #64551E",
"Q  c #72631C",
"!  c #454325",
"~  c #4C4325",
"^  c #4A4925",
"/  c #41452A",
"(  c #464A2C",
")  c #4C4C2E",
"_  c #434825",
"`  c #544B28",
"'  c #4D5024",
"]  c #4B512F",
"[  c #535522",
"{  c #54562C",
"}  c #58562B",
"|  c #5B5C2C",
" . c #5C5422",
".. c #424732",
"X. c #424933",
"o. c #4B4E33",
"O. c #42443D",
"+. c #49433C",
"@. c #414C3D",
"#. c #544D32",
"$. c #594D39",
"%. c #4C5233",
"&. c #44513E",
"*. c #4C543C",
"=. c #4D583F",
"-. c #535534",
";. c #555A34",
":. c #5A5D33",
">. c #53543B",
",. c #555B3D",
"<. c #5C5C3B",
"1. c #5F573E",
"2. c #625E2C",
"3. c #6A5E2D",
"4. c #665A26",
"5. c #6A5932",
"6. c #645E3B",
"7. c #5E612D",
"8. c #5E6234",
"9. c #5C633A",
"0. c #63632E",
"q. c #69662C",
"w. c #66692D",
"e. c #6C6C2D",
"r. c #72652C",
"t. c #746D2B",
"y. c #7B6C28",
"u. c #6F752F",
"i. c #7B732C",
"p. c #74782D",
"a. c #626534",
"s. c #6B6635",
"d. c #666931",
"f. c #6B6D34",
"g. c #62653A",
"h. c #6C643D",
"j. c #656A3A",
"k. c #6B6C3A",
"l. c #726D33",
"z. c #77683A",
"x. c #7C6E3A",
"c. c #746134",
"v. c #6E7033",
"b. c #6E723B",
"n. c #737334",
"m. c #7B7532",
"M. c #7C7936",
"N. c #74733B",
"B. c #7D7339",
"V. c #7D7B38",
"C. c #777836",
"Z. c #374840",
"A. c #3C4B41",
"S. c #4A4740",
"D. c #424D42",
"F. c #4E4D45",
"G. c #4B4B42",
"H. c #524D45",
"J. c #594F41",
"K. c #435245",
"L. c #495146",
"P. c #4A5345",
"I. c #4C5A45",
"U. c #455648",
"Y. c #4B5549",
"T. c #46594A",
"R. c #4B5B4C",
"E. c #545244",
"W. c #595345",
"Q. c #535D42",
"!. c #5D5C43",
"~. c #53544A",
"^. c #5B554B",
"/. c #545A4B",
"(. c #5A5A4E",
"). c #4C5F50",
"_. c #5C5F51",
"`. c #625C41",
"'. c #4F604D",
"]. c #5D6442",
"[. c #5B6844",
"{. c #55634A",
"}. c #5B634D",
"|. c #5A6546",
" X c #556652",
".X c #5B6353",
"XX c #5B6B50",
"oX c #6E6547",
"OX c #656C45",
"+X c #6B6B44",
"@X c #6A6D4A",
"#X c #666449",
"$X c #736C44",
"%X c #716947",
"&X c #697344",
"*X c #6F7449",
"=X c #7A7441",
"-X c #737544",
";X c #686555",
":X c #726652",
">X c #836F1F",
",X c #8B7B2D",
"<X c #857527",
"1X c #807332",
"2X c #857A32",
"3X c #8B7B34",
"4X c #817045",
"5X c #7C8033",
"6X c #8B832E",
"7X c #89882C",
"8X c #898729",
"9X c #928324",
"0X c #9A8D2E",
"qX c #878230",
"wX c #9B853B",
"eX c #A48C23",
/* pixels */
"                                                        i                                                         ",
"                                                1 i V +.O.s 1 >                                                   ",
"                                          t p V S S.(.(.(.H.O.C p u                                               ",
"                                    : i D S O.O.O.S.S.O.H.S.O.S.S.O.S k u                                         ",
"                              u p 1 : b S.D.U U T A.U D D.A.M A S.Y.L.O.i : 1 u >                                 ",
"                          u C +.J.G u b S.S.O.D.A.A.I I A.A.I U D.Y./.S.k u D O.V i >                             ",
"                      u k D S.(.;XW.k i G S.D.D.A.A.Z.Y I A.A.A.D.L./.O.i k D.L.D.A m x 3                         ",
"                    u k U D.L.Y.(.~.V t A H.S.A.A.A.I I I I I I D.D.L.D t k D.D.D.D.*.#.F x                       ",
"                  p m *.Q.D.A.K.L.~.A u V S.S.D.T Y I K M M M U A.I D i 1 D S.D.D.D.L.`.c.4.~                     ",
"                > c :.k.g.I.D.K.D.~.O.p b +.S.D.U I K K M j M I I j t : y U L.>.,.*.D.!.h.l.~ 6                   ",
"              5 1 z 2.m.l.j.I.K.D.~.D.k i A D.U I M B K K M M I M j t : a T ,.g.a.8.>.9.!.o.c i p p               ",
"            v _ v 5 v 0.i.n.].K.D.D.D 1 = i D M M M D I K B B M j a 1 = > b ( -.:.a.:.,.o.6 1 ( { v g             ",
"          b ) f.0.J i c :.l.j.U k u # + + - i g i g v m M M M M j a : + + + ; 0 / ;.;.X.6 - c 8.v.| ^             ",
"        7 ( a.v.u.a.P p g %.( 1 + + + + + + ; q 8 & & 2 : 1 t y i u = X X X X + > z J 6 - k &.j.f.f.} v           ",
"      t m a.n.v.f.j.Q.] g > = + + + + + X X X O X X O O O O O O O O X X X X X + + + : - H ;.L.,.g.].:.^ p         ",
"      p #.k.b.8.:.f.k.f.v + + + + + X X X X X X X X O X X O O O X X X X X X X X X O + 1 -.k.j.,./.R.9.3.`         ",
"    u _ s.b.f.-.-.f.e.| 3 # + O O X X X X X X X X X X X X X X X X X X X X X X X X X + $ _ v.f.a.I.Q.N.,X4.z       ",
"    p | k.+Xf.-.G J v 3 + + X X X X X X X X X X X X X X X X X X X X X X X X X X X X X + 1 R j.n.k.].N.,Xt...      ",
"    J g.$X+X,.P b p > + X X X X X X X X X X X X X X X X X X X X X X X X X X X X X X X X + 5 :.M.M.h.6.x.4XS.a     ",
"  m %.k.n.OX].-.m > + + X X X X X X X X X X X X X X X X X X X X X X X X X X X X X X X X X + ^ 1Xk.X.A E.;XR.M     ",
"  / a.k.k.OXN.p.' ; + + X X X X X X X X X X X X X X X X X X X X X X X X X X X X X X X X X X 3 2.].T V D. XR.U     ",
"  g X.*.,.k.qX7X[ - + X X X X X X X X X X X X X X X X X X X X X X X X X X X X X X X X X X X + c L.T m J &.D t =   ",
"c X...A A ) 0.w.e # + X X X X X X X X X X X X X X X X X X X X X X X X X X X X X X X X X X X X > I I p i i i 0 6   ",
"/ f.d.%...m c w ; + + X X X X X X X X X X X X X X X X X X X X X X X X X X X X X X X X X X X X + t i u g m ] e. .  ",
"o.N.&XOXj.,.) 4 # + X X X X X X X X X X X X X X X X X X X X X X X X X X X X X X X X X X X X X + ; e ( -.f.V.0X1X  ",
"E.OX XXX*X-XN.E # + X X X X X X X X X X X X X X X X X X X X X X X X X X X X X X X X X X X X X + 4 | k.b.M.6X0X1X  ",
"W.$XXX X}.@XN.^ # X X X X X X X X X X X X X X X X X X X X X X X X X X X X X X X X X X X X X X + 7 | v.N.V.6X6Xz.  ",
",.2X=X%X}. X+X_ # X X X X X X X X X X X X X X X X X X X X X X X X X X X X X X X X X X X X X X + 5 | M.k.l.6X3Xz.  ",
",.N.=X%X#X:X%XF + X X X X X X X X X X X X X X X X X X X X X X X X X X X X X X X X X X X X X X + 6 :.C.q.2.,XwX1X  ",
">.#X/.D.,.$XoXm + X X X X X X X X X X X X X X X X X X X X X X X X X X X X X X X X X X X X X X + 5 -.f.w.q.i.wXx.  ",
"L.}.&.L.,.!./.k + X X X X X X X X X X X X X X X X X X X X X X X X X X X X X X X X X X X X X X X 5 ( 0.f.v.t.<Xs.  ",
"8.f.w.-X1X,.D.k + X X X X X X X X X X X X X X X X X X X X X X X X X X X X X X X X X X X X X X X : m 7.n.n.p.r.%.  ",
"} | f.&X@X{.U.p + X X X X X X X X X X X X X X X X X X X X X X X X X X X X X X X X X X X X X X X = m 8.f.k.2Xi.J   ",
"_ :.}. X X}.*.7 X X X X X X X X X X X X X X X X X X X X X X X X X X X X X X X X X X X X X X X X = m 9.v.k.p.t.%.  ",
"P ;.[.{.(.6.{ 7 X X X X X X X X X X X X X X X X X X X X X X X X X X X X X X X X X X X X X X X X ; / 8.f.v.e.f.9.  ",
"D J ( P D b z > X X X X X X X X X X X X X X X X X X X X X X X X X X X X X X X X X X X X X X X X $ 7 w r H c m m   ",
"L D b k p a i = X X X X X X X X X X X X X X X X X X X X X X X X X X X X X X X X X X X X X X X X $ 3 9 9 7 p k p   ",
"D.K.@.L U *.o.5 X X X X X X X X X X X X X X X X X X X X X X X X X X X X X X X X X X X X X X X X < W >XQ 3.(.E.S.  ",
"T.{.b.;.>.k.v.r X X X X X X X X X X X X X X X X X X X X X X X X X X X X X X X X X X X X X X X X 8 y.eX9XN.(._.(.  ",
" X{.9.9.>.r.t.w X X X X X X X X X X X X X X X X X X X X X X X X X X X X X X X X X X X X X X X X 3 4.9X6X].D.K.L.D ",
"E.D.*.Q.W.5.5.s X X X X X X X X X X X X X X X X X X X X X X X X X X X X X X X X X X X X X X X X ; [ 8X6X[.U.A.T D ",
"p D g.N.#X1.$.d X X X X X X X X X X X X X X X X X X X X X X X X X X X X X X X X X X X X X X X X $ ' 7X7X&X).D.P D ",
"t D n.6Xj.L.O.5 X X X X X X X X X X X X X X X X X X X X X X X X X X X X X X X X X X X X X X X X # H p.5XOXR.D.U C ",
"M D 9.k.].K.I 1 X X X X X X X X X X X X X X X X X X X X X X X X X X X X X X X X X X X X X X X X = z ;.9.{.U.K.D.C ",
"Y A.A.T.K.A.A.i X X X X X X X X X X X X X X X X X X X X X X X X X X X X X X X X X X X X X X X X # g @.D.U.K.R.D.b ",
"Y K.T U.D.D.I.z X X X X X X X X X X X X X X X X X X X X X X X X X X X X X X X X X X X X X X X X + i @.K.K.Y.Y.T b ",
"Y T.K.K.K.U.I.g X X X X X X X X X X X X X X X X X X X X X X X X X X X X X X X X X X X X X X X X X t D.K.D./.L.U b ",
"T T.R.K.U.U.T 1 X X X X X X X X X X X X X X X X X X X X X X X X X X X X X X X X X X X X X X X X + k K.D.K.K.L.U b ",
"P K.K.R.K.T.I - X X X X X X X X X X X X X X X X X X X X X X X X X X X X X X X X X X X X X X X X ; D K.U.K.T K.U b ",
"I A.A.R.U.K.A.u X X X X X X X X X X X X X X X X X X X X X X X X X X X X X X X X X X X X X X X X % m K.R.R.K.U T b ",
"M M A.K.D.U L 1 X X X X X X X X X X X X X X X X X X X X X X X X X X X X X X X X X X X X X X X X + t M L I M j i   ",
"t t j a i y 1 = X X X X X X X X X X X X X X X X X X X X X X X X X X X X X X X X X X X X X X X X X = 1 1 1 1 : -   ",
"i i M I D D k - X X X X X X X X X X X X X X X X X X X X X X X X X X X X X X X X X X X X X X X X * t k D D D M M   ",
"M k T U.K.U I i O X X X X X X X X X X X X X X X X X X X X X X X X X X X X X X X X X X X X X X X - M U A.D.U A.D.A ",
"l k P K.A.T D.i O X X X X X X X X X X X X X X X X X X X X X X X X X X X X X X X X X X X X X X X - D A.A.T D.K.O.V ",
"g k U A.D.~.~.a X X X X X X X X X X X X X X X X X X X X X X X X X X X X X X X X X X X X X X X X - D K.T T U.K.U V ",
"U D K.A.D.~.~.a X X X X X X X X X X X X X X X X X X X X X X X X X X X X X X X X X X X X X X X X : U K.T A.K.T.A.A ",
";XK.U.K.A.K.K.a X X X X X X X X X X X X X X X X X X X X X X X X X X X X X X X X X X X X X X X X : I K.K.K.T K.D.A ",
"(.K.A.K.A.A.A.i O X X X X X X X X X X X X X X X X X X X X X X X X X X X X X X X X X X X X X X X > D K.T.K.T T A.A ",
"U U T K.K.A.T i + X X X X X X X X X X X X X X X X X X X X X X X X X X X X X X X X X X X X X X X - D K.T.T.K.T I A ",
"L U K.U.K.A.I y + X X X X X X X X X X X X X X X X X X X X X X X X X X X X X X X X X X X X X X X = D U.R.T.T.T M D ",
"M A.K.K.K.K.I t # O + X X X X X X X X X X X X X X X X X X X X X X X X X X X X X X X X X X X X + 1 M A.K.T.K.T Y D ",
"U T K.K.K.A.I i $ @ @ + O X X X X X X X X X X X X X X X X X X X X X X X X X X X X X X + + O O + i I T K.K.U T A.  ",
"T A.A.U.A.I U k # , 8 < + X X X X X X X X X X X X X X X X X X X X X X X X X X X X X O % < + + @ i T A.T A.I A.A.  "
};
