/* XPM */
static char *jump_plant[] = {
/* columns rows colors chars-per-pixel */
"64 64 162 2 ",
"   c None",
".  c #020501",
"X  c #050C03",
"o  c #071105",
"O  c #091406",
"+  c #0B1807",
"@  c #0C1C09",
"#  c #0F210C",
"$  c #11250E",
"%  c #12290F",
"&  c #0F2411",
"*  c #102611",
"=  c #132C13",
"-  c #112B1A",
";  c #173215",
":  c #14321C",
">  c #1A3A1A",
",  c #0D2C23",
"<  c #0B2D29",
"1  c #102F21",
"2  c #103122",
"3  c #1A3E25",
"4  c #11362B",
"5  c #143A2B",
"6  c #0F3733",
"7  c #123D34",
"8  c #1C401E",
"9  c #1D4422",
"0  c #1E492A",
"q  c #1F4E33",
"w  c #13433D",
"e  c #18463B",
"r  c #1B4C3B",
"t  c #214D2B",
"y  c #235433",
"u  c #20543D",
"i  c #245A3B",
"p  c #144640",
"a  c #154B45",
"s  c #184C42",
"d  c #164E49",
"f  c #17514B",
"g  c #1B544E",
"h  c #175057",
"j  c #185651",
"k  c #1B5B55",
"l  c #1D5D5B",
"z  c #205640",
"x  c #255E42",
"c  c #205B48",
"v  c #1F6055",
"b  c #1E625D",
"n  c #24624B",
"m  c #216252",
"M  c #256953",
"N  c #21655C",
"B  c #22685F",
"V  c #1C5D64",
"C  c #205B63",
"Z  c #1E6662",
"A  c #1E6B67",
"S  c #1E6069",
"D  c #1F6D6B",
"F  c #1E6B75",
"G  c #206662",
"H  c #216B66",
"J  c #226068",
"K  c #226D6A",
"L  c #24726D",
"P  c #236D75",
"I  c #247574",
"U  c #267975",
"Y  c #287A77",
"T  c #25777A",
"R  c #267B7B",
"E  c #297D7C",
"W  c #2A807F",
"Q  c #2A7984",
"!  c #278282",
"~  c #2A8383",
"^  c #27828D",
"/  c #29858B",
"(  c #2C8A8B",
")  c #2C8D93",
"_  c #2E8E99",
"`  c #308893",
"'  c #308F9C",
"]  c #2D9193",
"[  c #2D949A",
"{  c #2E9A9D",
"}  c #30929E",
"|  c #2E9CA3",
" . c #2E9FA9",
".. c #3195A1",
"X. c #309EA5",
"o. c #339EAB",
"O. c #2FA1A4",
"+. c #2FA2A9",
"@. c #2FA8AB",
"#. c #30A2A7",
"$. c #32A2AC",
"%. c #31AAAF",
"&. c #2DA5B5",
"*. c #2BA5B9",
"=. c #2EABBD",
"-. c #34A4B1",
";. c #33AAB4",
":. c #38A9B7",
">. c #30A7B8",
",. c #34ABBA",
"<. c #39ADBB",
"1. c #33B3BC",
"2. c #38B0BD",
"3. c #2EAEC1",
"4. c #31AFC2",
"5. c #2EB2C6",
"6. c #34B4C3",
"7. c #39B5C3",
"8. c #36BAC4",
"9. c #39B9C6",
"0. c #31B6CA",
"q. c #37BBCB",
"w. c #36B9C8",
"e. c #34BEC8",
"r. c #36BDCA",
"t. c #32BACE",
"y. c #33BDCE",
"u. c #37BDCD",
"i. c #34B9C9",
"p. c #3BB9C9",
"a. c #3ABBCA",
"s. c #38BDC9",
"d. c #39BCCA",
"f. c #39BECA",
"g. c #3BBDCC",
"h. c #3BBFCE",
"j. c #3EBFCE",
"k. c #36BED0",
"l. c #3AC0CA",
"z. c #39C2CB",
"x. c #39C1CC",
"c. c #3AC1CF",
"v. c #3AC0CC",
"b. c #3FC0CF",
"n. c #36C3D2",
"m. c #3AC5D0",
"M. c #39C5D2",
"N. c #3DC4D2",
"B. c #39C6D5",
"V. c #37C8D5",
"C. c #37C8DA",
"Z. c #38C8D9",
"A. c #3AC9D9",
"S. c #3CCBD9",
"D. c #3CCCDA",
"F. c #3ACDDE",
"G. c #38CCDC",
"H. c #3ECEDF",
"J. c #38CFE0",
"K. c #38D0E0",
"L. c #3FD5E5",
"P. c #41D0DF",
/* pixels */
"                                                                                                                                ",
"                                                                                                                                ",
"                                                                                                                                ",
"                                                                                                                                ",
"                                                                                                                                ",
"                                                                                                                                ",
"                                                                                                                                ",
"                                                                                                                                ",
"                                                                                                                                ",
"                                                                                                                                ",
"                                                                                                                                ",
"                                                                                                                                ",
"                                                                                                                                ",
"                                                                                                                                ",
"                                                                                                                                ",
"                                                                                                                                ",
"                                                                                                                                ",
"                                                                                                                                ",
"                                                    P ` ` Q         Q ` _ P                                                     ",
"                                      J Q ' ..P V _ -.:.:.:.o.Q Q $.:.:.2.,._ V P ..{ R C                                       ",
"                                    _ ..$.-.-.^ ^ ,.6.:.:.6.:.o.-.7.6.6.6.q.9._ _ -.-.o.} ^                                     ",
"                                S o.,.6.:.:.o.} -.4.=.>.,.,.$.~ ~ ,.6.6.=.3.k.6. .$.,.,.:.-.} h                                 ",
"                              F o.j.H.H.w.,.} ..:.*.*.*.=.3._ v v { q.5.3.=.5.q.,.| :.,.6.j.:.^ V                               ",
"                            V _ N.P.L.L.H.6.| -.6.=.,.=.3.6.R m m ~ q.q.0.6.5.n.q.*.-.7.7.j.l.:._                               ",
"                            P -.1.1.w.N.H.6.,.j.j.j.j.6.q.6.L M M U q.C.C.H.n.H.H.w.:.7.9.j.l.9.w.|                             ",
"                            _ | { { { :.1.6.9.l.l.l.l.q.q.7.H M M L l.L.H.H.N.l.N.j.,.6.1.1.1.:.1.| I                           ",
"                          P ] ] ] _ ] X. .1.q.w.1.1.6.6.w.:.N n n L n.V.q.1.%.+.:.1.,.*.:.O.{ { { { I                           ",
"                          R / _ _ / _ { { -.1.%.@.:.:.%.:.$.m x x B q.1.#.{ { { { $.X.{ X.] / ] ] ] ~                           ",
"                          ~ / / / / / ] ^ | %.O.O.+.O.O.#.{ c i i n $.$.{ ] ] ] ] { ] / { ] / / / / ~                           ",
"                        l ~ ^ / ~ ~ / / I ] #.O.O.| { { { / u y y z / { ] / / / _ { ^ T ] _ ~ ~ / / ^ V                         ",
"                        l E ~ ~ W ~ / R b ! { { { ] ] ] / I q t t q R ] / ~ ~ ~ ~ / I l ~ / ~ ~ ~ ~ ~ Z                         ",
"                        k I U U Y Y ~ K a L / / / / ( ~ ~ m 0 0 t 0 N ~ ~ E E E E E G w L ~ Y Y R R U l                         ",
"                        a Z H H H L R j 4 l R R R R R R K r 9 9 9 9 r L R I L L L L f 4 k R L H L I D a                         ",
"                          j b b b H H 7 - s Z K H H H G f 3 8 > > 8 3 f Z H G N N l e : w I H Z Z Z j                           ",
"                          6 d j l Z j 1 ; 4 f k k k k a 4 > > > > > > 4 a k k k f s 4 ; 1 k Z Z k f 6                           ",
"                            , 7 p w   * ; : 7 w a p 7 2 * ; ; ; ; ; ; * 2 7 p a w 4 : ; #   a d w <                             ",
"                                      $ * * * 2 , , - * * * * * * * * * * - , , 2 * * * #                                       ",
"                                      + $ * * * & & $ % * $ * * * $ $ % % $ * * * * * $ +                                       ",
"                                      O + $ $ $ $ $ # + + # $ $ $ $ # # # $ $ $ $ $ $ + O                                       ",
"                                        + + + + + # + + + + + + + + + + + + # # + + + +                                         ",
"                                        O + + + + + + + + + + + + + + + + + + + + + + O                                         ",
"                                        X o O O O O O O O O O O O O O O O O O O O O O X                                         ",
"                                          X o o X X X X X X X X X X X X X X X X o o X                                           ",
"                                            X X X X X X X X X X X X X X X X X X X X                                             ",
"                                                X X X X X X X X X X X X X X X X                                                 ",
"                                                            . . .                                                               ",
"                                                                                                                                ",
"                                                                                                                                ",
"                                                                                                                                ",
"                                                                                                                                ",
"                                                                                                                                ",
"                                                                                                                                ",
"                                                                                                                                ",
"                                                                                                                                ",
"                                                                                                                                ",
"                                                                                                                                ",
"                                                                                                                                ",
"                                                                                                                                ",
"                                                                                                                                ",
"                                                                                                                                ",
"                                                                                                                                ",
"                                                                                                                                ",
"                                                                                                                                ",
"                                                                                                                                "
};
