/* XPM */
static char *plant_02[] = {
/* columns rows colors chars-per-pixel */
"64 64 165 2 ",
"   c None",
".  c #000200",
"X  c #040B03",
"o  c #061105",
"O  c #091406",
"+  c #0A1708",
"@  c #0C1C0A",
"#  c #0E220C",
"$  c #0F290F",
"%  c #11240D",
"&  c #14290F",
"*  c #142C10",
"=  c #182E11",
"-  c #153414",
";  c #1A3314",
":  c #163A16",
">  c #1C3A16",
",  c #193E18",
"<  c #203C17",
"1  c #213E18",
"2  c #1C431B",
"3  c #1F4A1E",
"4  c #24441A",
"5  c #24491D",
"6  c #294D1E",
"7  c #214E20",
"8  c #255423",
"9  c #2E5422",
"0  c #275B27",
"q  c #2B5D26",
"w  c #305723",
"e  c #335C25",
"r  c #345D29",
"t  c #2C6027",
"y  c #2D652B",
"u  c #2E682D",
"i  c #336227",
"p  c #386327",
"a  c #376429",
"s  c #39652A",
"d  c #316D2E",
"f  c #3A6B2B",
"g  c #3D712D",
"h  c #316F31",
"j  c #3D6D30",
"k  c #347333",
"l  c #3E7430",
"z  c #387E37",
"x  c #3B743B",
"c  c #397C39",
"v  c #466A3C",
"b  c #417531",
"n  c #447C34",
"m  c #4A743F",
"M  c #467C38",
"N  c #497E3C",
"B  c #4C7541",
"V  c #398037",
"C  c #3D843C",
"Z  c #3E883B",
"A  c #478135",
"S  c #498336",
"D  c #40863F",
"F  c #4B843A",
"G  c #408C3F",
"H  c #4D8B3A",
"J  c #508D3E",
"K  c #51913E",
"L  c #408440",
"P  c #4C844C",
"I  c #4D8B4D",
"U  c #518543",
"Y  c #56854A",
"T  c #5B8F4E",
"R  c #459443",
"E  c #489247",
"W  c #489A47",
"Q  c #4C954C",
"!  c #4B9E49",
"~  c #559342",
"^  c #589646",
"/  c #559940",
"(  c #599A45",
")  c #5B924C",
"_  c #5D9C4A",
"`  c #5D8C50",
"'  c #559555",
"]  c #549C54",
"[  c #5F9A50",
"{  c #589758",
"}  c #5A9B5A",
"|  c #609E4F",
" . c #629454",
".. c #639C53",
"X. c #679A5A",
"o. c #6A9E5C",
"O. c #4DA14C",
"+. c #5CA246",
"@. c #50A64E",
"#. c #5EA04A",
"$. c #53A652",
"%. c #55AA55",
"&. c #5DA35D",
"*. c #59AE58",
"=. c #58B157",
"-. c #5CB45B",
";. c #61A44D",
":. c #62A94C",
">. c #65A454",
",. c #66AA52",
"<. c #68AE54",
"1. c #6AA55B",
"2. c #6CAB5B",
"3. c #6BB455",
"4. c #6EB25B",
"5. c #60B85E",
"6. c #6FBA5A",
"7. c #71B55E",
"8. c #72BA5E",
"9. c #61A762",
"0. c #63AC64",
"q. c #6FA960",
"w. c #70A761",
"e. c #75AE65",
"r. c #66B566",
"t. c #64BB63",
"y. c #6BB76B",
"u. c #6BBA6A",
"i. c #74B561",
"p. c #79B767",
"a. c #75B962",
"s. c #79BC66",
"d. c #7AB569",
"f. c #7DBB6B",
"g. c #67C066",
"h. c #6FC26E",
"j. c #6CC16B",
"k. c #75C260",
"l. c #77C362",
"z. c #79C164",
"x. c #7AC466",
"c. c #7BC966",
"v. c #71C46F",
"b. c #7EC26B",
"n. c #7FC56B",
"m. c #7CC76A",
"M. c #7ECA6B",
"N. c #7FCE69",
"B. c #71C371",
"V. c #72C572",
"C. c #73C673",
"Z. c #74C773",
"A. c #75C874",
"S. c #76C975",
"D. c #76CA76",
"F. c #77CB77",
"G. c #79CD79",
"H. c #80BD6F",
"J. c #82C86E",
"K. c #82C071",
"L. c #85C671",
"P. c #85C473",
"I. c #86C774",
"U. c #87CB74",
"Y. c #89CD76",
/* pixels */
"                                                                                                                                ",
"                                                                                                                                ",
"                                                                                                                                ",
"                                                                                                                                ",
"                                                                                                                                ",
"                                                                                                                                ",
"                                                                                                                                ",
"                                                                                                                                ",
"                                                                                                                                ",
"                                                                                                                                ",
"                                                                                                                                ",
"                                                                                                                                ",
"                                                                                                                                ",
"                                                                                                } '                             ",
"                                                                                              0.G.u.                            ",
"                                                  ) [                       o.X. .          { C.D.9.                            ",
"                                          v     ..M.m.                    ` d.L.f.          u.D.C.P                             ",
"                                        Y 1.B m 8.M.x.                    w.L.L.f.        } D.D.0.                              ",
"                                        T i.[ ) l.c.8.                    m.U.H.e.        0.D.v.P                               ",
"                                        ..a.2.>.l.l.<.                   .f.Y.e. .        u.v.r.                                ",
"                                        ..a.4.,.8.8.;.                  2.f.L.d.        ' g.u.&.                                ",
"                          I P           2.a.2.>.6.3._                 ) a.J.p.          ] t.t.I                                 ",
"                        I 0.&.          >.7.,.;.3.,.~                 1.s.m...          $.t.t.                                  ",
"                        } D.u.        M #.3.#.#.3.:.~                 i.s.i. .          %.=.*.                                  ",
"                        0.D.y.        J #.,.~ ( ,.#.~               | 4.a._           L %.%.O.                                  ",
"                        0.D.y.        ~ ( _ F ~ :.( K             N ,.4.,.U           c $.@.W                           ..`     ",
"                        0.C.y.        J ~ J f M +.~ H             ~ ;.,.)             V ! ! V   &.0.                  2.i.q.    ",
"                        &.g.u.      f S H M i M / K H           f ~ _ ^               V R R x 9.D.C.P               >.7.s.T     ",
"                        Q g.t.I     l M S f     K H H           M J ~ M               V Z V I C.C.0.              ..2.x.2.m     ",
"                        G t.5.O.    g M M e   H H H H           M F H s             y z c V 0.C.y.              _ ,.8.4...      ",
"                          $.=.$.    g g g     M A S S         e b M b               u k k D u.g.&.          f F ;.<.<.>.        ",
"                          R $.$.    f f a     M M M M         r f b a             8 u y k Q g.t.I         l F ( #.;.;.          ",
"                          V W W k 5 e i e     l g g g         e p f 9             8 0 0 d O.5.=.        g A H K ~ ~             ",
"                          d G G k 5 w e 9     f f f f         w e a             2 8 8 8 y O.=.$.      d M A H S M               ",
"                            V V d 4 9 9 6     s s s a       , 9 6 9           2 2 3 3 5 y O.@.E     e f g M b g                 ",
"                            k d y 4 6 6 6     a a e e       1 6 6 6           > 2 2 2 2 k R R c   6 e s f f f                   ",
"                            y t 0 > 5 4 5     9 e w 9       > 4 4 4         - : > , , 3 z V V   > 9 e i i i                     ",
"                            0 8 8 ; 4 4 4   4 6 9 6 6       ; > > >         - - - : 2 8 k k h   4 9 e 0 0                       ",
"                          , 8 7 2 * < < 1 ; > 6 6 6 4       * ; ; ;       # $ * * - 2 0 y y 3 > 6 6 9 5                         ",
"                          : 2 2 , & ; ; > * ; 4 5 4 4       % & * &       @ @ # % - 3 8 0 7 * 1 4 6 6 1                         ",
"                          : , : :   ; ; ; * ; 1 4 1 >     @ % % & @       O + @ % > 2 3 7 2 * 4 4 4 4                           ",
"                          - - - -   = & & * ; > > ; -     + @ @ @ @     X o O + * > > , -   ; > > 1                             ",
"                          * * & @   @ % % % * ; ; * &     O O O O       X X o @ * - - - % # ; ; > =                             ",
"                          # # @ +   + @ % % % * * % %     O O O O       X X X @ # # &     & & & ; %                             ",
"                          O O O O   + + O O @ % % @ +     X X X X       X X X o O @ #     % % & %                               ",
"                          o o o o   O O O O O @ % @ +   . X . X X     . . . . X X o o   + @ @ % @                               ",
"                          X X X X   X X X X O O O O O   . . . .       . . . . X X X X X O O + +                                 ",
"                          . . . .   X X X X X O O O O   . . . .       . . . . . . X . X o O O O                                 ",
"                            . . . . X X X X X X X X X . . . . .     . . . . . . . . X X X X X                                   ",
"                            . . . . . . . . X X X X X . . . . .     . . . . . . . . X . X X                                     ",
"                            . . . . . . . . . . . . . . . . . .     . . . . . . . . . . . .                                     ",
"                            . . . . . . . . . . . . . . . . . .     . . . . . . . . . . .                                       ",
"                            . . . .   . . . . . . . . . . . .       . . . . . . . . . . .                                       ",
"                            . . .       . . . . . . . . . . .       . . . .     . . . .                                         ",
"                                                                                                                                ",
"                                                                                                                                ",
"                                                                                                                                ",
"                                                                                                                                ",
"                                                                                                                                ",
"                                                                                                                                ",
"                                                                                                                                ",
"                                                                                                                                ",
"                                                                                                                                ",
"                                                                                                                                "
};
