/* XPM */
static char *plant_01[] = {
/* columns rows colors chars-per-pixel */
"64 64 168 2 ",
"   c None",
".  c #000200",
"X  c #040B03",
"o  c #061106",
"O  c #091607",
"+  c #0B1807",
"@  c #091708",
"#  c #0C1B09",
"$  c #101F0B",
"%  c #0D210C",
"&  c #12230C",
"*  c #15290F",
"=  c #162C10",
"-  c #182F11",
";  c #163213",
":  c #1A3313",
">  c #173916",
",  c #1C3A16",
"<  c #1A3F19",
"1  c #203E17",
"2  c #203E18",
"3  c #1D431B",
"4  c #1F491E",
"5  c #22421A",
"6  c #254A1E",
"7  c #294D1E",
"8  c #2C511F",
"9  c #214D20",
"0  c #2B4E21",
"q  c #245422",
"w  c #2D5422",
"e  c #275926",
"r  c #2D5C25",
"t  c #2C5F29",
"y  c #305724",
"u  c #315B25",
"i  c #2D642C",
"p  c #2E682D",
"a  c #356226",
"s  c #356329",
"d  c #386629",
"f  c #326C2D",
"g  c #3B6B2C",
"h  c #3E722E",
"j  c #316A31",
"k  c #347332",
"l  c #3D7332",
"z  c #377935",
"x  c #387E36",
"c  c #387739",
"v  c #3B7B3A",
"b  c #40732E",
"n  c #426939",
"m  c #427534",
"M  c #457D36",
"N  c #457738",
"B  c #4A723F",
"V  c #457838",
"C  c #4A7D3D",
"Z  c #447445",
"A  c #4C7441",
"S  c #417E41",
"D  c #4D7B40",
"F  c #537F47",
"G  c #527B48",
"H  c #3A8339",
"J  c #3F8C3D",
"K  c #468036",
"L  c #488137",
"P  c #40823F",
"I  c #4B843B",
"U  c #418E3E",
"Y  c #4E8B3C",
"T  c #508E3D",
"R  c #52923F",
"E  c #438543",
"W  c #448C44",
"Q  c #4F8A40",
"!  c #4D854E",
"~  c #528F42",
"^  c #578C49",
"/  c #5B8F4D",
"(  c #469444",
")  c #479846",
"_  c #4B934C",
"`  c #4C9C4B",
"'  c #559442",
"]  c #589747",
"[  c #569A42",
"{  c #599C45",
"}  c #5C944D",
"|  c #5C9D4B",
" . c #518C52",
".. c #559455",
"X. c #5E9150",
"o. c #559D55",
"O. c #59995A",
"+. c #619453",
"@. c #639A54",
"#. c #679E59",
"$. c #4EA34C",
"%. c #50A34F",
"&. c #5EA14B",
"*. c #55A355",
"=. c #54AB53",
"-. c #5CA35D",
";. c #5CAA5B",
":. c #57B056",
">. c #5BB55B",
",. c #5EB85E",
"<. c #60A44C",
"1. c #62A84F",
"2. c #64A553",
"3. c #65AC50",
"4. c #69AE56",
"5. c #6BA45B",
"6. c #6CAB5B",
"7. c #6AB255",
"8. c #6DBA57",
"9. c #60B45F",
"0. c #6EB35A",
"q. c #6EB959",
"w. c #71B45E",
"e. c #71B95D",
"r. c #5FA460",
"t. c #61A661",
"y. c #63AC63",
"u. c #70AB61",
"i. c #65B265",
"p. c #65BB64",
"a. c #68BF67",
"s. c #67B368",
"d. c #68B668",
"f. c #6BBA6B",
"g. c #75B264",
"h. c #78B666",
"j. c #74BA61",
"k. c #79BD65",
"l. c #7CBB6B",
"z. c #6FBE70",
"x. c #73C15E",
"c. c #67C066",
"v. c #68C067",
"b. c #6BC46A",
"n. c #6FC26E",
"m. c #6BC26A",
"M. c #76C163",
"N. c #79C763",
"B. c #7CCB66",
"V. c #70C46F",
"C. c #7EC26A",
"Z. c #7CC76A",
"A. c #70C171",
"S. c #71C470",
"D. c #73C773",
"F. c #74C774",
"G. c #72C871",
"H. c #76CB75",
"J. c #76CC75",
"K. c #81C36D",
"L. c #82C46E",
"P. c #81CE6B",
"I. c #81D06C",
"U. c #85C872",
"Y. c #87CA75",
"T. c #89CC77",
"R. c #8BCF79",
"E. c #8CD07A",
/* pixels */
"                                                                                                                                ",
"                                                                                                                                ",
"                                                                                                                                ",
"                                                                                                                                ",
"                                                                                                                                ",
"                                                                                                                                ",
"                                                                                                                                ",
"                                                                                                                                ",
"                                                                                                                                ",
"                                                                                                                                ",
"                                                                                                                                ",
"                                                                            ..t.d.                                              ",
"                                                                            f.G.y.!                                             ",
"                                                                          ! y.G.y.!                                             ",
"                                                              #.l.G       O.f.G.-.Z                                             ",
"                                      n ^                     l.R.5.      -.f.D.D.                                              ",
"                                      2.Z.6.                  l.E.g.      -.f.D.f.                                              ",
"                          #.F         j.P.w.                  l.T.g.      -.f.V.f.                                              ",
"                          g.u.B       M.I.e.                  l.U.g.      -.d.m.o.                                              ",
"                          5.l.@.      M.B.q.                  K.U.u.      o.d.m.*.S                                             ",
"                          / k.w.D     e.N.q.                / K.K.#.      _ ;.v.*.E                       A                     ",
"                            e.j.^     7.x.q.                @.Z.Z.X.      W *.p.*.W                       5.+.                  ",
"               .            7.w.|     1.7.8.]               5.k.k.        v ` >.*._                       h.5.                  ",
"             .t.d.          2.4.&.    ] 3.8.]             C q.j.6.        k ( :.%.E Z                   } g.6.                  ",
"            y.D.f.r.        | 3.&.    I &.3.{             C 7.q.|           ( $.` W O.y.                6.j.5.                  ",
"            y.f.D.d.        ] &.|       { <.{             ~ 3.3.Q           ) ) ( *.D.f.!               q.j.}                   ",
"            ..d.G.p.        Y ] ]       { { { Y           ] <.&.C           W J W ;.G.f.!             } 4.q.}                   ",
"              t.D.d.o.      I T I a     I R [ L g         ] ] ]             H x E y.G.m.            M &.7.<.                    ",
"              y.d.m.p.      V I M u     N I R I V         Y Y I             k k E y.V.f.            ] &.<.~                     ",
"                -.c.9.o.    h M N u     s M Y I M         M M N           9 i p v ;.a.p.          M R { ~                       ",
"                  ;.,.*.v   d b h r       M M M M       u N l g           q t r l *.p.s.        u I Y T N                       ",
"                  ( =.=.`   u g g r       N V V N       u g g s           q r q j ` ,.>.        l M K M                         ",
"                    ) $.( i 7 s a r       g h N d w     w a d u           q q q i W :.$.x     w N N N                           ",
"                    v ( U k 5 u u r       s g g s w     7 u u w         > 4 9 7 w v $.( c     a g h d                           ",
"                      H H k 3 w w r       r s g u w     7 7 7 0         > 3 3 3 9 k ( J j   7 a a d                             ",
"                      f k s 9 7 7 w 7     w u a u w     5 7 7 7         > > > > 4 j H z t   7 u a u                             ",
"                      e f r q 5 7 7 7     0 y u w 0     > 5 5 5         > > > > 7 p f f     8 w r 5                             ",
"                      q r q 9 : 7 5 7 :   7 w w 7 7     : : : >       % = ; ; ; 9 i r t   2 7 7 w                               ",
"                        q 7 3 * 5 1 5 :   7 7 7 7 7     * : : :       # & & & ; 9 r q q   1 7 7 7                               ",
"                        4 3 3 & : > > :   5 7 7 5 5     & & * =       # # # % ; 4 7 4 3   1 5 7 2                               ",
"                        < < > % * : - : & : 5 5 5 >     # & & &       @ @ O % ; < 3 3   - > > 5 :                               ",
"                        > : ; % & - * * & * : > > :     # # # #       o o o & : ; > :   = : : >                                 ",
"                        ; = * %   & & & & * : : : :     o o o @       o o o % * = ;     - : : :                                 ",
"                        % % % #   & & & # & = = = =     o o o o       X X X # % % %     * * * =                                 ",
"                        # # # @   # # # # # & & & &     X X X X       X . X X O # #   # & & & &                                 ",
"                        o o o o   o o o o @ # & # $     X . X .     . . . . X X o o   O # # &                                   ",
"                          X X X     o X o o @ O O #   . . . . .     . . . . . . X X   o o O #                                   ",
"                          X . . .   X X X X X o o X . . . . .       . . . . . . . . X X X o X                                   ",
"                          . . . .   X X X X X X X X X . . . .       . . . . . . . . X X X X                                     ",
"                          . . . . . . . . . X X X X X . . . .       . . . . . . . . . . X X                                     ",
"                          . . . . . . . . . . . . . . . . . .     . . . . . . . . . . . .                                       ",
"                          . . . . . . . . . . . . . . . . . .     . . . . . . . . . . . .                                       ",
"                            . . .     . . . . . . . . . . . .     . . . . . . . . . . .                                         ",
"                            . . .       . . . . . . . . . . .       . . . .     . . . .                                         ",
"                                                                                                                                ",
"                                                                                                                                ",
"                                                                                                                                ",
"                                                                                                                                ",
"                                                                                                                                ",
"                                                                                                                                ",
"                                                                                                                                ",
"                                                                                                                                ",
"                                                                                                                                ",
"                                                                                                                                "
};
