/* XPM */
static char *wall[] = {
/* columns rows colors chars-per-pixel */
"64 64 162 2 ",
"   c #040501",
".  c #070902",
"X  c #0B0D03",
"o  c #0E1105",
"O  c #121406",
"+  c #151807",
"@  c #131608",
"#  c #16190A",
"$  c #1A1D0C",
"%  c #1E210E",
"&  c #1F2310",
"*  c #21250F",
"=  c #222611",
"-  c #262A13",
";  c #292E15",
":  c #292D18",
">  c #2C3117",
",  c #2E3318",
"<  c #31361A",
"1  c #34391D",
"2  c #34391C",
"3  c #343A1C",
"4  c #353A1C",
"5  c #353B1C",
"6  c #353A1D",
"7  c #353B1D",
"8  c #363B1C",
"9  c #363C1C",
"0  c #363D1C",
"q  c #363C1D",
"w  c #373C1D",
"e  c #363D1D",
"r  c #373D1D",
"t  c #363C1E",
"y  c #373D1E",
"u  c #353A1C",
"i  c #383D1D",
"p  c #383D1E",
"a  c #383D1F",
"s  c #383E1E",
"d  c #393F1E",
"f  c #383E1F",
"g  c #393F1F",
"h  c #3A3F1F",
"j  c #383E1E",
"k  c #363C20",
"l  c #393F20",
"z  c #3A401E",
"x  c #3A411E",
"c  c #3A401F",
"v  c #3A411F",
"b  c #3B411F",
"n  c #3B421F",
"m  c #3C421F",
"M  c #3C431F",
"N  c #3A411F",
"B  c #3A4020",
"V  c #3A4120",
"C  c #3B4120",
"Z  c #3A4021",
"A  c #3B4220",
"S  c #3C4220",
"D  c #3C4320",
"F  c #3C4221",
"G  c #3C4321",
"H  c #3D4321",
"J  c #3C4222",
"K  c #3D4322",
"L  c #3D4420",
"P  c #3D4421",
"I  c #3E4421",
"U  c #3E4521",
"Y  c #3F4521",
"T  c #3F4621",
"R  c #3D4422",
"E  c #3D4423",
"W  c #3E4422",
"Q  c #3E4522",
"!  c #3F4522",
"~  c #3F4523",
"^  c #3F4622",
"/  c #3F4722",
"(  c #3F4623",
")  c #3F4624",
"_  c #3D4421",
"`  c #404622",
"'  c #404722",
"]  c #404623",
"[  c #404723",
"{  c #404724",
"}  c #404723",
"|  c #404822",
" . c #414823",
".. c #424923",
"X. c #414824",
"o. c #414825",
"O. c #424824",
"+. c #424924",
"@. c #434924",
"#. c #424925",
"$. c #434A24",
"%. c #434A25",
"&. c #434A26",
"*. c #444A25",
"=. c #444B25",
"-. c #444A26",
";. c #444B26",
":. c #454B26",
">. c #444B27",
",. c #444C25",
"<. c #454C25",
"1. c #444C26",
"2. c #454C26",
"3. c #454D26",
"4. c #454C27",
"5. c #454D27",
"6. c #464C26",
"7. c #464D26",
"8. c #464D27",
"9. c #464E26",
"0. c #464E27",
"q. c #474E27",
"w. c #474F27",
"e. c #444B25",
"r. c #484E27",
"t. c #484F27",
"y. c #484F27",
"u. c #424628",
"i. c #464D28",
"p. c #474E28",
"a. c #474F28",
"s. c #474E28",
"d. c #484F28",
"f. c #484F29",
"g. c #484F28",
"h. c #485028",
"j. c #495028",
"k. c #485029",
"l. c #495029",
"z. c #495129",
"x. c #4A5129",
"c. c #4A5229",
"v. c #4B5229",
"b. c #4A512A",
"n. c #4A522A",
"m. c #4B522A",
"M. c #4B532A",
"N. c #4B532B",
"B. c #4C532B",
"V. c #4C542A",
"C. c #4C542B",
"Z. c #4D552B",
"A. c #4D552C",
"S. c #4E552C",
"D. c #4E562D",
"F. c #4B522A",
"G. c #50572D",
"H. c #51592F",
"J. c #50582F",
"K. c #545C31",
"L. c #535B31",
"P. c #586034",
/* pixels */
"< < z @.L L L < # @ , 2 - < 2 @.h.h.[ 2 z > ; L h.p.p.L ; h.p < % # = $ $ # O O # $ % $ # O < < , L @.[ < , L L < 2 @.d.L = - @.",
"z 2 z @.p p @., = 2 L < p L z < L 2 @.L L 2 > 2 @.h.h.L ; @.< ; = L < $ O O O # $ $ $ $ # @ z z 2 @.@.@.@., , [ L 2 [ @.2 = p 2 ",
"L @.L L 2 2 @., = 2 2 L L L @.< L z @.@.[ L [ 2 2 h.K.L $ - @ % L L ; O . O # $ O @ $ $ O @ L @.2 d.d.@.@.L 2 , = = - = - 2 2 z ",
"h.h.@.[ z 2 [ < & , L @.[ @.L p L @.h.h.@.L @.h.L , ; - , ; @ = < ; - O . . O O o O $ O . @ @.L z @.@.h.d.@.@.2 ; > ; = , 2 < z ",
"h.h.d.@.2 , L , - 2 2 @.@.L 2 2 @.h.h.h.@.L @.h.@.2 > ; @.2 & = 2 ; > O @ % - - = % % $ % ; [ @.L L @.h.d.d.@.z L @.< * ; < < 2 ",
"h.h.h.h.2 p L ; , 2 < L z L > < [ h.h.d.[ L L @.d.L < 2 h.L = ; z > > $ < L @.@.@.z 2 L L [ 2 2 2 L @.[ @.h.@.L @.@.> % , L 2 p ",
"@.L p 2 < @.2 = , 2 , L L 2 > L @.h.h.@.[ L @.@.L 2 2 [ @.@.= ; [ > , = , L @.h.h.@.z @.@.@.< - 2 2 2 [ @.h.h.@.h.[ ; = 2 L L @.",
"@.L 2 p L L ; & , < , 2 2 < p p L L L @.@.@.[ 2 ; 2 d.@.@.p.- p @.> < < , 2 @.h.h.@.p L p.@.> = [ L L @.h.h.h.h.@.p , = < @.@.h.",
"r.@.@.@.@.L = # - , - ; < L @.< < , 2 @.@.h.L - & , p > < < < @.p ; , L L 2 2 [ [ z 2 L h.@.; = @.h.h.h.h.@.@.[ 2 2 2 = 2 h.@.@.",
"h.@.p.@.[ 2 - - ; - ; 2 L h.h.2 2 L @.@.@.h.@.; & $ $ % ; ; @.L , - , p @.L ; ; , , < p @.[ , - @.h.H.h.d.L 2 2 2 z 2 - 2 h.@.@.",
"L z L l p ; 2 @.< = < @.@.h.p.2 L d.h.@.@.h.@.- $ $ & , d.@.@.z 2 , 2 p L L < - ; 2 2 p L L 2 = [ d.h.h.h.L p 2 2 z 2 = > L L @.",
"- = - ; - p @.L 2 < - 2 h.h.@.2 @.@.@.[ @.@., $ # % - < @.@.@.L L 2 @.@.2 2 @.[ 2 < 2 2 L L , % p.h.h.h.h.h.p.L 2 L 2 & = ; - - ",
"2 2 < < @.h.@.@.h.p.< , L [ z , L p p p.@.> $ $ $ = - < @.d.@.L p.2 L [ p @.h.h.L > > z 2 2 - $ @.h.h.h.h.@.L L @.@.2 > 2 2 2 > ",
"h.L L @.p.L @.h.h.h.@.z ; = # % = = , < = $ % $ # - < p h.h.p.@.@.L L @.h.[ @.@.h.[ < 2 @.L - & , p L L p < < 2 2 , 2 d.@.@.L @.",
"z 2 z [ h.h.@.@.h.@.@.@., - > < > > < > $ $ $ % % ; @.d.@.[ p.@.@.p.@.@.@.2 p @.@.[ 2 ; = % > @.; - ; ; = = = = $ - @.[ @.@.L 2 ",
"< L L @.h.h.h.h.@.@.h.@.L @.z L @.h.@.< % $ $ $ % ; L @.@.p.h.h.h.h.h.h.p < p L p L L ; = L d.@.L h.h.h.p.p.h.h.2 , p.h.H.h.@.L ",
"L 2 @.h.d.h.h.h.h.H.h.< < 2 L @.p.@.2 - $ $ $ # # - L d.h.p.h.h.h.d.h.h.h.p L L L L L > - @.L h.2 [ h.h.p z L @.2 , h.K.H.h.L @.",
"L 2 @.h.d.p.d.d.@.L L l L L 2 @.@.2 , , $ $ = % % < h.h.h.h.p.h.h.h.h.h.h.z [ h.L L L ; > h.h.h.2 @.h.h.@.L 2 z > ; h.h.L [ h.p.",
"< [ p L L 2 L @.L l L L L @.2 @.L 2 [ 2 $ $ % % % , L L @.h.h.h.d.h.h.h.h.@.@.@.L p.@.> , H.[ L L @.d.d.p 2 L @.> = < ; - - , , ",
"@.[ , < 2 p L L L @.@.L L L , 2 2 L L z - & = & # = @.h.@.h.h.h.h.H.K.h.@.@.h.h.h.p.2 < @.[ 2 L @.@.h.h.p , L h.2 = , ; , , p z ",
"@.L , < 2 @.L L h.h.h.@.z 2 L L z L L @.[ > - - $ - @.h.h.h.h.h.h.K.h.@.p @.h.h.@.2 k h.p.@.L @.h.p.h.h.2 2 @.@.> $ - , L 2 @.2 ",
"@.2 < p 2 2 2 L @.h.h.p.2 2 @.L L @.@.d.@.- = ; = ; @.@.@.h.@.L @.L @.[ > 2 @.h.p = 2 h.@.@.@.h.h.h.L L @.p > - $ # - < p z @.< ",
"2 > 2 2 < p L L @.h.h.@.2 , p L 2 L L @.z $ @ * - ; 2 2 L @.@.p 2 2 p 2 ; 2 @.@.p = , @.@.@.h.h.h.@.2 z L 2 2 2 , = - < [ @.L p ",
"< < z p 2 L @.@.h.h.@., % = - - - ; - ; - - - * % = ; < @.@.L @.< 2 p 2 2 z L @.L - , r.[ h.h.@.p.L L 2 - 2 p.@.2 ; ; ; [ @.2 2 ",
"L L z L L L @.h.h.@.2 , , 2 2 < , < < 2 = < 2 , = $ - p d.@.L L < < p L @.L p L 2 - > L 2 L @.@.[ L @.2 = p h.z - ; , = 2 L < , ",
"L @.@.@.h.[ @.d.@.2 2 @.d.@.@.@.z @.@.@.- - 2 2 < - > L @.L z < < < 2 L @.[ p z < = = - % ; p @.@.@.p.2 - L @.2 ; , > % , , 2 < ",
"2 L L [ @.p 2 p < 2 h.@.p > , > < 2 < 2 % ; L 2 z [ < < L 2 z < < 2 L d.@.L L z > % $ $ % % 2 [ h.d.@.2 - L @.2 2 L 2 $ - ; 2 < ",
"= = > , ; = ; - > h.h.L z - > ; < < 2 2 , L [ 2 z @.@.> - < L 2 2 z @.@.L z 2 < > % # = ; = z @.h.d.h.2 = L @.L L @.2 $ = = = ; ",
"% ; ; = = - , ; 2 h.@.h.[ ; < L 2 L 2 ; @.@.p L @.h.h.L - - p L @.L 2 2 < , - - = # # % % % 2 L @.@.@.2 = 2 @.@.@.@.2 % % % = * ",
"= ; - = - 2 2 - 2 @.L @.L = < 2 [ L - L h.L z @.h.h.@.@.2 = > p L z - 2 < - & = - - = % # $ @.L L @.2 - % L h.h.@.@.p % % % % ; ",
"= = ; > < < ; = , p < < , ; 2 , L ; L @.2 [ d.h.h.@.z L L p > - @.L 2 p ; 2 2 p @.L - $ # $ , , 2 z z , % 2 @.@.@.L ; - < , % - ",
"; ; > ; , , > - ; p 2 < 2 @.L < - @.p.< < @.h.h.h.L 2 L L @.z - > z < - L p > 2 L L , # ; L , $ = : > * & L @.@.h.p = 2 2 > # % ",
"* * * = , < 2 ; , @.@.@.2 [ @.; z @.L L h.K.h.d.L 2 L [ @.@.z z - > = > , > , < < 2 ; % [ < < , - = - , > , L @.@.p = - , - O % ",
"L [ z > , < 2 - , h.p.[ 2 [ - [ [ 2 p @.h.H.h.L , , z h.h.L 2 z p % 2 2 - ; > , 2 L < = 2 < p z z 2 [ @.L > - - ; - $ $ # % p z ",
"L L h.L ; , , = < h.p.@.2 ; L L 2 < z h.h.h.h.@.@.L L h.p.@.L @.z $ , ; ; ; < 2 > ; , ; % 2 @.@.h.L h.d.h.< $ $ $ = L L , z h.2 ",
"L L @.L 2 - ; - ; 2 2 < - L [ 2 [ 2 @.h.h.h.h.d.@.L L 2 l p.@.@.2 # 2 > , < 2 ; % * - , - ; L [ @.L L 2 , % $ % ; p @.@.< 2 d.z ",
"2 L 2 z L L > % % = % - p p.2 < 2 L @.@.h.h.h.@.2 2 l 2 2 h.p.@.L $ , < > ; - - ; - - 2 L 2 - = % % $ $ $ % $ = z d.@.z 2 p 2 2 ",
"< z 2 2 2 2 - > L z 2 L @.[ < < 2 h.@.L p.@.L 2 2 @.L 2 2 h.p.L < & 2 , < , ; , , > < z L L 2 z < - # $ % - - , L @.L < L @.L L ",
"< z 2 L [ [ , ; < ; - , ; - & - > < ; 2 p.@.p 2 L @.@.@.[ [ L 2 ; l 2 , L L L 2 2 L L 2 L @.@.h.d.z % - * > , > < @.@.z L d.p.L ",
"p L z [ h.@.< ; = % - < 2 2 < 2 < ; % ; < > 2 [ @.@.h.H.@.2 , , L @.p 2 @.@.d.@.L @.L 2 L h.@.@.h.L $ * * - - = - 2 @.h.@.[ p 2 ",
"L L @.p.@., - ; = = p @.h.h.h.h.@.< - = $ % 2 @.h.h.H.K.@.< , L h.L @.L L @.p.L p L L @.@.h.@.L h.z # * - > ; ; ; ; 2 L L L l 2 ",
"L [ h.H.< - ; - = = , [ r.@.@.h.L 2 L 2 % , L @.h.h.h.h.@.; = h.@.@.h.@.z [ L < 2 2 z @.@.@.@.@.h.; = 2 L @.L L z 2 ; = ; 2 L p ",
"2 L p.L 2 L L 2 2 < ; , @.@.@.d.< L h.L - L h.h.h.h.h.h.L & - L p.h.h.[ @.@.L p 2 < 2 2 2 p @.d.p & , 2 L L p 2 2 > - - > ; ; , ",
"& - , , L @.@.L L @.z > < L @.@.< L [ 2 - [ h.h.H.h.h.h.< , 2 < [ h.h.L p.h.d.h.L 2 L z p 2 L @.$ < * # $ % $ # o # < @.z p % = ",
"= = < L 2 @.L 2 @.h.h.L - , z L 2 z 2 < : L p.h.h.h.h.l L h.L 2 , z 2 2 l z @.[ 2 L @.p p L p 2 # p % O $ % $ @ $ 2 @.p 2 z = . ",
"L p.H.l < [ L p @.h.h.@., = 2 h.2 z L 2 = l p.@.@.@.2 [ K.@.@.d.- # % $ $ - 2 2 l @.L z L 2 > - $ 2 % O O + o @ , L < p L p =   ",
"h.@.@.L 2 @.L < L h.h.@.2 < 2 d.L L L ; & 2 L p.p.2 L K.@.L L p.= , @.@.L , % % = - = % % $ $ $ $ 2 % o O O # 2 L , > ; ; 2 -   ",
"K.@.L @.@.h.L < 2 z @.[ 2 [ @.L 2 @.L ; $ < L 2 < @.J.L L L l @., , @.L @.h.h.@.@.p.@.@.h.@.L L L - O o O $ p @.2 < < , 2 @.; . ",
"h.@.h.p p 2 p L @.h.@.L L L h.@.- < < < % - - - L L 2 [ L L l @.- 2 @.p.h.h.h.h.h.h.h.d.h.h.@.h.@.L z @.; - L L < 2 L z 2 @.- . ",
"h.d.d.2 < 2 [ p.p.h.h.h.@.@., , ; - , - = = - L L - 2 d.@.2 u.@.> z @.h.K.h.h.h.@.h.h.H.h.d.h.h.h.@.L h.- - L [ p L @.@.L @.- . ",
"h.h.p.2 < p @.h.h.h.h.[ p.L < < < , $ # - - - 2 @.L @.p.l L p.h.@.2 l K.K.h.@.@.h.K.K.H.h.h.d.d.h.h.[ , ; L L p @.@.@.@.@.@.- O ",
"K.h.p.2 < [ h.h.h.h.@.L @.L < > = = % # % = - 2 p.p.@.L L h.K.K.H.2 2 p.h.h.@.h.K.K.K.h.h.h.p.h.@.p - - @.L 2 @.@.z z @.@.@.L = ",
"K.h.p.@.2 @.H.K.h.h.@.@.L < > , 2 , > ; * , L @.@.@.@.2 p.h.K.K.K.L k < h.h.p.h.H.K.H.h.d.h.h.@.; - $ l L 2 z @.L , p h.h.h.@.% ",
"P.h.d.h.L @.h.h.@.L [ @.< , < L L L [ @.< > L h.d.h.@.l h.h.K.K.h.@.< , p.p.@.h.h.K.h.d.p.h.@.- < > - 2 L @.[ l < < [ h.h.h.2 & ",
"H.h.h.h.@.d.@.L p p @.L , < < 2 2 2 @.h.L ; L h.h.p.L [ h.h.h.h.h.h.L < @.@.h.h.h.h.h.p.h.h.< < L L @.< < , ; ; 2 [ L @.h.@.; p ",
"2 p L L @.L 2 < 2 L [ 2 < 2 2 , L L @.h.@.; L h.@.L L h.h.H.h.h.h.K.L > [ h.H.K.h.h.h.h.@., 2 p.@.h.h.2 & ; 2 2 p @.@.L @.@.- @.",
"; < z L L p p p 2 2 2 , < < 2 < h.h.@.p.L - L @.L L L h.h.H.h.h.h.h.2 - @.h.K.K.H.@.L L - # @.h.h.h.h.2 & L h.@.z 2 L L @.L = , ",
"2 2 L [ z z @.@.[ p > 2 2 < , , @.@.@.p.2 - l @.@.@.@.h.h.h.K.K.h.p.< > h.K.K.K.h.L < - o # @.h.h.h.h.< - @.h.h.@.2 2 @.@.2 = = ",
"2 , < , 2 L L z L L p @.L 2 2 > L d.h.h.L - , L L L @.h.p.h.K.h.@.p., ; d.H.h.h.h.z = # O $ @.h.h.h.h.; - L @.@.h.@.L z 2 < & - ",
"= ; ; ; z @.[ 2 2 2 L d.h.@.L , @.h.h.h.L - - - - ; 2 [ @.H.K.@.L @.< = L @.@.@.L - @ # # $ @.h.h.h.h., = p @.L @.h.h.2 - > @ - ",
"$ $ $ * - 2 z 2 2 < 2 @.[ L z ; [ L [ L , 2 @.@.@.L , 2 h.H.h.L 2 [ , = 2 2 ; ; $ o # % # $ @.h.d.L @.2 - p @.@.@.h.h.L ; $ . @ ",
"< , - > - ; 2 L z < 2 L ; % $ % - & = % l d.G.h.@.@.@.L L @.L @.2 @.; $ % = - % o O * % # # z @.@.L p < ; L h.h.h.@.L 2 > $ # # ",
"@.@.< < < ; ; z @.z 2 , > z < @.@.p.@.2 < p d.@.L @.p.L - L L L 2 @., . . < L ; # $ % % @ O 2 L @.2 < > = p [ @.@.p 2 z < = $ = ",
"L z 2 < < [ 2 > 2 L ; ; @.z 2 [ @.h.h.h., 2 L L @.h.@.< - h.p < < < = . o ; * # $ $ % $ O # z 2 @.L 2 > = > ; < L L L [ [ - $ ; "
};
