/* XPM */
static char *west_wall[] = {
/* columns rows colors chars-per-pixel */
"64 64 2 1 ",
"  c None",
". c white",
/* pixels */
"                                            ........        ....",
"                                            ........        ....",
"                                            ........        ....",
"                                            ........        ....",
"                                                        ........",
"                                                        ........",
"                                                        ........",
"                                                        ........",
"                                        ............    ........",
"                                        ............    ........",
"                                        ............    ........",
"                                        ............    ........",
"                                        ............        ....",
"                                        ............        ....",
"                                        ............        ....",
"                                        ............        ....",
"                                        ............        ....",
"                                        ............        ....",
"                                        ............        ....",
"                                        ............        ....",
"                                                        ........",
"                                                        ........",
"                                                        ........",
"                                                        ........",
"                                    ....    ........    ........",
"                                    ....    ........    ........",
"                                    ....    ........    ........",
"                                    ....    ........    ........",
"                                            ........        ....",
"                                            ........        ....",
"                                            ........        ....",
"                                            ........        ....",
"                                ........    ........        ....",
"                                ........    ........        ....",
"                                ........    ........        ....",
"                                ........    ........        ....",
"                                ........    ........    ........",
"                                ........    ........    ........",
"                                ........    ........    ........",
"                                ........    ........    ........",
"                                                        ........",
"                                                        ........",
"                                                        ........",
"                                                        ........",
"                                ....    ............        ....",
"                                ....    ............        ....",
"                                ....    ............        ....",
"                                ....    ............        ....",
"                                        ............        ....",
"                                        ............        ....",
"                                        ............        ....",
"                                        ............        ....",
"                                        ............    ........",
"                                        ............    ........",
"                                        ............    ........",
"                                        ............    ........",
"                                                        ........",
"                                                        ........",
"                                                        ........",
"                                                        ........",
"                                            ........        ....",
"                                            ........        ....",
"                                            ........        ....",
"                                            ........        ...."
};
